<svg xmlns="http://www.w3.org/2000/svg" xmlns:ns1="http://www.inkscape.org/namespaces/inkscape" xmlns:ns2="http://sodipodi.sourceforge.net/DTD/sodipodi-0.dtd" width="21.699997mm" height="38.169449mm" viewBox="0 -1 21.699997 38.169449" version="1.1" id="svg1" ns1:version="1.4.3 (0d15f75042, 2025-12-25)" ns2:docname="six.svg">
  <ns2:namedview id="namedview1" pagecolor="#ffffff" bordercolor="#666666" borderopacity="1.0" ns1:showpageshadow="2" ns1:pageopacity="0.0" ns1:pagecheckerboard="0" ns1:deskcolor="#d1d1d1" ns1:document-units="mm" ns1:zoom="7.3121211" ns1:cx="39.796934" ns1:cy="65.23415" ns1:window-width="1536" ns1:window-height="1416" ns1:window-x="10" ns1:window-y="10" ns1:window-maximized="0" ns1:current-layer="layer1" />
  <defs id="defs1" />
  <g ns1:label="Layer 1" ns1:groupmode="layer" id="layer1" transform="translate(-84.635413,-132.38941)">
    <path style="fill:none;stroke:#000000;stroke-width:0.227147px;stroke-linecap:butt;stroke-linejoin:miter;stroke-opacity:1" d="M 103.367,132.654 L 101.785,131.841 L 100.156,131.548 L 98.478,131.715 L 96.833,132.267 L 95.266,133.109 L 93.796,134.163 L 92.426,135.376 L 91.155,136.710 L 89.980,138.140 L 88.898,139.649 L 87.911,141.224 L 87.019,142.856 L 86.226,144.538 L 85.541,146.263 L 84.972,148.025 L 84.535,149.816 L 84.248,151.630 L 84.126,153.482 L 84.072,155.364 L 84.077,157.243 L 84.168,159.101 L 84.387,160.920 L 84.794,162.659 L 85.467,164.247 L 86.477,165.580 L 87.824,166.575 L 89.419,167.236 L 91.160,167.630 L 92.978,167.831 L 94.822,167.894 L 96.646,167.815 L 98.420,167.528 L 100.118,167.001 L 101.690,166.215 L 103.085,165.165 L 104.251,163.873 L 105.152,162.379 L 105.771,160.737 L 106.104,159.005 L 106.154,157.236 L 105.926,155.480 L 105.423,153.788 L 104.652,152.222 L 103.603,150.871 L 102.283,149.837 L 100.750,149.211 L 99.115,149.049 L 97.543,149.375 L 96.105,150.340 L 95.851,150.455 L 95.575,150.485 L 95.302,150.429 L 95.061,150.292 L 94.874,150.086 L 94.759,149.833 L 94.728,149.556 L 94.784,149.284 L 94.922,149.042 L 95.128,148.855 L 96.860,147.734 L 99.017,147.274 L 101.177,147.485 L 103.175,148.299 L 104.862,149.615 L 106.158,151.278 L 107.078,153.139 L 107.665,155.111 L 107.929,157.146 L 107.871,159.199 L 107.482,161.221 L 106.752,163.155 L 105.678,164.932 L 104.285,166.477 L 102.627,167.726 L 100.781,168.650 L 98.827,169.258 L 96.827,169.584 L 94.830,169.671 L 92.849,169.604 L 90.865,169.383 L 88.878,168.929 L 86.946,168.121 L 85.228,166.844 L 83.930,165.140 L 83.105,163.214 L 82.636,161.231 L 82.396,159.252 L 82.300,157.288 L 82.295,155.341 L 82.350,153.397 L 82.481,151.432 L 82.792,149.466 L 83.261,147.541 L 83.868,145.661 L 84.595,143.831 L 85.434,142.051 L 86.377,140.325 L 87.422,138.659 L 88.570,137.057 L 89.824,135.532 L 91.192,134.096 L 92.687,132.773 L 94.326,131.600 L 96.129,130.635 L 98.108,129.977 L 100.228,129.771 L 102.352,130.156 L 104.172,131.069 L 104.228,131.109 L 104.269,131.166 L 104.290,131.232 L 104.291,131.301 L 104.269,131.367 L 104.228,131.424 L 104.172,131.465 L 104.106,131.486 L 104.037,131.486 L 103.970,131.465 L 102.210,130.578 L 100.210,130.215 L 98.200,130.411 L 96.305,131.043 L 94.561,131.977 L 92.965,133.121 L 91.501,134.416 L 90.157,135.826 L 88.922,137.328 L 87.791,138.906 L 86.760,140.550 L 85.830,142.252 L 85.003,144.007 L 84.286,145.812 L 83.689,147.662 L 83.227,149.554 L 82.923,151.481 L 82.794,153.418 L 82.739,155.346 L 82.744,157.277 L 82.839,159.214 L 83.074,161.153 L 83.527,163.075 L 84.314,164.917 L 85.540,166.528 L 87.166,167.735 L 89.013,168.506 L 90.939,168.945 L 92.882,169.161 L 94.828,169.227 L 96.782,169.142 L 98.726,168.825 L 100.615,168.238 L 102.393,167.348 L 103.985,166.149 L 105.321,164.668 L 106.352,162.961 L 107.055,161.100 L 107.429,159.150 L 107.485,157.169 L 107.230,155.204 L 106.664,153.301 L 105.782,151.514 L 104.547,149.929 L 102.952,148.684 L 101.070,147.917 L 99.041,147.717 L 97.031,148.144 L 95.372,149.226 L 95.269,149.320 L 95.200,149.441 L 95.172,149.577 L 95.188,149.715 L 95.245,149.842 L 95.338,149.945 L 95.459,150.013 L 95.595,150.042 L 95.734,150.026 L 95.860,149.969 L 97.373,148.965 L 99.090,148.605 L 100.856,148.779 L 102.506,149.453 L 103.918,150.557 L 105.029,151.986 L 105.837,153.626 L 106.360,155.388 L 106.598,157.214 L 106.546,159.054 L 106.199,160.858 L 105.552,162.573 L 104.608,164.138 L 103.385,165.493 L 101.924,166.593 L 100.283,167.413 L 98.522,167.960 L 96.691,168.257 L 94.824,168.338 L 92.946,168.274 L 91.086,168.068 L 89.283,167.659 L 87.604,166.961 L 86.165,165.896 L 85.083,164.470 L 84.372,162.798 L 83.949,160.998 L 83.725,159.139 L 83.633,157.254 L 83.628,155.358 L 83.682,153.460 L 83.806,151.580 L 84.099,149.729 L 84.544,147.904 L 85.122,146.113 L 85.819,144.361 L 86.622,142.655 L 87.527,140.999 L 88.529,139.401 L 89.627,137.869 L 90.822,136.415 L 92.118,135.056 L 93.519,133.816 L 95.031,132.732 L 96.657,131.859 L 98.386,131.281 L 100.174,131.104 L 101.927,131.420 L 103.568,132.258 L 103.625,132.299 L 103.666,132.355 L 103.687,132.421 L 103.688,132.490 L 103.666,132.557 L 103.625,132.613 L 103.569,132.654 L 103.503,132.675 L 103.434,132.676" id="path2" ns2:nodetypes="czzzc" fill="none" stroke="black" />
  </g>
</svg>