<svg xmlns="http://www.w3.org/2000/svg" xmlns:ns1="http://www.inkscape.org/namespaces/inkscape" xmlns:ns2="http://sodipodi.sourceforge.net/DTD/sodipodi-0.dtd" width="21.699997mm" height="38.169449mm" viewBox="0 -1 21.699997 38.169449" version="1.1" id="svg1" ns1:version="1.4.3 (0d15f75042, 2025-12-25)" ns2:docname="six.svg">
  <ns2:namedview id="namedview1" pagecolor="#ffffff" bordercolor="#666666" borderopacity="1.0" ns1:showpageshadow="2" ns1:pageopacity="0.0" ns1:pagecheckerboard="0" ns1:deskcolor="#d1d1d1" ns1:document-units="mm" ns1:zoom="3.6560606" ns1:cx="12.034812" ns1:cy="105.57812" ns1:window-width="1536" ns1:window-height="1416" ns1:window-x="10" ns1:window-y="10" ns1:window-maximized="0" ns1:current-layer="layer1" />
  <defs id="defs1" />
  <g ns1:label="Layer 1" ns1:groupmode="layer" id="layer1" transform="translate(-84.635413,-132.38941)">
    <path style="fill:none;stroke:#000000;stroke-width:0.227147px;stroke-linecap:butt;stroke-linejoin:miter;stroke-opacity:1" d="M 102.707,134.020 L 101.626,132.560 L 100.633,131.478 L 99.667,130.678 L 98.799,130.196 L 98.046,129.997 L 97.299,130.027 L 96.421,130.305 L 95.399,130.876 L 94.303,131.730 L 93.204,132.816 L 92.144,134.081 L 91.145,135.480 L 90.217,136.980 L 89.367,138.556 L 88.602,140.189 L 87.926,141.860 L 87.351,143.551 L 86.889,145.238 L 86.562,146.883 L 86.389,148.533 L 86.344,150.302 L 86.378,152.133 L 86.506,153.916 L 86.740,155.632 L 87.086,157.253 L 87.553,158.744 L 88.138,160.064 L 88.832,161.180 L 89.626,162.076 L 90.527,162.770 L 91.569,163.286 L 92.781,163.637 L 94.161,163.818 L 95.632,163.830 L 97.050,163.676 L 98.311,163.353 L 99.386,162.873 L 100.273,162.247 L 100.988,161.475 L 101.538,160.550 L 101.916,159.480 L 102.102,158.303 L 102.082,157.080 L 101.857,155.883 L 101.454,154.806 L 100.949,153.975 L 100.419,153.451 L 99.898,153.177 L 99.408,153.092 L 99.119,153.109 L 98.258,153.770 L 96.839,154.382 L 95.301,154.526 L 93.794,154.187 L 92.464,153.399 L 91.444,152.239 L 90.832,150.821 L 90.688,149.282 L 91.027,147.775 L 91.814,146.446 L 92.974,145.425 L 95.590,143.885 L 99.375,143.215 L 102.967,143.789 L 106.131,145.394 L 108.597,147.727 L 110.297,150.406 L 111.364,153.206 L 111.908,156.084 L 111.953,159.008 L 111.485,161.926 L 110.471,164.763 L 108.893,167.395 L 106.794,169.666 L 104.301,171.440 L 101.597,172.667 L 98.843,173.388 L 96.137,173.694 L 93.458,173.669 L 90.725,173.297 L 87.957,172.479 L 85.289,171.143 L 82.903,169.311 L 80.936,167.113 L 79.425,164.714 L 78.318,162.246 L 77.538,159.777 L 77.012,157.340 L 76.683,154.942 L 76.512,152.584 L 76.467,150.263 L 76.534,147.882 L 76.796,145.404 L 77.275,142.976 L 77.907,140.658 L 78.669,138.419 L 79.549,136.240 L 80.546,134.113 L 81.667,132.035 L 82.924,130.005 L 84.340,128.027 L 85.951,126.113 L 87.810,124.288 L 89.999,122.606 L 92.617,121.191 L 95.708,120.279 L 99.098,120.176 L 102.360,120.984 L 105.145,122.459 L 107.395,124.279 L 109.219,126.245 L 110.621,128.111 L 110.855,128.555 L 110.940,129.050 L 110.868,129.547 L 110.646,129.997 L 110.295,130.357 L 109.851,130.591 L 109.356,130.676 L 108.859,130.604 L 108.409,130.382 L 108.049,130.031 L 106.751,128.297 L 105.197,126.619 L 103.364,125.130 L 101.203,123.977 L 98.756,123.368 L 96.225,123.447 L 93.853,124.153 L 91.754,125.294 L 89.920,126.706 L 88.308,128.291 L 86.877,129.994 L 85.596,131.784 L 84.446,133.642 L 83.413,135.557 L 82.491,137.523 L 81.677,139.537 L 80.977,141.598 L 80.400,143.711 L 79.970,145.885 L 79.737,148.093 L 79.677,150.276 L 79.718,152.437 L 79.876,154.608 L 80.173,156.785 L 80.641,158.957 L 81.320,161.107 L 82.257,163.203 L 83.502,165.184 L 85.088,166.960 L 86.992,168.422 L 89.131,169.491 L 91.393,170.158 L 93.686,170.468 L 95.973,170.488 L 98.260,170.232 L 100.529,169.640 L 102.704,168.656 L 104.675,167.255 L 106.324,165.471 L 107.568,163.394 L 108.375,161.131 L 108.751,158.779 L 108.715,156.408 L 108.274,154.076 L 107.423,151.836 L 106.112,149.758 L 104.275,148.013 L 101.969,146.841 L 99.386,146.425 L 96.737,146.883 L 94.692,148.137 L 94.286,148.494 L 94.010,148.960 L 93.891,149.487 L 93.942,150.026 L 94.156,150.522 L 94.513,150.928 L 94.978,151.204 L 95.506,151.322 L 96.044,151.272 L 96.541,151.058 L 97.972,150.111 L 99.397,149.882 L 100.896,150.126 L 102.276,150.833 L 103.434,151.945 L 104.328,153.376 L 104.947,155.013 L 105.276,156.756 L 105.304,158.532 L 105.026,160.275 L 104.441,161.919 L 103.557,163.399 L 102.392,164.658 L 100.984,165.658 L 99.379,166.380 L 97.633,166.832 L 95.796,167.036 L 93.932,167.020 L 92.113,166.776 L 90.395,166.274 L 88.825,165.491 L 87.441,164.428 L 86.266,163.108 L 85.306,161.576 L 84.552,159.882 L 83.983,158.073 L 83.578,156.187 L 83.314,154.250 L 83.171,152.280 L 83.134,150.290 L 83.186,148.321 L 83.388,146.402 L 83.765,144.503 L 84.282,142.611 L 84.918,140.741 L 85.659,138.905 L 86.500,137.112 L 87.438,135.373 L 88.473,133.700 L 89.608,132.113 L 90.847,130.638 L 92.193,129.311 L 93.644,128.188 L 95.185,127.343 L 96.782,126.859 L 98.388,126.805 L 99.956,127.202 L 101.447,128.007 L 102.831,129.138 L 104.094,130.507 L 105.279,132.099 L 105.513,132.544 L 105.598,133.039 L 105.526,133.536 L 105.304,133.986 L 104.953,134.346 L 104.509,134.579 L 104.014,134.664 L 103.517,134.592 L 103.067,134.370 M 102.905,133.872 L 101.815,132.402 L 100.802,131.298 L 99.804,130.473 L 98.888,129.965 L 98.072,129.751 L 97.259,129.783 L 96.326,130.077 L 95.264,130.669 L 94.141,131.544 L 93.023,132.649 L 91.949,133.929 L 90.939,135.343 L 90.003,136.856 L 89.147,138.445 L 88.375,140.090 L 87.695,141.774 L 87.115,143.479 L 86.649,145.182 L 86.317,146.846 L 86.143,148.517 L 86.097,150.301 L 86.131,152.144 L 86.261,153.942 L 86.496,155.675 L 86.848,157.316 L 87.322,158.831 L 87.920,160.181 L 88.635,161.328 L 89.458,162.257 L 90.397,162.979 L 91.479,163.516 L 92.730,163.878 L 94.143,164.064 L 95.645,164.077 L 97.094,163.919 L 98.393,163.586 L 99.509,163.088 L 100.436,162.433 L 101.185,161.623 L 101.762,160.655 L 102.155,159.541 L 102.348,158.321 L 102.328,157.055 L 102.095,155.816 L 101.675,154.696 L 101.140,153.819 L 100.562,153.250 L 99.975,152.943 L 99.407,152.845 L 99.030,152.879 L 98.126,153.561 L 96.778,154.143 L 95.317,154.279 L 93.885,153.958 L 92.622,153.209 L 91.653,152.107 L 91.071,150.760 L 90.934,149.298 L 91.256,147.866 L 92.004,146.603 L 93.106,145.634 L 95.678,144.115 L 99.376,143.462 L 102.890,144.024 L 105.988,145.595 L 108.406,147.883 L 110.075,150.516 L 111.126,153.273 L 111.663,156.109 L 111.707,158.990 L 111.246,161.865 L 110.248,164.657 L 108.696,167.247 L 106.631,169.480 L 104.178,171.226 L 101.515,172.434 L 98.799,173.145 L 96.124,173.447 L 93.475,173.423 L 90.777,173.056 L 88.048,172.249 L 85.420,170.934 L 83.071,169.130 L 81.134,166.964 L 79.643,164.598 L 78.549,162.158 L 77.777,159.714 L 77.255,157.297 L 76.929,154.916 L 76.758,152.573 L 76.714,150.264 L 76.780,147.898 L 77.040,145.441 L 77.515,143.033 L 78.143,140.731 L 78.900,138.505 L 79.775,136.339 L 80.767,134.225 L 81.881,132.159 L 83.130,130.142 L 84.536,128.178 L 86.132,126.280 L 87.972,124.474 L 90.134,122.813 L 92.712,121.419 L 95.748,120.523 L 99.071,120.422 L 102.271,121.214 L 105.008,122.665 L 107.226,124.459 L 109.030,126.403 L 110.423,128.259 L 110.621,128.635 L 110.693,129.053 L 110.632,129.474 L 110.444,129.855 L 110.148,130.159 L 109.772,130.357 L 109.353,130.429 L 108.932,130.368 L 108.551,130.180 L 108.247,129.884 L 106.941,128.139 L 105.366,126.439 L 103.501,124.925 L 101.292,123.747 L 98.782,123.122 L 96.185,123.204 L 93.758,123.925 L 91.619,125.087 L 89.758,126.520 L 88.127,128.124 L 86.682,129.843 L 85.391,131.647 L 84.232,133.518 L 83.193,135.446 L 82.265,137.425 L 81.446,139.451 L 80.740,141.526 L 80.159,143.655 L 79.726,145.848 L 79.490,148.077 L 79.430,150.275 L 79.472,152.449 L 79.630,154.634 L 79.930,156.827 L 80.403,159.020 L 81.089,161.195 L 82.039,163.319 L 83.305,165.333 L 84.920,167.141 L 86.861,168.631 L 89.041,169.721 L 91.342,170.399 L 93.669,170.714 L 95.985,170.735 L 98.305,170.474 L 100.611,169.873 L 102.827,168.870 L 104.838,167.440 L 106.522,165.619 L 107.791,163.499 L 108.614,161.193 L 108.998,158.797 L 108.960,156.383 L 108.512,154.009 L 107.644,151.726 L 106.303,149.602 L 104.418,147.811 L 102.046,146.606 L 99.385,146.178 L 96.648,146.652 L 94.559,147.929 L 94.095,148.337 L 93.780,148.869 L 93.645,149.471 L 93.702,150.087 L 93.947,150.654 L 94.355,151.118 L 94.887,151.433 L 95.490,151.569 L 96.105,151.511 L 96.673,151.266 L 98.060,150.342 L 99.398,150.129 L 100.819,150.361 L 102.133,151.034 L 103.243,152.101 L 104.107,153.486 L 104.709,155.080 L 105.030,156.781 L 105.057,158.515 L 104.787,160.214 L 104.218,161.814 L 103.359,163.251 L 102.229,164.473 L 100.861,165.444 L 99.297,166.147 L 97.588,166.589 L 95.783,166.789 L 93.950,166.773 L 92.164,166.535 L 90.486,166.044 L 88.956,165.282 L 87.609,164.247 L 86.463,162.960 L 85.524,161.459 L 84.783,159.794 L 84.222,158.010 L 83.821,156.144 L 83.560,154.224 L 83.418,152.268 L 83.381,150.291 L 83.432,148.338 L 83.632,146.439 L 84.005,144.560 L 84.518,142.683 L 85.149,140.827 L 85.886,139.004 L 86.721,137.223 L 87.652,135.496 L 88.679,133.837 L 89.803,132.265 L 91.028,130.805 L 92.355,129.497 L 93.779,128.395 L 95.280,127.571 L 96.821,127.103 L 98.361,127.051 L 99.867,127.432 L 101.310,128.212 L 102.662,129.318 L 103.904,130.665 L 105.081,132.247 L 105.279,132.623 L 105.351,133.042 L 105.290,133.462 L 105.102,133.843 L 104.806,134.148 L 104.430,134.346 L 104.011,134.418 L 103.590,134.357 L 103.209,134.169 M 103.301,133.577 L 102.195,132.086 L 101.140,130.938 L 100.078,130.062 L 99.066,129.505 L 98.125,129.260 L 97.179,129.296 L 96.136,129.621 L 94.994,130.256 L 93.816,131.172 L 92.660,132.313 L 91.559,133.627 L 90.528,135.069 L 89.576,136.609 L 88.706,138.223 L 87.923,139.892 L 87.232,141.602 L 86.643,143.334 L 86.168,145.069 L 85.829,146.772 L 85.650,148.484 L 85.603,150.299 L 85.638,152.167 L 85.770,153.993 L 86.010,155.760 L 86.370,157.442 L 86.860,159.006 L 87.485,160.413 L 88.240,161.625 L 89.122,162.619 L 90.135,163.398 L 91.298,163.976 L 92.627,164.361 L 94.108,164.557 L 95.670,164.570 L 97.184,164.404 L 98.557,164.052 L 99.755,163.516 L 100.762,162.804 L 101.581,161.919 L 102.208,160.866 L 102.634,159.664 L 102.841,158.356 L 102.819,157.005 L 102.570,155.682 L 102.117,154.476 L 101.522,153.507 L 100.848,152.847 L 100.129,152.473 L 99.405,152.351 L 98.854,152.418 L 97.862,153.144 L 96.656,153.664 L 95.348,153.787 L 94.067,153.499 L 92.937,152.829 L 92.070,151.843 L 91.549,150.637 L 91.427,149.330 L 91.715,148.048 L 92.385,146.919 L 93.371,146.051 L 95.854,144.577 L 99.377,143.956 L 102.736,144.494 L 105.703,145.998 L 108.024,148.196 L 109.633,150.736 L 110.651,153.407 L 111.171,156.159 L 111.214,158.955 L 110.767,161.743 L 109.801,164.447 L 108.301,166.951 L 106.305,169.109 L 103.932,170.798 L 101.351,171.969 L 98.709,172.660 L 96.099,172.954 L 93.510,172.931 L 90.879,172.573 L 88.228,171.789 L 85.682,170.515 L 83.407,168.769 L 81.528,166.668 L 80.078,164.366 L 79.011,161.983 L 78.254,159.588 L 77.741,157.212 L 77.420,154.865 L 77.252,152.550 L 77.208,150.266 L 77.273,147.931 L 77.529,145.515 L 77.996,143.146 L 78.616,140.875 L 79.363,138.677 L 80.228,136.536 L 81.208,134.447 L 82.308,132.406 L 83.541,130.415 L 84.926,128.481 L 86.495,126.616 L 88.297,124.846 L 90.404,123.226 L 92.902,121.874 L 95.827,121.010 L 99.019,120.913 L 102.093,121.674 L 104.734,123.076 L 106.888,124.819 L 108.650,126.718 L 110.028,128.554 L 110.154,128.793 L 110.199,129.060 L 110.160,129.327 L 110.041,129.570 L 109.852,129.764 L 109.613,129.889 L 109.346,129.935 L 109.079,129.896 L 108.836,129.777 L 108.643,129.588 L 107.321,127.823 L 105.704,126.079 L 103.775,124.514 L 101.470,123.287 L 98.835,122.631 L 96.105,122.716 L 93.568,123.469 L 91.349,124.674 L 89.433,126.148 L 87.764,127.789 L 86.291,129.540 L 84.980,131.373 L 83.805,133.271 L 82.752,135.224 L 81.812,137.227 L 80.983,139.279 L 80.268,141.382 L 79.679,143.542 L 79.238,145.774 L 78.998,148.045 L 78.936,150.273 L 78.978,152.471 L 79.139,154.685 L 79.444,156.913 L 79.925,159.146 L 80.627,161.370 L 81.603,163.552 L 82.910,165.629 L 84.583,167.502 L 86.599,169.050 L 88.860,170.181 L 91.239,170.882 L 93.634,171.206 L 96.011,171.228 L 98.395,170.960 L 100.775,170.339 L 103.072,169.299 L 105.164,167.811 L 106.917,165.915 L 108.238,163.710 L 109.093,161.315 L 109.490,158.832 L 109.452,156.333 L 108.987,153.875 L 108.086,151.506 L 106.685,149.289 L 104.703,147.408 L 102.200,146.136 L 99.383,145.684 L 96.472,146.191 L 94.295,147.511 L 93.715,148.022 L 93.321,148.686 L 93.152,149.440 L 93.224,150.209 L 93.530,150.918 L 94.040,151.498 L 94.705,151.892 L 95.459,152.062 L 96.228,151.990 L 96.937,151.684 L 98.236,150.803 L 99.400,150.622 L 100.665,150.830 L 101.847,151.437 L 102.861,152.413 L 103.665,153.706 L 104.234,155.214 L 104.539,156.831 L 104.565,158.480 L 104.308,160.092 L 103.772,161.603 L 102.964,162.955 L 101.903,164.102 L 100.615,165.015 L 99.132,165.682 L 97.498,166.104 L 95.758,166.296 L 93.985,166.281 L 92.267,166.052 L 90.666,165.584 L 89.218,164.863 L 87.945,163.885 L 86.858,162.663 L 85.960,161.227 L 85.244,159.619 L 84.699,157.884 L 84.308,156.059 L 84.051,154.173 L 83.911,152.246 L 83.875,150.293 L 83.925,148.370 L 84.120,146.513 L 84.486,144.673 L 84.990,142.828 L 85.612,140.999 L 86.338,139.201 L 87.162,137.445 L 88.079,135.744 L 89.090,134.111 L 90.193,132.567 L 91.391,131.140 L 92.680,129.869 L 94.049,128.809 L 95.470,128.026 L 96.901,127.590 L 98.309,127.542 L 99.689,127.893 L 101.037,128.623 L 102.323,129.678 L 103.524,130.981 L 104.686,132.543 L 104.812,132.782 L 104.857,133.048 L 104.819,133.316 L 104.699,133.558 L 104.510,133.752 L 104.271,133.878 L 104.005,133.924 L 103.737,133.885 L 103.494,133.765 M 103.499,133.429 L 102.385,131.928 L 101.309,130.758 L 100.215,129.856 L 99.155,129.274 L 98.151,129.015 L 97.140,129.052 L 96.041,129.394 L 94.859,130.049 L 93.654,130.986 L 92.479,132.146 L 91.364,133.475 L 90.323,134.932 L 89.362,136.485 L 88.485,138.112 L 87.696,139.794 L 87.001,141.516 L 86.407,143.262 L 85.928,145.012 L 85.585,146.735 L 85.403,148.468 L 85.356,150.298 L 85.391,152.178 L 85.524,154.019 L 85.767,155.803 L 86.132,157.505 L 86.630,159.094 L 87.267,160.529 L 88.043,161.773 L 88.953,162.800 L 90.004,163.607 L 91.208,164.206 L 92.576,164.603 L 94.091,164.803 L 95.682,164.816 L 97.229,164.647 L 98.640,164.285 L 99.878,163.730 L 100.925,162.989 L 101.778,162.067 L 102.432,160.971 L 102.873,159.725 L 103.087,158.374 L 103.065,156.981 L 102.808,155.615 L 102.339,154.366 L 101.713,153.351 L 100.991,152.646 L 100.205,152.239 L 99.405,152.104 L 98.766,152.187 L 97.730,152.935 L 96.595,153.425 L 95.364,153.540 L 94.158,153.269 L 93.095,152.639 L 92.278,151.711 L 91.789,150.576 L 91.674,149.345 L 91.944,148.139 L 92.575,147.076 L 93.503,146.260 L 95.943,144.807 L 99.378,144.203 L 102.660,144.728 L 105.560,146.200 L 107.833,148.352 L 109.412,150.846 L 110.413,153.474 L 110.926,156.184 L 110.968,158.938 L 110.528,161.682 L 109.578,164.341 L 108.103,166.803 L 106.142,168.924 L 103.810,170.584 L 101.268,171.736 L 98.664,172.417 L 96.086,172.707 L 93.528,172.684 L 90.931,172.331 L 88.319,171.560 L 85.813,170.306 L 83.575,168.588 L 81.726,166.519 L 80.296,164.249 L 79.242,161.895 L 78.493,159.525 L 77.985,157.169 L 77.666,154.839 L 77.498,152.539 L 77.455,150.267 L 77.519,147.947 L 77.773,145.552 L 78.236,143.202 L 78.852,140.948 L 79.594,138.763 L 80.454,136.635 L 81.428,134.558 L 82.522,132.530 L 83.746,130.552 L 85.121,128.632 L 86.676,126.783 L 88.459,125.032 L 90.539,123.433 L 92.997,122.102 L 95.867,121.254 L 98.992,121.158 L 102.004,121.905 L 104.597,123.281 L 106.719,124.999 L 108.460,126.876 L 109.830,128.702 L 109.920,128.873 L 109.952,129.063 L 109.925,129.254 L 109.839,129.427 L 109.704,129.566 L 109.534,129.656 L 109.343,129.688 L 109.152,129.661 L 108.979,129.575 L 108.841,129.440 L 107.511,127.666 L 105.874,125.899 L 103.912,124.309 L 101.559,123.056 L 98.861,122.386 L 96.066,122.472 L 93.473,123.241 L 91.214,124.467 L 89.271,125.962 L 87.583,127.621 L 86.096,129.389 L 84.774,131.237 L 83.591,133.148 L 82.531,135.113 L 81.586,137.128 L 80.752,139.193 L 80.032,141.309 L 79.438,143.485 L 78.993,145.737 L 78.751,148.028 L 78.689,150.272 L 78.732,152.482 L 78.894,154.711 L 79.201,156.956 L 79.686,159.209 L 80.396,161.458 L 81.385,163.668 L 82.713,165.778 L 84.415,167.683 L 86.468,169.259 L 88.770,170.410 L 91.188,171.124 L 93.616,171.453 L 96.023,171.474 L 98.440,171.203 L 100.858,170.572 L 103.195,169.513 L 105.327,167.997 L 107.115,166.063 L 108.461,163.815 L 109.332,161.376 L 109.737,158.850 L 109.697,156.308 L 109.225,153.808 L 108.307,151.396 L 106.876,149.133 L 104.846,147.207 L 102.276,145.902 L 99.382,145.437 L 96.384,145.960 L 94.163,147.303 L 93.525,147.864 L 93.092,148.595 L 92.906,149.424 L 92.985,150.270 L 93.321,151.051 L 93.883,151.689 L 94.614,152.122 L 95.443,152.308 L 96.289,152.229 L 97.069,151.892 L 98.325,151.034 L 99.400,150.869 L 100.589,151.065 L 101.705,151.638 L 102.670,152.570 L 103.444,153.816 L 103.996,155.281 L 104.293,156.856 L 104.318,158.462 L 104.069,160.031 L 103.548,161.498 L 102.766,162.807 L 101.740,163.917 L 100.492,164.801 L 99.050,165.449 L 97.453,165.861 L 95.746,166.049 L 94.003,166.034 L 92.319,165.810 L 90.757,165.355 L 89.349,164.654 L 88.113,163.704 L 87.056,162.515 L 86.178,161.111 L 85.475,159.532 L 84.938,157.821 L 84.551,156.016 L 84.296,154.147 L 84.158,152.235 L 84.122,150.294 L 84.172,148.386 L 84.364,146.550 L 84.726,144.729 L 85.226,142.900 L 85.843,141.085 L 86.565,139.300 L 87.383,137.556 L 88.293,135.867 L 89.295,134.248 L 90.388,132.719 L 91.572,131.308 L 92.842,130.055 L 94.184,129.015 L 95.565,128.254 L 96.941,127.834 L 98.283,127.787 L 99.600,128.123 L 100.900,128.829 L 102.154,129.858 L 103.334,131.139 L 104.488,132.690 L 104.578,132.861 L 104.611,133.052 L 104.583,133.243 L 104.497,133.416 L 104.363,133.554 L 104.192,133.644 L 104.001,133.677 L 103.810,133.649 L 103.637,133.564" id="path2" ns2:nodetypes="czzzc" fill="none" stroke="black" />
  </g>
</svg>