<svg xmlns="http://www.w3.org/2000/svg" xmlns:ns1="http://www.inkscape.org/namespaces/inkscape" xmlns:ns2="http://sodipodi.sourceforge.net/DTD/sodipodi-0.dtd" width="21.699997mm" height="38.169449mm" viewBox="0 -1 21.699997 38.169449" version="1.1" id="svg1" ns1:version="1.4.3 (0d15f75042, 2025-12-25)" ns2:docname="six.svg">
  <ns2:namedview id="namedview1" pagecolor="#ffffff" bordercolor="#666666" borderopacity="1.0" ns1:showpageshadow="2" ns1:pageopacity="0.0" ns1:pagecheckerboard="0" ns1:deskcolor="#d1d1d1" ns1:document-units="mm" ns1:zoom="7.3121211" ns1:cx="39.796934" ns1:cy="65.23415" ns1:window-width="1536" ns1:window-height="1416" ns1:window-x="10" ns1:window-y="10" ns1:window-maximized="0" ns1:current-layer="layer1" />
  <defs id="defs1" />
  <g ns1:label="Layer 1" ns1:groupmode="layer" id="layer1" transform="translate(-84.635413,-132.38941)">
    <path style="fill:none;stroke:#000000;stroke-width:0.227147px;stroke-linecap:butt;stroke-linejoin:miter;stroke-opacity:1" d="M 103.319,132.750 L 101.751,131.943 L 100.152,131.655 L 98.501,131.820 L 96.875,132.365 L 95.323,133.200 L 93.863,134.247 L 92.500,135.453 L 91.235,136.781 L 90.064,138.205 L 88.987,139.709 L 88.003,141.278 L 87.114,142.905 L 86.324,144.581 L 85.641,146.299 L 85.075,148.054 L 84.640,149.837 L 84.354,151.641 L 84.233,153.487 L 84.179,155.365 L 84.184,157.240 L 84.274,159.092 L 84.492,160.901 L 84.896,162.626 L 85.560,164.193 L 86.552,165.504 L 87.876,166.482 L 89.451,167.134 L 91.178,167.525 L 92.985,167.724 L 94.821,167.787 L 96.635,167.709 L 98.396,167.423 L 100.078,166.902 L 101.634,166.124 L 103.013,165.086 L 104.165,163.809 L 105.056,162.332 L 105.669,160.708 L 105.998,158.994 L 106.047,157.242 L 105.821,155.503 L 105.323,153.827 L 104.561,152.279 L 103.527,150.947 L 102.230,149.930 L 100.724,149.315 L 99.120,149.156 L 97.585,149.474 L 96.163,150.430 L 95.880,150.558 L 95.570,150.592 L 95.265,150.529 L 94.994,150.375 L 94.784,150.145 L 94.656,149.861 L 94.621,149.551 L 94.684,149.246 L 94.839,148.975 L 95.069,148.766 L 96.819,147.635 L 99.011,147.167 L 101.203,147.381 L 103.228,148.207 L 104.937,149.540 L 106.249,151.221 L 107.178,153.100 L 107.769,155.089 L 108.036,157.141 L 107.978,159.210 L 107.585,161.250 L 106.848,163.202 L 105.764,164.996 L 104.357,166.556 L 102.683,167.817 L 100.821,168.749 L 98.852,169.362 L 96.838,169.690 L 94.830,169.778 L 92.842,169.711 L 90.847,169.489 L 88.845,169.031 L 86.893,168.214 L 85.152,166.921 L 83.838,165.194 L 83.003,163.247 L 82.531,161.249 L 82.290,159.261 L 82.193,157.291 L 82.188,155.339 L 82.243,153.392 L 82.375,151.420 L 82.687,149.445 L 83.158,147.512 L 83.767,145.625 L 84.497,143.788 L 85.338,142.002 L 86.285,140.271 L 87.333,138.599 L 88.485,136.992 L 89.744,135.461 L 91.118,134.019 L 92.621,132.690 L 94.270,131.509 L 96.086,130.536 L 98.085,129.872 L 100.233,129.664 L 102.386,130.055 L 104.220,130.973 L 104.303,131.034 L 104.364,131.117 L 104.396,131.215 L 104.396,131.318 L 104.365,131.416 L 104.304,131.499 L 104.221,131.560 L 104.123,131.592 L 104.020,131.592 L 103.922,131.560 L 102.176,130.679 L 100.206,130.322 L 98.223,130.516 L 96.347,131.141 L 94.618,132.068 L 93.031,133.205 L 91.575,134.493 L 90.237,135.897 L 89.007,137.393 L 87.880,138.966 L 86.853,140.604 L 85.925,142.301 L 85.101,144.050 L 84.387,145.848 L 83.792,147.691 L 83.332,149.575 L 83.029,151.493 L 82.901,153.423 L 82.846,155.348 L 82.851,157.274 L 82.946,159.205 L 83.179,161.134 L 83.629,163.042 L 84.407,164.863 L 85.615,166.452 L 87.218,167.641 L 89.045,168.404 L 90.956,168.839 L 92.889,169.054 L 94.827,169.120 L 96.771,169.035 L 98.701,168.721 L 100.575,168.139 L 102.336,167.257 L 103.913,166.070 L 105.236,164.604 L 106.256,162.914 L 106.952,161.071 L 107.323,159.139 L 107.379,157.174 L 107.125,155.226 L 106.565,153.341 L 105.691,151.571 L 104.471,150.005 L 102.898,148.776 L 101.044,148.020 L 99.047,147.824 L 97.072,148.243 L 95.431,149.316 L 95.353,149.387 L 95.300,149.478 L 95.279,149.582 L 95.291,149.687 L 95.334,149.783 L 95.405,149.861 L 95.497,149.913 L 95.600,149.935 L 95.705,149.923 L 95.802,149.879 L 97.331,148.866 L 99.084,148.498 L 100.882,148.676 L 102.560,149.360 L 103.994,150.481 L 105.119,151.929 L 105.936,153.587 L 106.465,155.366 L 106.704,157.208 L 106.652,159.065 L 106.302,160.887 L 105.649,162.620 L 104.694,164.201 L 103.457,165.572 L 101.981,166.684 L 100.323,167.513 L 98.547,168.064 L 96.702,168.364 L 94.824,168.445 L 92.938,168.381 L 91.069,168.174 L 89.251,167.761 L 87.551,167.054 L 86.090,165.972 L 84.990,164.524 L 84.270,162.831 L 83.844,161.017 L 83.618,159.148 L 83.526,157.257 L 83.521,155.356 L 83.575,153.455 L 83.700,151.568 L 83.994,149.708 L 84.441,147.875 L 85.022,146.076 L 85.720,144.319 L 86.527,142.606 L 87.435,140.945 L 88.440,139.342 L 89.542,137.804 L 90.742,136.345 L 92.043,134.979 L 93.452,133.732 L 94.974,132.641 L 96.615,131.761 L 98.363,131.176 L 100.179,130.997 L 101.961,131.319 L 103.617,132.162 L 103.700,132.223 L 103.761,132.306 L 103.793,132.404 L 103.793,132.507 L 103.762,132.605 L 103.701,132.688 L 103.618,132.749 L 103.520,132.781 L 103.417,132.781 M 103.327,132.735 L 101.756,131.927 L 100.153,131.638 L 98.497,131.804 L 96.869,132.350 L 95.314,133.186 L 93.852,134.234 L 92.489,135.441 L 91.223,136.770 L 90.051,138.195 L 88.973,139.699 L 87.989,141.270 L 87.099,142.897 L 86.309,144.574 L 85.626,146.294 L 85.059,148.049 L 84.623,149.834 L 84.338,151.640 L 84.216,153.486 L 84.163,155.365 L 84.167,157.240 L 84.258,159.094 L 84.476,160.904 L 84.880,162.631 L 85.546,164.201 L 86.541,165.516 L 87.868,166.496 L 89.446,167.149 L 91.175,167.541 L 92.984,167.740 L 94.821,167.803 L 96.636,167.725 L 98.399,167.439 L 100.084,166.917 L 101.643,166.138 L 103.024,165.099 L 104.178,163.819 L 105.071,162.339 L 105.684,160.713 L 106.014,158.995 L 106.063,157.241 L 105.837,155.499 L 105.338,153.821 L 104.575,152.270 L 103.539,150.935 L 102.238,149.916 L 100.728,149.299 L 99.120,149.139 L 97.578,149.459 L 96.154,150.416 L 95.875,150.542 L 95.571,150.576 L 95.271,150.514 L 95.004,150.362 L 94.798,150.136 L 94.672,149.857 L 94.638,149.552 L 94.700,149.252 L 94.851,148.986 L 95.078,148.779 L 96.825,147.650 L 99.012,147.183 L 101.199,147.397 L 103.220,148.221 L 104.926,149.551 L 106.235,151.230 L 107.162,153.106 L 107.753,155.092 L 108.020,157.142 L 107.961,159.209 L 107.569,161.245 L 106.833,163.195 L 105.751,164.986 L 104.346,166.544 L 102.674,167.803 L 100.815,168.734 L 98.848,169.346 L 96.836,169.674 L 94.830,169.762 L 92.843,169.694 L 90.850,169.472 L 88.850,169.015 L 86.901,168.200 L 85.164,166.909 L 83.852,165.186 L 83.019,163.242 L 82.547,161.247 L 82.306,159.259 L 82.209,157.291 L 82.204,155.339 L 82.260,153.393 L 82.391,151.422 L 82.703,149.449 L 83.174,147.516 L 83.783,145.631 L 84.512,143.794 L 85.353,142.010 L 86.299,140.279 L 87.347,138.608 L 88.498,137.002 L 89.756,135.472 L 91.130,134.031 L 92.631,132.703 L 94.278,131.523 L 96.093,130.552 L 98.089,129.888 L 100.232,129.681 L 102.380,130.070 L 104.212,130.988 L 104.292,131.045 L 104.349,131.124 L 104.380,131.217 L 104.380,131.315 L 104.350,131.408 L 104.293,131.488 L 104.214,131.545 L 104.121,131.576 L 104.023,131.576 L 103.930,131.546 L 102.181,130.663 L 100.207,130.306 L 98.219,130.500 L 96.341,131.126 L 94.609,132.054 L 93.021,133.192 L 91.564,134.481 L 90.224,135.886 L 88.994,137.383 L 87.866,138.957 L 86.838,140.596 L 85.911,142.293 L 85.086,144.043 L 84.371,145.842 L 83.776,147.686 L 83.316,149.572 L 83.013,151.491 L 82.884,153.423 L 82.830,155.348 L 82.834,157.275 L 82.929,159.206 L 83.163,161.137 L 83.613,163.047 L 84.393,164.871 L 85.604,166.464 L 87.210,167.656 L 89.040,168.420 L 90.954,168.856 L 92.888,169.070 L 94.827,169.136 L 96.773,169.052 L 98.705,168.737 L 100.582,168.154 L 102.345,167.271 L 103.924,166.082 L 105.249,164.614 L 106.270,162.921 L 106.967,161.075 L 107.339,159.141 L 107.395,157.173 L 107.141,155.222 L 106.580,153.335 L 105.705,151.562 L 104.483,149.993 L 102.907,148.762 L 101.048,148.004 L 99.046,147.808 L 97.066,148.228 L 95.422,149.302 L 95.340,149.376 L 95.285,149.473 L 95.263,149.581 L 95.275,149.691 L 95.320,149.792 L 95.395,149.874 L 95.491,149.929 L 95.600,149.951 L 95.710,149.939 L 95.811,149.893 L 97.338,148.881 L 99.085,148.515 L 100.878,148.692 L 102.552,149.374 L 103.982,150.493 L 105.105,151.938 L 105.921,153.593 L 106.449,155.369 L 106.688,157.209 L 106.636,159.064 L 106.286,160.883 L 105.634,162.612 L 104.680,164.192 L 103.446,165.560 L 101.972,166.670 L 100.317,167.497 L 98.543,168.048 L 96.700,168.347 L 94.824,168.429 L 92.939,168.364 L 91.071,168.158 L 89.256,167.745 L 87.560,167.040 L 86.101,165.960 L 85.005,164.516 L 84.286,162.826 L 83.860,161.014 L 83.635,159.146 L 83.542,157.256 L 83.537,155.357 L 83.591,153.456 L 83.716,151.570 L 84.010,149.711 L 84.457,147.879 L 85.037,146.082 L 85.736,144.325 L 86.542,142.614 L 87.449,140.954 L 88.454,139.351 L 89.555,137.814 L 90.754,136.355 L 92.055,134.991 L 93.462,133.745 L 94.983,132.655 L 96.621,131.776 L 98.367,131.192 L 100.178,131.013 L 101.956,131.334 L 103.609,132.177 L 103.689,132.234 L 103.746,132.314 L 103.777,132.407 L 103.777,132.504 L 103.747,132.597 L 103.690,132.677 L 103.611,132.734 L 103.518,132.765 L 103.420,132.765 M 103.341,132.706 L 101.767,131.896 L 100.154,131.605 L 98.490,131.772 L 96.856,132.320 L 95.296,133.158 L 93.832,134.208 L 92.466,135.418 L 91.198,136.748 L 90.025,138.175 L 88.946,139.681 L 87.960,141.253 L 87.070,142.882 L 86.279,144.561 L 85.595,146.282 L 85.027,148.040 L 84.591,149.827 L 84.305,151.636 L 84.183,153.484 L 84.130,155.364 L 84.134,157.241 L 84.225,159.096 L 84.443,160.910 L 84.849,162.642 L 85.517,164.218 L 86.518,165.539 L 87.852,166.525 L 89.436,167.181 L 91.170,167.573 L 92.982,167.773 L 94.821,167.836 L 96.640,167.758 L 98.407,167.471 L 100.096,166.948 L 101.660,166.166 L 103.046,165.123 L 104.205,163.838 L 105.101,162.353 L 105.716,160.722 L 106.047,158.999 L 106.096,157.239 L 105.869,155.492 L 105.369,153.809 L 104.603,152.252 L 103.562,150.912 L 102.254,149.887 L 100.736,149.267 L 99.118,149.106 L 97.566,149.428 L 96.136,150.388 L 95.866,150.510 L 95.572,150.543 L 95.282,150.483 L 95.025,150.337 L 94.825,150.118 L 94.703,149.848 L 94.671,149.554 L 94.731,149.264 L 94.877,149.006 L 95.096,148.807 L 96.838,147.681 L 99.014,147.216 L 101.191,147.429 L 103.204,148.249 L 104.902,149.574 L 106.207,151.247 L 107.132,153.118 L 107.721,155.099 L 107.987,157.144 L 107.929,159.205 L 107.538,161.236 L 106.804,163.180 L 105.725,164.967 L 104.324,166.519 L 102.657,167.775 L 100.803,168.704 L 98.841,169.314 L 96.833,169.641 L 94.830,169.729 L 92.845,169.661 L 90.855,169.440 L 88.860,168.984 L 86.918,168.171 L 85.187,166.885 L 83.880,165.169 L 83.050,163.232 L 82.579,161.241 L 82.339,159.256 L 82.242,157.290 L 82.237,155.340 L 82.292,153.395 L 82.424,151.425 L 82.735,149.455 L 83.206,147.525 L 83.814,145.642 L 84.543,143.808 L 85.382,142.025 L 86.327,140.296 L 87.374,138.626 L 88.524,137.022 L 89.781,135.493 L 91.152,134.055 L 92.652,132.728 L 94.296,131.551 L 96.106,130.582 L 98.096,129.920 L 100.231,129.714 L 102.370,130.102 L 104.198,131.017 L 104.268,131.069 L 104.320,131.139 L 104.347,131.223 L 104.347,131.310 L 104.321,131.393 L 104.269,131.464 L 104.199,131.516 L 104.115,131.543 L 104.028,131.543 L 103.944,131.516 L 102.192,130.632 L 100.208,130.273 L 98.212,130.468 L 96.328,131.096 L 94.592,132.026 L 93.000,133.166 L 91.541,134.458 L 90.200,135.864 L 88.968,137.363 L 87.839,138.938 L 86.810,140.579 L 85.881,142.278 L 85.056,144.030 L 84.340,145.831 L 83.744,147.677 L 83.284,149.565 L 82.980,151.488 L 82.851,153.421 L 82.797,155.347 L 82.802,157.275 L 82.897,159.209 L 83.131,161.143 L 83.582,163.057 L 84.364,164.888 L 85.581,166.487 L 87.194,167.684 L 89.030,168.451 L 90.948,168.888 L 92.886,169.103 L 94.827,169.169 L 96.776,169.084 L 98.712,168.769 L 100.594,168.184 L 102.362,167.299 L 103.946,166.107 L 105.275,164.633 L 106.300,162.936 L 106.999,161.084 L 107.372,159.144 L 107.428,157.172 L 107.173,155.215 L 106.611,153.323 L 105.733,151.544 L 104.506,149.970 L 102.923,148.734 L 101.056,147.973 L 99.045,147.775 L 97.053,148.197 L 95.404,149.274 L 95.314,149.356 L 95.254,149.461 L 95.230,149.580 L 95.243,149.700 L 95.293,149.810 L 95.374,149.900 L 95.480,149.959 L 95.598,149.984 L 95.718,149.971 L 95.829,149.921 L 97.350,148.912 L 99.087,148.548 L 100.870,148.723 L 102.535,149.403 L 103.959,150.516 L 105.077,151.955 L 105.890,153.605 L 106.417,155.376 L 106.655,157.211 L 106.603,159.060 L 106.255,160.874 L 105.604,162.598 L 104.654,164.172 L 103.424,165.536 L 101.955,166.642 L 100.305,167.467 L 98.535,168.016 L 96.697,168.315 L 94.824,168.396 L 92.942,168.331 L 91.077,168.125 L 89.266,167.714 L 87.576,167.012 L 86.124,165.937 L 85.033,164.499 L 84.317,162.816 L 83.892,161.008 L 83.667,159.144 L 83.575,157.256 L 83.570,155.357 L 83.624,153.458 L 83.749,151.574 L 84.042,149.717 L 84.489,147.888 L 85.068,146.093 L 85.766,144.338 L 86.571,142.629 L 87.478,140.970 L 88.481,139.369 L 89.581,137.834 L 90.779,136.377 L 92.078,135.015 L 93.483,133.771 L 95.001,132.683 L 96.634,131.806 L 98.374,131.224 L 100.177,131.046 L 101.945,131.366 L 103.595,132.206 L 103.665,132.258 L 103.717,132.329 L 103.744,132.412 L 103.744,132.499 L 103.718,132.583 L 103.666,132.654 L 103.596,132.705 L 103.512,132.732 L 103.425,132.733 M 103.349,132.691 L 101.772,131.880 L 100.155,131.589 L 98.487,131.756 L 96.849,132.305 L 95.288,133.144 L 93.821,134.196 L 92.455,135.406 L 91.186,136.737 L 90.012,138.165 L 88.932,139.672 L 87.946,141.245 L 87.055,142.875 L 86.264,144.554 L 85.579,146.277 L 85.012,148.036 L 84.575,149.824 L 84.289,151.634 L 84.167,153.483 L 84.114,155.364 L 84.118,157.242 L 84.209,159.098 L 84.427,160.913 L 84.833,162.647 L 85.503,164.226 L 86.506,165.551 L 87.844,166.539 L 89.431,167.196 L 91.167,167.589 L 92.981,167.790 L 94.821,167.852 L 96.642,167.774 L 98.411,167.487 L 100.102,166.963 L 101.669,166.180 L 103.057,165.135 L 104.218,163.848 L 105.115,162.361 L 105.732,160.726 L 106.063,159.001 L 106.113,157.238 L 105.885,155.489 L 105.384,153.803 L 104.617,152.244 L 103.574,150.900 L 102.263,149.873 L 100.740,149.251 L 99.117,149.090 L 97.559,149.413 L 96.127,150.375 L 95.862,150.494 L 95.573,150.527 L 95.288,150.468 L 95.035,150.324 L 94.839,150.109 L 94.719,149.844 L 94.687,149.554 L 94.746,149.269 L 94.890,149.017 L 95.105,148.821 L 96.844,147.696 L 99.015,147.233 L 101.187,147.445 L 103.195,148.264 L 104.891,149.586 L 106.193,151.256 L 107.116,153.124 L 107.705,155.103 L 107.970,157.144 L 107.912,159.203 L 107.522,161.232 L 106.789,163.173 L 105.711,164.957 L 104.313,166.507 L 102.648,167.761 L 100.797,168.688 L 98.837,169.298 L 96.831,169.625 L 94.830,169.712 L 92.846,169.645 L 90.858,169.424 L 88.865,168.968 L 86.926,168.157 L 85.199,166.874 L 83.894,165.161 L 83.066,163.227 L 82.596,161.238 L 82.355,159.255 L 82.259,157.289 L 82.254,155.340 L 82.309,153.395 L 82.440,151.427 L 82.751,149.458 L 83.222,147.530 L 83.829,145.647 L 84.558,143.814 L 85.397,142.032 L 86.341,140.304 L 87.388,138.636 L 88.537,137.032 L 89.793,135.504 L 91.164,134.066 L 92.662,132.741 L 94.304,131.565 L 96.113,130.597 L 98.099,129.936 L 100.230,129.730 L 102.365,130.117 L 104.190,131.032 L 104.257,131.080 L 104.305,131.147 L 104.331,131.225 L 104.331,131.308 L 104.306,131.386 L 104.258,131.453 L 104.191,131.501 L 104.113,131.527 L 104.030,131.527 L 103.952,131.502 L 102.197,130.617 L 100.209,130.256 L 98.209,130.452 L 96.321,131.081 L 94.583,132.012 L 92.990,133.153 L 91.529,134.446 L 90.187,135.853 L 88.955,137.353 L 87.825,138.929 L 86.796,140.571 L 85.867,142.271 L 85.041,144.024 L 84.325,145.826 L 83.729,147.673 L 83.268,149.562 L 82.964,151.486 L 82.835,153.420 L 82.780,155.347 L 82.785,157.276 L 82.880,159.210 L 83.114,161.146 L 83.566,163.062 L 84.350,164.896 L 85.569,166.499 L 87.186,167.699 L 89.025,168.467 L 90.945,168.904 L 92.884,169.120 L 94.828,169.186 L 96.778,169.101 L 98.716,168.785 L 100.600,168.200 L 102.371,167.313 L 103.957,166.119 L 105.288,164.643 L 106.315,162.943 L 107.015,161.089 L 107.389,159.146 L 107.444,157.171 L 107.190,155.212 L 106.626,153.317 L 105.747,151.536 L 104.518,149.958 L 102.931,148.719 L 101.060,147.957 L 99.044,147.759 L 97.047,148.182 L 95.394,149.261 L 95.301,149.346 L 95.239,149.455 L 95.213,149.579 L 95.227,149.704 L 95.279,149.819 L 95.364,149.912 L 95.474,149.975 L 95.597,150.000 L 95.723,149.986 L 95.838,149.934 L 97.357,148.927 L 99.088,148.564 L 100.866,148.739 L 102.527,149.417 L 103.947,150.528 L 105.063,151.964 L 105.875,153.611 L 106.401,155.380 L 106.639,157.212 L 106.587,159.058 L 106.239,160.869 L 105.589,162.591 L 104.641,164.162 L 103.413,165.524 L 101.946,166.628 L 100.299,167.451 L 98.531,168.000 L 96.695,168.298 L 94.824,168.379 L 92.943,168.315 L 91.079,168.109 L 89.271,167.698 L 87.584,166.997 L 86.136,165.925 L 85.047,164.491 L 84.332,162.811 L 83.909,161.005 L 83.684,159.142 L 83.591,157.255 L 83.587,155.357 L 83.641,153.459 L 83.765,151.576 L 84.059,149.721 L 84.505,147.893 L 85.084,146.099 L 85.781,144.345 L 86.586,142.636 L 87.492,140.979 L 88.495,139.378 L 89.594,137.844 L 90.791,136.388 L 92.089,135.026 L 93.493,133.784 L 95.009,132.697 L 96.641,131.821 L 98.377,131.240 L 100.176,131.062 L 101.940,131.381 L 103.587,132.221 L 103.654,132.269 L 103.702,132.336 L 103.728,132.414 L 103.728,132.497 L 103.703,132.575 L 103.655,132.642 L 103.588,132.690 L 103.510,132.716 L 103.427,132.716 M 103.386,132.618 L 101.798,131.802 L 100.158,131.506 L 98.470,131.675 L 96.817,132.229 L 95.244,133.074 L 93.770,134.131 L 92.398,135.346 L 91.124,136.683 L 89.947,138.115 L 88.864,139.626 L 87.875,141.203 L 86.982,142.838 L 86.189,144.522 L 85.502,146.249 L 84.932,148.014 L 84.494,149.808 L 84.207,151.625 L 84.085,153.480 L 84.031,155.363 L 84.036,157.244 L 84.127,159.105 L 84.346,160.927 L 84.755,162.672 L 85.432,164.268 L 86.448,165.609 L 87.803,166.611 L 89.406,167.275 L 91.153,167.671 L 92.975,167.872 L 94.822,167.935 L 96.650,167.856 L 98.430,167.568 L 100.133,167.039 L 101.712,166.250 L 103.113,165.196 L 104.284,163.897 L 105.189,162.397 L 105.811,160.748 L 106.145,159.010 L 106.195,157.234 L 105.966,155.472 L 105.461,153.773 L 104.687,152.200 L 103.632,150.842 L 102.304,149.802 L 100.760,149.171 L 99.112,149.008 L 97.528,149.337 L 96.082,150.306 L 95.840,150.415 L 95.577,150.444 L 95.317,150.391 L 95.087,150.259 L 94.908,150.063 L 94.799,149.822 L 94.769,149.558 L 94.823,149.298 L 94.954,149.068 L 95.150,148.889 L 96.876,147.772 L 99.019,147.315 L 101.167,147.525 L 103.154,148.335 L 104.832,149.644 L 106.124,151.300 L 107.040,153.154 L 107.624,155.120 L 107.888,157.148 L 107.830,159.194 L 107.443,161.210 L 106.715,163.137 L 105.645,164.908 L 104.257,166.447 L 102.605,167.691 L 100.766,168.612 L 98.818,169.218 L 96.823,169.543 L 94.830,169.630 L 92.852,169.563 L 90.871,169.342 L 88.890,168.890 L 86.966,168.085 L 85.257,166.815 L 83.966,165.119 L 83.144,163.201 L 82.677,161.224 L 82.437,159.248 L 82.341,157.287 L 82.336,155.341 L 82.391,153.399 L 82.522,151.436 L 82.832,149.474 L 83.301,147.552 L 83.906,145.675 L 84.633,143.847 L 85.470,142.069 L 86.412,140.346 L 87.456,138.681 L 88.602,137.082 L 89.855,135.559 L 91.221,134.126 L 92.713,132.806 L 94.348,131.635 L 96.145,130.672 L 98.116,130.017 L 100.227,129.812 L 102.338,130.195 L 104.153,131.105 L 104.199,131.139 L 104.232,131.184 L 104.250,131.238 L 104.250,131.295 L 104.232,131.349 L 104.199,131.395 L 104.154,131.428 L 104.100,131.446 L 104.043,131.446 L 103.989,131.428 L 102.223,130.539 L 100.212,130.174 L 98.192,130.371 L 96.289,131.005 L 94.539,131.942 L 92.939,133.089 L 91.472,134.386 L 90.126,135.799 L 88.890,137.303 L 87.757,138.883 L 86.725,140.529 L 85.793,142.233 L 84.965,143.991 L 84.247,145.798 L 83.649,147.651 L 83.187,149.546 L 82.882,151.477 L 82.753,153.416 L 82.698,155.346 L 82.703,157.278 L 82.798,159.217 L 83.033,161.160 L 83.488,163.088 L 84.279,164.937 L 85.511,166.558 L 87.145,167.770 L 89.000,168.545 L 90.932,168.985 L 92.879,169.202 L 94.828,169.268 L 96.786,169.183 L 98.735,168.865 L 100.631,168.276 L 102.414,167.383 L 104.013,166.179 L 105.354,164.692 L 106.389,162.979 L 107.094,161.111 L 107.470,159.155 L 107.526,157.167 L 107.270,155.195 L 106.702,153.286 L 105.817,151.492 L 104.576,149.900 L 102.973,148.648 L 101.080,147.877 L 99.039,147.676 L 97.015,148.106 L 95.349,149.192 L 95.237,149.294 L 95.162,149.426 L 95.131,149.575 L 95.148,149.726 L 95.210,149.864 L 95.313,149.977 L 95.445,150.052 L 95.594,150.083 L 95.745,150.066 L 95.883,150.003 L 97.388,149.003 L 99.092,148.646 L 100.847,148.819 L 102.486,149.488 L 103.889,150.586 L 104.994,152.008 L 105.798,153.641 L 106.320,155.397 L 106.557,157.216 L 106.505,159.049 L 106.160,160.847 L 105.515,162.555 L 104.575,164.113 L 103.357,165.463 L 101.903,166.558 L 100.268,167.375 L 98.513,167.920 L 96.687,168.216 L 94.823,168.297 L 92.949,168.233 L 91.093,168.028 L 89.296,167.620 L 87.625,166.926 L 86.194,165.867 L 85.119,164.450 L 84.411,162.785 L 83.990,160.991 L 83.766,159.135 L 83.674,157.253 L 83.669,155.358 L 83.723,153.462 L 83.847,151.585 L 84.139,149.737 L 84.584,147.915 L 85.161,146.126 L 85.856,144.377 L 86.659,142.674 L 87.563,141.020 L 88.563,139.424 L 89.660,137.895 L 90.853,136.443 L 92.146,135.086 L 93.544,133.848 L 95.053,132.766 L 96.673,131.897 L 98.394,131.321 L 100.173,131.145 L 101.914,131.459 L 103.550,132.295 L 103.596,132.328 L 103.629,132.374 L 103.647,132.427 L 103.647,132.484 L 103.629,132.538 L 103.596,132.584 L 103.550,132.617 L 103.497,132.635 L 103.440,132.635 M 103.394,132.603 L 101.804,131.787 L 100.159,131.490 L 98.466,131.659 L 96.810,132.214 L 95.236,133.060 L 93.760,134.118 L 92.386,135.335 L 91.112,136.672 L 89.934,138.105 L 88.850,139.617 L 87.861,141.195 L 86.967,142.830 L 86.173,144.515 L 85.486,146.243 L 84.917,148.009 L 84.478,149.805 L 84.191,151.623 L 84.068,153.479 L 84.015,155.363 L 84.019,157.244 L 84.110,159.106 L 84.330,160.930 L 84.739,162.677 L 85.417,164.276 L 86.437,165.621 L 87.795,166.625 L 89.401,167.291 L 91.151,167.687 L 92.974,167.888 L 94.822,167.951 L 96.652,167.873 L 98.433,167.584 L 100.139,167.054 L 101.721,166.264 L 103.124,165.208 L 104.297,163.907 L 105.204,162.404 L 105.827,160.753 L 106.161,159.012 L 106.211,157.233 L 105.982,155.468 L 105.476,153.767 L 104.701,152.191 L 103.644,150.830 L 102.312,149.787 L 100.763,149.155 L 99.111,148.991 L 97.521,149.322 L 96.073,150.292 L 95.836,150.399 L 95.578,150.428 L 95.323,150.375 L 95.097,150.247 L 94.922,150.054 L 94.814,149.817 L 94.786,149.559 L 94.838,149.304 L 94.967,149.078 L 95.159,148.903 L 96.882,147.787 L 99.020,147.331 L 101.163,147.541 L 103.146,148.349 L 104.821,149.656 L 106.110,151.308 L 107.024,153.160 L 107.608,155.123 L 107.872,157.149 L 107.814,159.193 L 107.427,161.205 L 106.700,163.130 L 105.632,164.898 L 104.246,166.434 L 102.596,167.677 L 100.760,168.597 L 98.814,169.202 L 96.821,169.526 L 94.830,169.614 L 92.854,169.546 L 90.874,169.326 L 88.895,168.874 L 86.975,168.071 L 85.268,166.803 L 83.980,165.111 L 83.159,163.196 L 82.693,161.221 L 82.454,159.247 L 82.357,157.287 L 82.352,155.341 L 82.408,153.400 L 82.539,151.438 L 82.848,149.478 L 83.317,147.556 L 83.922,145.681 L 84.648,143.853 L 85.485,142.077 L 86.427,140.354 L 87.470,138.691 L 88.615,137.092 L 89.867,135.570 L 91.232,134.138 L 92.723,132.818 L 94.357,131.649 L 96.152,130.688 L 98.120,130.033 L 100.226,129.829 L 102.333,130.211 L 104.145,131.120 L 104.187,131.150 L 104.218,131.192 L 104.234,131.241 L 104.234,131.292 L 104.218,131.341 L 104.188,131.383 L 104.146,131.413 L 104.097,131.429 L 104.046,131.429 L 103.997,131.414 L 102.228,130.523 L 100.213,130.158 L 98.188,130.355 L 96.282,130.990 L 94.531,131.928 L 92.929,133.076 L 91.461,134.375 L 90.114,135.788 L 88.876,137.293 L 87.743,138.874 L 86.711,140.521 L 85.779,142.226 L 84.950,143.984 L 84.232,145.792 L 83.634,147.646 L 83.171,149.542 L 82.866,151.475 L 82.736,153.416 L 82.682,155.346 L 82.686,157.278 L 82.782,159.219 L 83.017,161.163 L 83.472,163.093 L 84.265,164.946 L 85.500,166.569 L 87.137,167.785 L 88.995,168.561 L 90.929,169.002 L 92.877,169.218 L 94.828,169.285 L 96.788,169.199 L 98.739,168.881 L 100.637,168.291 L 102.423,167.397 L 104.024,166.192 L 105.368,164.702 L 106.404,162.986 L 107.110,161.116 L 107.487,159.157 L 107.543,157.166 L 107.286,155.192 L 106.718,153.280 L 105.831,151.483 L 104.588,149.888 L 102.981,148.634 L 101.084,147.861 L 99.038,147.660 L 97.009,148.091 L 95.340,149.178 L 95.224,149.284 L 95.146,149.420 L 95.115,149.574 L 95.132,149.730 L 95.197,149.873 L 95.302,149.990 L 95.439,150.067 L 95.593,150.099 L 95.749,150.082 L 95.892,150.017 L 97.395,149.018 L 99.093,148.663 L 100.843,148.835 L 102.477,149.503 L 103.877,150.598 L 104.980,152.016 L 105.783,153.647 L 106.304,155.400 L 106.540,157.217 L 106.489,159.047 L 106.144,160.842 L 105.500,162.548 L 104.561,164.103 L 103.346,165.451 L 101.894,166.544 L 100.262,167.360 L 98.509,167.904 L 96.685,168.200 L 94.823,168.280 L 92.950,168.217 L 91.096,168.011 L 89.301,167.604 L 87.633,166.911 L 86.205,165.855 L 85.133,164.441 L 84.426,162.780 L 84.006,160.988 L 83.782,159.134 L 83.690,157.253 L 83.686,155.359 L 83.739,153.463 L 83.864,151.587 L 84.155,149.740 L 84.600,147.919 L 85.177,146.132 L 85.871,144.384 L 86.674,142.681 L 87.577,141.029 L 88.577,139.434 L 89.673,137.905 L 90.865,136.454 L 92.158,135.098 L 93.555,133.861 L 95.061,132.780 L 96.680,131.912 L 98.398,131.337 L 100.172,131.161 L 101.908,131.475 L 103.542,132.309 L 103.584,132.339 L 103.615,132.381 L 103.631,132.430 L 103.631,132.481 L 103.615,132.530 L 103.585,132.572 L 103.543,132.603 L 103.494,132.619 L 103.443,132.619 M 103.408,132.573 L 101.814,131.756 L 100.160,131.457 L 98.460,131.627 L 96.797,132.184 L 95.218,133.032 L 93.739,134.093 L 92.363,135.311 L 91.087,136.650 L 89.908,138.085 L 88.823,139.599 L 87.833,141.178 L 86.938,142.815 L 86.143,144.502 L 85.455,146.232 L 84.885,148.000 L 84.446,149.798 L 84.158,151.619 L 84.035,153.477 L 83.982,155.362 L 83.986,157.245 L 84.078,159.109 L 84.297,160.936 L 84.708,162.688 L 85.389,164.292 L 86.414,165.644 L 87.779,166.654 L 89.391,167.322 L 91.145,167.719 L 92.971,167.921 L 94.822,167.984 L 96.655,167.905 L 98.441,167.616 L 100.151,167.085 L 101.738,166.292 L 103.146,165.232 L 104.324,163.927 L 105.234,162.418 L 105.859,160.762 L 106.194,159.015 L 106.244,157.232 L 106.014,155.462 L 105.507,153.755 L 104.729,152.174 L 103.667,150.807 L 102.329,149.759 L 100.771,149.123 L 99.110,148.958 L 97.509,149.292 L 96.055,150.265 L 95.827,150.367 L 95.579,150.395 L 95.334,150.345 L 95.117,150.221 L 94.949,150.036 L 94.846,149.809 L 94.819,149.560 L 94.869,149.316 L 94.993,149.099 L 95.177,148.931 L 96.895,147.817 L 99.022,147.364 L 101.155,147.573 L 103.129,148.378 L 104.797,149.679 L 106.082,151.326 L 106.994,153.172 L 107.576,155.130 L 107.839,157.151 L 107.781,159.189 L 107.395,161.196 L 106.670,163.116 L 105.606,164.878 L 104.224,166.410 L 102.579,167.649 L 100.747,168.566 L 98.807,169.170 L 96.818,169.494 L 94.829,169.581 L 92.856,169.514 L 90.880,169.294 L 88.905,168.843 L 86.991,168.042 L 85.291,166.780 L 84.008,165.095 L 83.191,163.186 L 82.725,161.215 L 82.487,159.244 L 82.390,157.286 L 82.385,155.342 L 82.440,153.402 L 82.571,151.442 L 82.880,149.484 L 83.348,147.565 L 83.953,145.692 L 84.678,143.867 L 85.515,142.092 L 86.455,140.371 L 87.497,138.709 L 88.641,137.113 L 89.892,135.592 L 91.255,134.161 L 92.744,132.844 L 94.374,131.677 L 96.165,130.718 L 98.127,130.065 L 100.225,129.862 L 102.323,130.242 L 104.131,131.149 L 104.164,131.174 L 104.188,131.207 L 104.201,131.246 L 104.201,131.287 L 104.188,131.326 L 104.164,131.360 L 104.131,131.384 L 104.092,131.397 L 104.051,131.397 L 104.011,131.384 L 102.239,130.492 L 100.214,130.125 L 98.181,130.323 L 96.269,130.960 L 94.513,131.900 L 92.908,133.050 L 91.438,134.351 L 90.089,135.766 L 88.850,137.273 L 87.716,138.856 L 86.682,140.504 L 85.749,142.211 L 84.920,143.971 L 84.201,145.781 L 83.602,147.637 L 83.139,149.536 L 82.833,151.471 L 82.703,153.414 L 82.649,155.345 L 82.653,157.279 L 82.749,159.222 L 82.985,161.169 L 83.441,163.103 L 84.236,164.962 L 85.476,166.593 L 87.121,167.813 L 88.985,168.592 L 90.923,169.034 L 92.875,169.251 L 94.828,169.317 L 96.791,169.232 L 98.746,168.914 L 100.649,168.322 L 102.440,167.425 L 104.046,166.216 L 105.394,164.721 L 106.433,163.001 L 107.142,161.124 L 107.519,159.160 L 107.576,157.164 L 107.318,155.185 L 106.748,153.268 L 105.859,151.466 L 104.611,149.865 L 102.997,148.605 L 101.092,147.829 L 99.037,147.627 L 96.996,148.061 L 95.322,149.151 L 95.198,149.263 L 95.116,149.409 L 95.082,149.573 L 95.100,149.739 L 95.169,149.892 L 95.282,150.015 L 95.427,150.098 L 95.591,150.132 L 95.758,150.113 L 95.910,150.045 L 97.407,149.048 L 99.095,148.695 L 100.835,148.867 L 102.461,149.531 L 103.854,150.621 L 104.952,152.034 L 105.752,153.659 L 106.272,155.407 L 106.507,157.218 L 106.456,159.044 L 106.112,160.834 L 105.471,162.533 L 104.535,164.084 L 103.324,165.427 L 101.877,166.516 L 100.250,167.329 L 98.501,167.872 L 96.682,168.167 L 94.823,168.247 L 92.952,168.184 L 91.101,167.979 L 89.311,167.573 L 87.649,166.883 L 86.228,165.832 L 85.161,164.425 L 84.458,162.770 L 84.038,160.982 L 83.815,159.131 L 83.723,157.252 L 83.718,155.359 L 83.772,153.465 L 83.896,151.590 L 84.188,149.746 L 84.631,147.928 L 85.208,146.143 L 85.902,144.397 L 86.703,142.696 L 87.605,141.045 L 88.604,139.452 L 89.699,137.925 L 90.890,136.475 L 92.180,135.121 L 93.575,133.887 L 95.079,132.808 L 96.693,131.942 L 98.405,131.369 L 100.171,131.194 L 101.898,131.506 L 103.528,132.339 L 103.561,132.363 L 103.585,132.396 L 103.598,132.435 L 103.598,132.476 L 103.585,132.516 L 103.561,132.549 L 103.528,132.573 L 103.489,132.586 L 103.448,132.586 M 103.416,132.559 L 101.819,131.740 L 100.161,131.441 L 98.456,131.611 L 96.791,132.169 L 95.209,133.018 L 93.729,134.080 L 92.352,135.299 L 91.075,136.639 L 89.895,138.075 L 88.809,139.589 L 87.818,141.170 L 86.923,142.808 L 86.128,144.495 L 85.440,146.227 L 84.869,147.996 L 84.430,149.795 L 84.142,151.618 L 84.019,153.476 L 83.965,155.362 L 83.970,157.245 L 84.061,159.110 L 84.281,160.939 L 84.692,162.693 L 85.375,164.301 L 86.402,165.656 L 87.771,166.668 L 89.386,167.338 L 91.142,167.736 L 92.970,167.937 L 94.822,168.001 L 96.657,167.922 L 98.445,167.632 L 100.157,167.100 L 101.747,166.306 L 103.157,165.244 L 104.337,163.937 L 105.249,162.425 L 105.874,160.766 L 106.210,159.017 L 106.261,157.231 L 106.030,155.458 L 105.522,153.749 L 104.743,152.165 L 103.679,150.795 L 102.337,149.745 L 100.775,149.107 L 99.109,148.942 L 97.502,149.276 L 96.046,150.251 L 95.823,150.352 L 95.580,150.379 L 95.340,150.329 L 95.128,150.208 L 94.963,150.027 L 94.862,149.804 L 94.835,149.561 L 94.885,149.322 L 95.006,149.109 L 95.186,148.944 L 96.901,147.833 L 99.023,147.381 L 101.151,147.589 L 103.121,148.392 L 104.786,149.691 L 106.068,151.335 L 106.978,153.178 L 107.560,155.133 L 107.822,157.152 L 107.765,159.187 L 107.379,161.192 L 106.655,163.108 L 105.592,164.869 L 104.213,166.398 L 102.570,167.635 L 100.741,168.551 L 98.803,169.154 L 96.816,169.477 L 94.829,169.564 L 92.857,169.497 L 90.882,169.278 L 88.910,168.827 L 86.999,168.028 L 85.303,166.768 L 84.023,165.086 L 83.206,163.180 L 82.742,161.212 L 82.503,159.242 L 82.407,157.286 L 82.402,155.342 L 82.457,153.402 L 82.588,151.444 L 82.897,149.487 L 83.364,147.570 L 83.968,145.698 L 84.694,143.873 L 85.529,142.099 L 86.469,140.379 L 87.511,138.718 L 88.655,137.123 L 89.904,135.603 L 91.267,134.173 L 92.754,132.857 L 94.383,131.691 L 96.171,130.733 L 98.130,130.081 L 100.224,129.878 L 102.317,130.258 L 104.123,131.164 L 104.152,131.185 L 104.174,131.214 L 104.185,131.249 L 104.185,131.285 L 104.174,131.319 L 104.153,131.348 L 104.124,131.369 L 104.089,131.381 L 104.053,131.381 L 104.019,131.370 L 102.244,130.476 L 100.215,130.108 L 98.178,130.307 L 96.262,130.945 L 94.505,131.886 L 92.898,133.037 L 91.427,134.339 L 90.077,135.755 L 88.837,137.263 L 87.702,138.847 L 86.668,140.496 L 85.735,142.204 L 84.905,143.965 L 84.185,145.776 L 83.586,147.633 L 83.122,149.533 L 82.817,151.469 L 82.687,153.413 L 82.632,155.345 L 82.637,157.280 L 82.733,159.223 L 82.968,161.172 L 83.425,163.109 L 84.222,164.970 L 85.465,166.604 L 87.113,167.828 L 88.980,168.608 L 90.921,169.050 L 92.874,169.267 L 94.828,169.334 L 96.793,169.248 L 98.750,168.930 L 100.655,168.337 L 102.449,167.439 L 104.057,166.228 L 105.407,164.731 L 106.448,163.008 L 107.158,161.129 L 107.536,159.162 L 107.592,157.163 L 107.334,155.181 L 106.764,153.262 L 105.872,151.457 L 104.623,149.854 L 103.006,148.591 L 101.096,147.813 L 99.036,147.611 L 96.990,148.045 L 95.313,149.137 L 95.186,149.253 L 95.100,149.403 L 95.065,149.572 L 95.084,149.743 L 95.155,149.901 L 95.272,150.028 L 95.422,150.114 L 95.591,150.148 L 95.762,150.129 L 95.919,150.058 L 97.414,149.064 L 99.096,148.712 L 100.831,148.883 L 102.452,149.545 L 103.842,150.633 L 104.938,152.043 L 105.737,153.665 L 106.256,155.410 L 106.491,157.219 L 106.439,159.042 L 106.096,160.829 L 105.456,162.526 L 104.522,164.074 L 103.313,165.414 L 101.868,166.502 L 100.244,167.314 L 98.497,167.856 L 96.680,168.151 L 94.823,168.231 L 92.953,168.167 L 91.104,167.963 L 89.316,167.557 L 87.657,166.868 L 86.240,165.820 L 85.175,164.416 L 84.473,162.765 L 84.054,160.979 L 83.831,159.130 L 83.740,157.251 L 83.735,155.359 L 83.789,153.466 L 83.913,151.592 L 84.204,149.750 L 84.647,147.933 L 85.223,146.149 L 85.917,144.404 L 86.718,142.703 L 87.620,141.054 L 88.618,139.461 L 89.712,137.935 L 90.902,136.486 L 92.192,135.133 L 93.585,133.900 L 95.088,132.822 L 96.699,131.957 L 98.408,131.385 L 100.170,131.210 L 101.893,131.522 L 103.520,132.353 L 103.549,132.374 L 103.571,132.404 L 103.582,132.438 L 103.582,132.474 L 103.571,132.508 L 103.550,132.537 L 103.520,132.559 L 103.486,132.570 L 103.450,132.570" id="path2" ns2:nodetypes="czzzc" fill="none" stroke="black" />
  </g>
</svg>