<?xml version="1.0" encoding="UTF-8" standalone="no"?>
<!-- Created with Inkscape (http://www.inkscape.org/) -->

<svg
   width="95.978996mm"
   height="70.283997mm"
   viewBox="0 0 95.978997 70.283996"
   version="1.1"
   id="svg1"
   inkscape:version="1.4.3 (0d15f75042, 2025-12-25)"
   sodipodi:docname="sixty.svg"
   xmlns:inkscape="http://www.inkscape.org/namespaces/inkscape"
   xmlns:sodipodi="http://sodipodi.sourceforge.net/DTD/sodipodi-0.dtd"
   xmlns="http://www.w3.org/2000/svg"
   xmlns:svg="http://www.w3.org/2000/svg">
  <sodipodi:namedview
     id="namedview1"
     pagecolor="#ffffff"
     bordercolor="#666666"
     borderopacity="1.0"
     inkscape:showpageshadow="2"
     inkscape:pageopacity="0.0"
     inkscape:pagecheckerboard="0"
     inkscape:deskcolor="#d1d1d1"
     inkscape:document-units="mm"
     inkscape:zoom="0.91401515"
     inkscape:cx="201.85661"
     inkscape:cy="256.01326"
     inkscape:window-width="1305"
     inkscape:window-height="1440"
     inkscape:window-x="10"
     inkscape:window-y="10"
     inkscape:window-maximized="0"
     inkscape:current-layer="layer1" />
  <defs
     id="defs1">
    <filter
       style="color-interpolation-filters:sRGB"
       inkscape:label="Blur"
       id="filter5"
       x="-0.074751422"
       y="-0.10378362"
       width="1.1495028"
       height="1.2075664">
      <feGaussianBlur
         stdDeviation="2 2"
         result="blur"
         id="feGaussianBlur5" />
    </filter>
  </defs>
  <g
     inkscape:label="Layer 1"
     inkscape:groupmode="layer"
     id="layer1"
     transform="translate(-51.530719,-11.410136)">
    <g
       id="g4"
       transform="matrix(1.3263613,0,0,1.3263613,-46.639805,-100.09461)">
      <path
         style="fill:none;stroke:#000000;stroke-width:0.0913637;stroke-linecap:butt;stroke-linejoin:miter;stroke-dasharray:none;stroke-opacity:1"
         d="m 141.57412,93.114457 c -0.38122,-0.602817 -0.82752,-1.163681 -1.28457,-1.711242 -0.53099,-0.63612 -1.08486,-1.256854 -1.68932,-1.82362 -0.65521,-0.614357 -1.34295,-1.20221 -2.0904,-1.700279 -0.81808,-0.54514 -1.68253,-1.037846 -2.59839,-1.395124 -0.98184,-0.383015 -2.01567,-0.663895 -3.06251,-0.785728 -1.05956,-0.123323 -2.14439,-0.09446 -3.19956,0.06213 -1.002,0.148704 -1.98399,0.449802 -2.92455,0.825928 -0.86456,0.345739 -1.68453,0.804458 -2.47047,1.30376 -0.72517,0.460693 -1.40457,0.993919 -2.05751,1.55227 -0.61302,0.5242 -1.18734,1.094108 -1.73957,1.682006 -0.52801,0.562125 -1.02424,1.154463 -1.50111,1.760579 -0.46235,0.587679 -0.89826,1.196491 -1.31655,1.816311 -0.40981,0.607258 -0.79712,1.229985 -1.16763,1.861993 -0.36565,0.623731 -0.71161,1.259294 -1.04063,1.903107 -0.32712,0.640094 -0.63602,1.2898 -0.92734,1.946962 -0.29118,0.65683 -0.56494,1.32169 -0.81953,1.99355 -0.25614,0.67593 -0.49495,1.35882 -0.71173,2.04838 -0.22015,0.70029 -0.42303,1.40659 -0.59752,2.11964 -0.17974,0.73454 -0.34008,1.47477 -0.4623,2.22105 -0.12432,0.75917 -0.21525,1.52444 -0.275,2.2914 -0.0571,0.73374 -0.0703,1.47054 -0.0795,2.20644 -0.009,0.70805 -0.002,1.41658 0.0247,2.1242 0.027,0.72027 0.0694,1.4404 0.13705,2.15801 0.0692,0.73549 0.15642,1.46995 0.275,2.19912 0.12226,0.75175 0.26645,1.50093 0.44951,2.24024 0.19029,0.76851 0.40758,1.53192 0.67335,2.2777 0.27827,0.78085 0.59058,1.55218 0.96206,2.29323 0.39057,0.77911 0.82536,1.54006 1.3266,2.25303 0.52426,0.7457 1.10394,1.45792 1.74779,2.10319 0.66128,0.66274 1.38381,1.27075 2.15619,1.79987 0.77024,0.52765 1.5963,0.9796 2.45037,1.35675 0.82902,0.36608 1.69691,0.64872 2.57554,0.87069 0.8378,0.21166 1.69603,0.34591 2.55545,0.43581 0.81148,0.0849 1.62995,0.10598 2.4458,0.0968 0.80214,-0.009 1.60544,-0.0537 2.40196,-0.14892 0.83787,-0.10012 1.67501,-0.23354 2.4924,-0.44311 0.87505,-0.22436 1.74171,-0.50132 2.56732,-0.86796 0.86802,-0.38547 1.70936,-0.84516 2.48692,-1.39055 0.78551,-0.55097 1.51566,-1.1881 2.17628,-1.88392 0.6389,-0.67294 1.20312,-1.41936 1.71033,-2.19639 0.4773,-0.73119 0.88105,-1.51111 1.24438,-2.30511 0.34055,-0.74422 0.62069,-1.51632 0.87252,-2.29505 0.2382,-0.73658 0.43048,-1.48812 0.60209,-2.24298 0.16422,-0.72236 0.29414,-1.45258 0.40839,-2.18451 0.11049,-0.70781 0.19543,-1.41969 0.2677,-2.13243 0.0705,-0.69531 0.12142,-1.39268 0.16171,-2.0904 0.0396,-0.68489 0.0631,-1.37074 0.0786,-2.05659 0.0155,-0.67563 0.0183,-1.35157 0.0137,-2.02736 -0.005,-0.66829 -0.0194,-1.33654 -0.0402,-2.00452 -0.0207,-0.66175 -0.0497,-1.32325 -0.0841,-1.98442 -0.0342,-0.65666 -0.0755,-1.31295 -0.12152,-1.96889 -0.0449,-0.63995 -0.0504,-1.28501 -0.15075,-1.91864 -0.081,-0.51135 -0.16468,-1.03188 -0.36271,-1.51024 -0.19791,-0.47806 -0.47444,-0.93037 -0.8104,-1.32386 -0.33621,-0.39379 -0.73988,-0.738064 -1.18133,-1.008656 -0.44131,-0.270501 -0.93112,-0.473894 -1.43441,-0.594778 -0.50318,-0.120856 -1.03181,-0.162079 -1.5477,-0.121514 -0.51607,0.04054 -1.03195,0.163816 -1.51025,0.361801 -0.4782,0.197948 -0.93026,0.475219 -1.32386,0.81131 -0.39358,0.336077 -0.73826,0.739107 -1.00865,1.180417 -0.2705,0.4415 -0.47299,0.93186 -0.59387,1.43533 -0.1206,0.50321 -0.1223,1.03019 -0.12242,1.5477 -1.4e-4,0.61371 0.10123,1.22329 0.14435,1.83549 0.042,0.59659 0.0803,1.19348 0.11147,1.79073 0.0309,0.59237 0.0565,1.18506 0.0749,1.77794 0.0183,0.587 0.032,1.17423 0.0356,1.76149 0.004,0.57955 0.002,1.15924 -0.011,1.73866 -0.0128,0.56947 -0.0332,1.1389 -0.0658,1.70758 -0.0319,0.55558 -0.0714,1.11093 -0.127,1.66464 -0.0538,0.53593 -0.11758,1.07117 -0.20008,1.60344 -0.0788,0.5084 -0.16848,1.01562 -0.2814,1.51755 -0.10561,0.46939 -0.2239,0.93673 -0.37003,1.39512 -0.13253,0.41574 -0.27982,0.82807 -0.45864,1.2261 -0.15615,0.34758 -0.32896,0.68963 -0.53448,1.01049 -0.17576,0.27441 -0.37096,0.53887 -0.59386,0.77659 -0.20094,0.2143 -0.42337,0.41103 -0.66422,0.57924 -0.24895,0.1739 -0.51992,0.31771 -0.79852,0.43855 -0.32161,0.13949 -0.65923,0.24285 -0.99952,0.32708 -0.39856,0.0987 -0.80629,0.16062 -1.21422,0.2074 -0.44979,0.0516 -0.90313,0.0749 -1.35584,0.0804 -0.43906,0.005 -0.87957,-0.002 -1.31655,-0.0448 -0.38823,-0.0384 -0.77598,-0.097 -1.15484,-0.19004 -0.33791,-0.0831 -0.67231,-0.18806 -0.99129,-0.32708 -0.29289,-0.12764 -0.57604,-0.28175 -0.83964,-0.4623 -0.26199,-0.17946 -0.50664,-0.38639 -0.72999,-0.61214 -0.24076,-0.24335 -0.45624,-0.5127 -0.65143,-0.79395 -0.21846,-0.31481 -0.40745,-0.6506 -0.57741,-0.99403 -0.18877,-0.38144 -0.34739,-0.77809 -0.4888,-1.17951 -0.15392,-0.43695 -0.27981,-0.88397 -0.39012,-1.33391 -0.11749,-0.47921 -0.21032,-0.96465 -0.28871,-1.45177 -0.082,-0.50988 -0.14216,-1.02343 -0.19004,-1.53765 -0.0495,-0.53231 -0.0808,-1.06644 -0.1005,-1.60069 -0.0201,-0.54663 -0.0238,-1.09393 -0.0183,-1.64089 0.005,-0.51949 0.0109,-1.03973 0.0503,-1.55775 0.0368,-0.48416 0.0946,-0.96719 0.17359,-1.44629 0.0811,-0.49251 0.1887,-0.98076 0.3079,-1.46547 0.12446,-0.50612 0.26825,-1.00764 0.42484,-1.50476 0.15996,-0.50783 0.33651,-1.0106 0.52534,-1.50842 0.19035,-0.50181 0.39461,-0.99858 0.61214,-1.48923 0.21752,-0.49066 0.44848,-0.97558 0.69253,-1.45359 0.242,-0.47399 0.49593,-0.94219 0.76472,-1.40152 0.26404,-0.45123 0.54018,-0.89578 0.83232,-1.32935 0.28359,-0.420871 0.5794,-0.834091 0.89262,-1.233406 0.29858,-0.380639 0.60908,-0.752809 0.93922,-1.106414 0.30586,-0.327585 0.62411,-0.64501 0.96298,-0.938306 0.29923,-0.258989 0.61051,-0.506447 0.94196,-0.722687 0.26997,-0.176122 0.55102,-0.33938 0.84785,-0.465041 0.22071,-0.09344 0.45065,-0.172495 0.68706,-0.211964 0.18243,-0.03042 0.37096,-0.03956 0.55457,-0.01736 0.19616,0.02367 0.38856,0.08323 0.57103,0.158973 0.24927,0.103506 0.48258,0.245531 0.70441,0.399259 0.29268,0.202828 0.56226,0.439039 0.81954,0.685228 0.30791,0.294639 0.59163,0.61475 0.86247,0.943787 0.34429,0.418264 0.61013,0.89859 0.96663,1.306502 0.11068,0.126648 0.22446,0.25464 0.3618,0.35175 0.13734,0.09711 0.29163,0.173865 0.45225,0.223841 0.16072,0.04998 0.33146,0.074 0.49976,0.07218 0.16806,-0.0022 0.33782,-0.03106 0.49702,-0.08497 0.15934,-0.05398 0.31187,-0.134277 0.44676,-0.234804 0.13488,-0.100501 0.25556,-0.223558 0.35267,-0.360887 0.0972,-0.137448 0.17295,-0.29241 0.22293,-0.453164 0.0499,-0.16049 0.0749,-0.330801 0.0731,-0.498846 -0.002,-0.168411 -0.0317,-0.338448 -0.0859,-0.497933 -0.0541,-0.159301 -0.14518,-0.304387 -0.23481,-0.446768 -0.31826,-0.505644 -0.68881,-0.977894 -1.06987,-1.438065 -0.35521,-0.428962 -0.72656,-0.846942 -1.13108,-1.229756 -0.38642,-0.365692 -0.79188,-0.715954 -1.2325,-1.014137 -0.4156,-0.281264 -0.85399,-0.537895 -1.3202,-0.723601 -0.44229,-0.176177 -0.9086,-0.307074 -1.38142,-0.362714 -0.46803,-0.05509 -0.94766,-0.03983 -1.4134,0.03198 -0.4853,0.07486 -0.95972,0.226409 -1.41431,0.412051 -0.48173,0.196724 -0.93821,0.455978 -1.37594,0.737305 -0.45942,0.295269 -0.88985,0.635928 -1.30376,0.99221 -0.42797,0.368397 -0.82926,0.768131 -1.21514,1.180419 -0.39447,0.421479 -0.76534,0.865324 -1.12194,1.319293 -0.3617,0.460464 -0.70319,0.937072 -1.03059,1.422533 -0.33033,0.489837 -0.64236,0.992256 -0.94104,1.502019 -0.30041,0.512693 -0.58485,1.034973 -0.85517,1.564143 -0.27111,0.53074 -0.52687,1.06954 -0.76837,1.6144 -0.24138,0.5446 -0.46857,1.09575 -0.67974,1.65277 -0.21076,0.55594 -0.40727,1.11759 -0.58564,1.68475 -0.17706,0.56294 -0.33995,1.1308 -0.48058,1.70393 -0.13886,0.56599 -0.26365,1.13618 -0.35814,1.71124 -0.0937,0.57023 -0.16217,1.14512 -0.20648,1.7213 -0.0452,0.5879 -0.0539,1.17829 -0.0603,1.76788 -0.006,0.59935 -0.002,1.19907 0.0201,1.79804 0.0221,0.59463 0.0568,1.18915 0.11237,1.7816 0.055,0.58637 0.1243,1.17189 0.21836,1.75327 0.0927,0.57326 0.20192,1.14463 0.34079,1.7085 0.13627,0.55329 0.29219,1.10284 0.4824,1.63998 0.1859,0.52493 0.39408,1.04372 0.64229,1.54222 0.2414,0.48482 0.51022,0.95848 0.82044,1.40243 0.3021,0.4323 0.63592,0.8457 1.00774,1.2197 0.36553,0.36768 0.76542,0.7048 1.19321,0.9977 0.42854,0.29338 0.88855,0.54403 1.36406,0.75283 0.48464,0.21281 0.99212,0.3762 1.50568,0.50433 0.52819,0.13178 1.06916,0.21443 1.61074,0.26952 0.55848,0.0566 1.12161,0.0685 1.68292,0.0621 0.56623,-0.006 1.1333,-0.0364 1.69571,-0.10233 0.54781,-0.0642 1.09515,-0.15006 1.62993,-0.28505 0.51413,-0.12978 1.02392,-0.28906 1.50933,-0.5025 0.4701,-0.20671 0.92595,-0.45383 1.3467,-0.74827 0.41799,-0.2925 0.80634,-0.6314 1.15667,-1.00226 0.35814,-0.37914 0.67237,-0.80099 0.95566,-1.23889 0.2938,-0.45416 0.54216,-0.93817 0.76563,-1.43076 0.23153,-0.51037 0.42167,-1.03965 0.59295,-1.57328 0.17619,-0.54892 0.31875,-1.10873 0.44585,-1.67104 0.12964,-0.57348 0.23225,-1.15311 0.32252,-1.73409 0.0916,-0.58957 0.16226,-1.18246 0.22201,-1.77611 0.0604,-0.59959 0.10333,-1.20097 0.13796,-1.80261 0.0349,-0.60641 0.0567,-1.21362 0.0704,-1.82087 0.0137,-0.61078 0.0164,-1.22185 0.0119,-1.83276 -0.005,-0.61347 -0.0184,-1.22688 -0.0375,-1.84007 -0.0192,-0.61542 -0.0457,-1.23065 -0.0777,-1.84554 -0.032,-0.61644 -0.0709,-1.23255 -0.1142,-1.84829 -0.0438,-0.62137 -0.14719,-1.24001 -0.1471,-1.86291 0,-0.18116 5.5e-4,-0.36566 0.0429,-0.54178 0.0424,-0.17601 0.11373,-0.34721 0.20831,-0.50159 0.0947,-0.15455 0.21485,-0.29616 0.35266,-0.41388 0.13762,-0.11755 0.29598,-0.21406 0.46322,-0.28323 0.16757,-0.0693 0.3482,-0.11283 0.52899,-0.12699 0.18061,-0.0142 0.36563,6.4e-4 0.54179,0.0429 0.17593,0.0422 0.3473,0.1129 0.50159,0.20739 0.15473,0.0948 0.29611,0.21554 0.41388,0.35358 0.11745,0.13769 0.21397,0.29599 0.28322,0.46322 0.0693,0.16728 0.0987,0.34927 0.127,0.52808 0.0991,0.62485 0.10461,1.26103 0.14892,1.89214 0.0447,0.63645 0.0847,1.27326 0.11786,1.91042 0.0333,0.63895 0.0614,1.27821 0.0813,1.91772 0.02,0.6418 0.0338,1.28385 0.0384,1.92595 0.005,0.64441 0.002,1.28898 -0.0128,1.93325 -0.0145,0.64808 -0.0367,1.29614 -0.074,1.94331 -0.0376,0.65137 -0.0851,1.3024 -0.15075,1.95153 -0.0663,0.65563 -0.14429,1.31047 -0.24577,1.96158 -0.10272,0.65906 -0.21976,1.31656 -0.36728,1.96706 -0.15011,0.66194 -0.31801,1.32105 -0.52625,1.96706 -0.21304,0.66087 -0.45018,1.31608 -0.73822,1.94788 -0.2959,0.64904 -0.62422,1.28694 -1.01323,1.88483 -0.39936,0.61381 -0.8438,1.20356 -1.34761,1.735 -0.51112,0.53914 -1.07643,1.03261 -1.68475,1.45908 -0.60574,0.42466 -1.26134,0.78236 -1.93782,1.08174 -0.66192,0.29293 -1.35702,0.51283 -2.05843,0.69163 -0.68119,0.17364 -1.37861,0.2845 -2.0767,0.36728 -0.68384,0.0811 -1.37348,0.11786 -2.06207,0.12608 -0.69331,0.008 -1.38885,-0.008 -2.07853,-0.0795 -0.70634,-0.073 -1.41179,-0.18224 -2.10045,-0.3554 -0.70283,-0.17673 -1.39715,-0.40196 -2.06025,-0.69436 -0.67204,-0.29635 -1.32184,-0.65205 -1.92778,-1.06713 -0.60648,-0.41546 -1.17405,-0.89267 -1.69297,-1.4134 -0.51267,-0.51446 -0.97344,-1.08287 -1.39055,-1.67744 -0.4094,-0.58357 -0.76462,-1.2062 -1.08358,-1.84372 -0.31229,-0.62419 -0.57476,-1.27381 -0.80857,-1.93143 -0.22942,-0.64529 -0.41696,-1.3058 -0.58107,-1.97071 -0.16163,-0.6549 -0.28843,-1.31859 -0.39652,-1.98442 -0.10677,-0.65773 -0.1862,-1.3201 -0.24851,-1.98351 -0.0618,-0.65744 -0.0997,-1.31723 -0.12425,-1.97711 -0.0247,-0.65559 -0.0301,-1.31199 -0.0228,-1.96798 0.007,-0.66548 0.018,-1.33184 0.0694,-1.99538 0.0523,-0.67497 0.13345,-1.34833 0.24303,-2.0164 0.10886,-0.66366 0.25118,-1.32204 0.41114,-1.97528 0.15813,-0.64577 0.34225,-1.28535 0.54178,-1.91955 0.19848,-0.63081 0.41705,-1.25551 0.65143,-1.87387 0.23364,-0.61642 0.48479,-1.22645 0.75192,-1.82911 0.26723,-0.60288 0.5506,-1.19889 0.8506,-1.786155 0.30076,-0.588757 0.61679,-1.170096 0.95109,-1.740479 0.33592,-0.573143 0.68737,-1.13768 1.05891,-1.688402 0.37456,-0.55519 0.7647,-1.100668 1.17859,-1.627188 0.41883,-0.532788 0.85474,-1.053424 1.31838,-1.547702 0.47225,-0.50345 0.96326,-0.991643 1.4874,-1.440806 0.53785,-0.460911 1.09761,-0.900937 1.6948,-1.281833 0.6183,-0.394362 1.26306,-0.757487 1.9433,-1.031496 0.70649,-0.284571 1.44411,-0.513629 2.1973,-0.626755 0.77145,-0.115849 1.56499,-0.13796 2.33983,-0.04751 0.77042,0.08997 1.53103,0.298476 2.25303,0.581987 0.69926,0.274575 1.35841,0.653661 1.98259,1.071696 0.59976,0.401681 1.15165,0.874981 1.67744,1.369542 0.50831,0.478116 1.02902,1.099374 1.4207,1.537652 0.39169,0.438278 0.67356,0.836068 0.85991,0.989423 0.18635,0.153355 0.43052,0.166546 0.57905,0.04833 0.15838,-0.126056 0.13717,-0.316009 0.0355,-0.606213 -0.10162,-0.290204 -0.33976,-0.583822 -0.71071,-1.064689 -0.37096,-0.480868 -0.96513,-1.120704 -1.50294,-1.626274 -0.56554,-0.531646 -1.15917,-1.040451 -1.80443,-1.47187 -0.68396,-0.457294 -1.40651,-0.871327 -2.17263,-1.171283 -0.80205,-0.314026 -1.6469,-0.544455 -2.50245,-0.644114 -0.8623,-0.100446 -1.74528,-0.07629 -2.60387,0.05208 -0.82976,0.124072 -1.64256,0.37535 -2.42114,0.687969 -0.73704,0.295945 -1.43603,0.68796 -2.10593,1.114637 -0.63668,0.405518 -1.23303,0.874753 -1.80626,1.365888 -0.55117,0.472232 -1.0675,0.985522 -1.56415,1.514811 -0.48352,0.5153 -0.93812,1.058101 -1.37502,1.613483 -0.42888,0.545186 -0.83356,1.109731 -1.22154,1.684747 -0.38333,0.568145 -0.74529,1.150973 -1.09179,1.742306 -0.34376,0.586647 -0.66915,1.184321 -0.97851,1.789816 -0.30845,0.603742 -0.59958,1.216612 -0.87435,1.836412 -0.27451,0.61924 -0.53274,1.246 -0.77294,1.87935 -0.24125,0.63615 -0.46646,1.27876 -0.67061,1.92777 -0.20582,0.65437 -0.39524,1.31444 -0.55823,1.98077 -0.16592,0.67834 -0.3137,1.36197 -0.42667,2.05112 -0.11412,0.69622 -0.19849,1.39796 -0.25307,2.10136 -0.0532,0.68511 -0.0641,1.37313 -0.0722,2.06025 -0.008,0.67182 -0.002,1.34408 0.0228,2.01548 0.0253,0.67851 0.0653,1.35686 0.12882,2.03285 0.0644,0.68567 0.14553,1.37039 0.25582,2.0502 0.11232,0.69225 0.24462,1.3822 0.41296,2.06299 0.17236,0.69701 0.36956,1.3893 0.61031,2.06574 0.24744,0.69521 0.52484,1.3821 0.85517,2.04198 0.34099,0.68116 0.72087,1.34631 1.15849,1.9698 0.45005,0.64119 0.94716,1.25418 1.50019,1.809 0.56265,0.56445 1.17795,1.08184 1.8355,1.53217 0.65648,0.4496 1.36056,0.83467 2.08857,1.15575 0.71402,0.3149 1.46161,0.55758 2.21832,0.74827 0.7348,0.18517 1.48744,0.30264 2.24115,0.38099 0.72693,0.0755 1.4601,0.0933 2.1909,0.085 0.7237,-0.008 1.44848,-0.0478 2.16715,-0.13339 0.7411,-0.0883 1.4815,-0.20629 2.2046,-0.39103 0.75469,-0.19281 1.5025,-0.43002 2.21466,-0.74553 0.73546,-0.32583 1.44825,-0.7149 2.10685,-1.17677 0.66304,-0.46498 1.27912,-1.00304 1.83641,-1.59064 0.54527,-0.57491 1.02654,-1.21272 1.45908,-1.87661 0.41617,-0.63876 0.76787,-1.32013 1.08449,-2.01366 0.30422,-0.66637 0.55433,-1.35764 0.77933,-2.05477 0.21751,-0.67392 0.39318,-1.36145 0.55001,-2.05203 0.15273,-0.67252 0.27385,-1.35233 0.38007,-2.03375 0.10424,-0.66869 0.18415,-1.34123 0.25217,-2.01457 0.067,-0.66341 0.11512,-1.32879 0.15349,-1.99447 0.0379,-0.65844 0.0609,-1.31776 0.0758,-1.97711 0.0148,-0.65432 0.018,-1.30893 0.0137,-1.96341 -0.005,-0.65001 -0.0189,-1.29998 -0.0393,-1.9497 -0.0202,-0.64621 -0.0485,-1.29218 -0.0822,-1.93782 -0.0336,-0.64326 -0.0745,-1.28614 -0.11969,-1.92869 -0.0445,-0.63384 -0.0497,-1.27276 -0.14892,-1.90037 -0.0445,-0.28119 -0.0903,-0.56745 -0.19917,-0.83049 -0.10884,-0.26299 -0.26104,-0.51174 -0.44586,-0.72817 -0.18488,-0.21652 -0.40683,-0.40583 -0.64959,-0.55458 -0.24286,-0.1488 -0.51243,-0.26062 -0.78939,-0.32708 -0.27655,-0.0663 -0.56706,-0.089 -0.85059,-0.0667 -0.28381,0.0224 -0.56745,0.0903 -0.8305,0.19917 -0.26298,0.10883 -0.51166,0.26113 -0.72817,0.44586 -0.21673,0.18492 -0.40661,0.40668 -0.55549,0.64959 -0.14863,0.2425 -0.25974,0.51191 -0.32617,0.78847 -0.0665,0.27686 -0.0675,0.56678 -0.0676,0.85151 -1.8e-4,0.62015 0.10267,1.23607 0.14618,1.85468 0.0429,0.60998 0.0814,1.22029 0.1133,1.83093 0.0317,0.6079 0.0587,1.2161 0.0776,1.82454 0.0188,0.60495 0.0315,1.21016 0.0356,1.81539 0.004,0.60148 0.003,1.2031 -0.011,1.80444 -0.0132,0.59536 -0.0343,1.1907 -0.0685,1.78524 -0.0338,0.58761 -0.0763,1.17494 -0.13522,1.76058 -0.0579,0.5759 -0.12587,1.15116 -0.2147,1.72312 -0.0868,0.55866 -0.18607,1.11592 -0.31064,1.66738 -0.12054,0.53365 -0.2552,1.06507 -0.4221,1.58608 -0.15933,0.49736 -0.33652,0.99057 -0.55184,1.46639 -0.20277,0.44809 -0.42768,0.88866 -0.69436,1.30193 -0.25009,0.38755 -0.52769,0.76086 -0.8442,1.09636 -0.3043,0.32256 -0.64169,0.61738 -1.005,0.87161 -0.36813,0.25761 -0.76708,0.47374 -1.1786,0.65417 -0.43482,0.19065 -0.89168,0.33207 -1.35218,0.44768 -0.49289,0.12375 -0.99725,0.20237 -1.50202,0.2613 -0.52789,0.0617 -1.06011,0.0895 -1.59155,0.0959 -0.52352,0.006 -1.04874,-0.004 -1.56963,-0.0566 -0.49459,-0.0501 -0.98855,-0.12575 -1.47096,-0.24577 -0.45924,-0.11426 -0.91323,-0.25958 -1.3467,-0.44951 -0.41949,-0.18382 -0.82538,-0.40452 -1.20326,-0.6633 -0.37689,-0.25811 -0.72882,-0.55568 -1.05068,-0.87984 -0.33137,-0.33373 -0.62901,-0.70244 -0.89811,-1.08814 -0.28208,-0.40429 -0.52611,-0.83581 -0.74553,-1.27726 -0.22975,-0.46226 -0.42269,-0.94317 -0.59477,-1.42984 -0.17914,-0.50662 -0.32581,-1.02498 -0.45408,-1.54679 -0.13216,-0.53766 -0.23599,-1.08244 -0.32434,-1.62902 -0.0904,-0.55928 -0.15728,-1.1225 -0.21014,-1.68657 -0.0538,-0.57391 -0.0874,-1.14983 -0.10872,-1.72586 -0.0216,-0.58285 -0.0257,-1.16641 -0.0192,-1.74962 0.006,-0.56824 0.0132,-1.13728 0.0567,-1.70392 0.0419,-0.54776 0.10728,-1.09425 0.19643,-1.63633 0.0904,-0.54959 0.20985,-1.09449 0.34261,-1.63541 0.13561,-0.55253 0.29242,-1.10004 0.46322,-1.64272 0.1727,-0.54875 0.36342,-1.092 0.56736,-1.62993 0.20485,-0.54029 0.42455,-1.07519 0.65874,-1.60343 0.23408,-0.52802 0.48281,-1.04978 0.74553,-1.56415 0.26166,-0.5123 0.53608,-1.01844 0.82684,-1.51481 0.28798,-0.491634 0.58962,-0.975698 0.90815,-1.448112 0.31397,-0.465644 0.64084,-0.923249 0.98764,-1.364974 0.33874,-0.431456 0.6915,-0.852908 1.06622,-1.253511 0.36133,-0.386285 0.73687,-0.761032 1.13748,-1.106414 0.37853,-0.326333 0.77225,-0.638258 1.19229,-0.909069 0.38605,-0.248893 0.78852,-0.478518 1.21331,-0.653251 0.3826,-0.157374 0.78175,-0.286882 1.19047,-0.350837 0.37862,-0.05929 0.76879,-0.07245 1.14936,-0.02741 0.3877,0.04586 0.76967,0.155218 1.132,0.300587 0.3995,0.160279 0.77505,0.381169 1.13108,0.6231 0.39525,0.268582 0.75888,0.583769 1.1055,0.912724 0.37477,0.355661 0.71876,0.743829 1.04794,1.142047 0.36988,0.447444 0.73053,0.905944 1.03881,1.397865 0.0343,0.05473 0.0689,0.110586 0.0895,0.171764 0.0206,0.06121 0.032,0.126374 0.0329,0.19095 9.1e-4,0.06487 -0.008,0.130778 -0.0274,0.192777 -0.0191,0.06167 -0.0485,0.120957 -0.0859,0.173591 -0.0376,0.0529 -0.0841,0.100162 -0.13613,0.138873 -0.0519,0.03865 -0.11049,0.06962 -0.17176,0.09045 -0.0611,0.02083 -0.12637,0.03207 -0.19095,0.03289 -0.0647,7.77e-4 -0.13014,-0.0091 -0.19187,-0.02832 -0.0619,-0.01928 -0.12154,-0.04851 -0.1745,-0.08588 -0.0528,-0.03728 -0.0964,-0.08661 -0.13887,-0.135218 -0.36782,-0.420739 -0.64307,-0.915537 -0.99861,-1.346701 -0.29676,-0.359891 -0.607,-0.710618 -0.9447,-1.03241 -0.29686,-0.282872 -0.60828,-0.553929 -0.94653,-0.785728 -0.2816,-0.192979 -0.57825,-0.37016 -0.89445,-0.498846 -0.26241,-0.106795 -0.53912,-0.188447 -0.82045,-0.222014 -0.27104,-0.03234 -0.54911,-0.02147 -0.81861,0.02193 -0.31305,0.05034 -0.6182,0.152176 -0.9109,0.274091 -0.35374,0.147343 -0.68889,0.339791 -1.01048,0.548183 -0.37066,0.240186 -0.71828,0.516196 -1.05251,0.804914 -0.36637,0.316484 -0.71009,0.659473 -1.04064,1.013224 -0.35003,0.374619 -0.67938,0.768826 -0.99586,1.172196 -0.32809,0.418163 -0.63761,0.851127 -0.93465,1.291884 -0.30389,0.450915 -0.59125,0.913175 -0.86613,1.382335 -0.27861,0.47554 -0.54233,0.96003 -0.79304,1.45085 -0.25238,0.49411 -0.49059,0.99568 -0.71538,1.50294 -0.2249,0.50755 -0.43632,1.02131 -0.63315,1.54039 -0.19549,0.51558 -0.37801,1.03637 -0.54361,1.56232 -0.16289,0.51736 -0.31273,1.03925 -0.4422,1.56597 -0.12531,0.50979 -0.23817,1.02332 -0.32343,1.54131 -0.0834,0.50695 -0.14461,1.01806 -0.18364,1.53034 -0.0411,0.5396 -0.047,1.08149 -0.053,1.62261 -0.006,0.56342 -0.003,1.12718 0.0183,1.69024 0.0204,0.55255 0.0527,1.10498 0.10416,1.65551 0.0502,0.53655 0.11338,1.07233 0.19917,1.60434 0.0828,0.51347 0.18033,1.02522 0.30424,1.53035 0.11824,0.48201 0.25326,0.9609 0.41845,1.42892 0.1551,0.43942 0.32914,0.87358 0.5363,1.29097 0.19199,0.38679 0.40561,0.76483 0.65234,1.11921 0.22809,0.32759 0.48002,0.64113 0.76106,0.9246 0.26712,0.26943 0.55949,0.51653 0.87252,0.73091 0.31444,0.21534 0.65217,0.39914 1.00135,0.55184 0.36989,0.16175 0.75746,0.28492 1.14936,0.3819 0.42463,0.10507 0.85936,0.17115 1.29462,0.2147 0.47454,0.0475 0.95297,0.0562 1.42984,0.0503 0.48751,-0.006 0.97569,-0.0316 1.45999,-0.0877 0.45096,-0.0522 0.90166,-0.12131 1.34214,-0.23115 0.39387,-0.0982 0.78461,-0.21864 1.15666,-0.38098 0.33771,-0.14736 0.66561,-0.32331 0.96754,-0.53448 0.29506,-0.20636 0.56824,-0.44674 0.81497,-0.70898 0.26447,-0.28109 0.49651,-0.59363 0.70533,-0.91821 0.23285,-0.36195 0.42887,-0.74787 0.60574,-1.14022 0.19501,-0.43261 0.35528,-0.88099 0.49976,-1.333 0.15543,-0.48629 0.28146,-0.98207 0.39377,-1.48009 0.11817,-0.52395 0.2119,-1.05348 0.2942,-1.58425 0.0852,-0.54984 0.15083,-1.10279 0.20648,-1.65642 0.0571,-0.568 0.0979,-1.13767 0.13065,-1.70759 0.0333,-0.58024 0.0538,-1.16125 0.0667,-1.7423 0.0131,-0.58886 0.015,-1.17799 0.011,-1.76697 -0.004,-0.59549 -0.0172,-1.19095 -0.0356,-1.78616 -0.0186,-0.5996 -0.0446,-1.19898 -0.0758,-1.79804 -0.0314,-0.60335 -0.0699,-1.20633 -0.11237,-1.809 -0.0433,-0.61496 -0.14531,-1.22725 -0.14527,-1.84372 3e-5,-0.41426 9.1e-4,-0.83613 0.0978,-1.2389 0.0968,-0.40264 0.25955,-0.79449 0.476,-1.14752 0.21644,-0.35303 0.49185,-0.67579 0.80674,-0.94471 0.31477,-0.26882 0.67645,-0.49035 1.05891,-0.64868 0.38254,-0.158359 0.79507,-0.257232 1.20783,-0.289621 0.41298,-0.03243 0.83609,9.14e-4 1.23889,0.09776 0.40256,0.09665 0.79456,0.258731 1.14753,0.475091 0.35285,0.21629 0.67505,0.49199 0.94379,0.80674 0.26904,0.31512 0.49106,0.677 0.64959,1.05982 0.15841,0.38252 0.22497,0.79889 0.28962,1.20783 0.0998,0.63092 0.10516,1.27322 0.14984,1.91042 0.0456,0.64985 0.0867,1.30005 0.1206,1.95061 0.0341,0.65448 0.0626,1.30928 0.0831,1.96432 0.0206,0.65977 0.0357,1.31978 0.0402,1.97985 0.005,0.66635 0.002,1.33285 -0.0137,1.99904 -0.0153,0.67398 -0.0387,1.34793 -0.0777,2.02096 -0.0395,0.68368 -0.0892,1.36703 -0.15806,2.04838 -0.0703,0.69501 -0.15266,1.38923 -0.26039,2.07943 -0.11075,0.70962 -0.23735,1.41747 -0.39652,2.11782 -0.16504,0.7262 -0.34939,1.44935 -0.57833,2.15801 -0.23986,0.74247 -0.50702,1.47852 -0.83141,2.18816 -0.34261,0.74951 -0.7229,1.48601 -1.17311,2.17628 -0.47397,0.72671 -1.00153,1.42463 -1.59886,2.05386 -0.61481,0.64763 -1.29445,1.2405 -2.02554,1.75327 -0.72443,0.50811 -1.5082,0.93656 -2.31698,1.29554 -0.77533,0.34413 -1.58931,0.60371 -2.41109,0.81405 -0.77547,0.19848 -1.56965,0.32469 -2.36449,0.41936 -0.762,0.0907 -1.53046,0.13287 -2.2978,0.14161 -0.77804,0.009 -1.5586,-0.01 -2.33252,-0.0905 -0.8124,-0.0845 -1.6237,-0.21122 -2.41565,-0.41114 -0.82443,-0.2081 -1.63876,-0.47328 -2.41657,-0.81679 -0.79808,-0.35245 -1.56982,-0.77509 -2.28958,-1.26813 -0.72121,-0.49402 -1.39623,-1.06131 -2.01366,-1.68018 -0.60365,-0.60505 -1.14678,-1.27321 -1.63815,-1.97254 -0.47293,-0.6731 -0.88321,-1.39144 -1.25168,-2.12695 -0.3532,-0.70504 -0.65003,-1.43888 -0.91455,-2.18176 -0.25459,-0.71499 -0.4628,-1.44684 -0.64503,-2.1836 -0.17644,-0.71337 -0.3152,-1.43631 -0.43306,-2.16166 -0.1149,-0.70707 -0.19961,-1.41924 -0.26679,-2.13243 -0.0659,-0.69908 -0.10713,-1.40061 -0.13339,-2.10228 -0.0259,-0.6918 -0.0321,-1.38447 -0.0237,-2.07669 0.008,-0.71426 0.0206,-1.42941 0.0758,-2.14157 0.0573,-0.73854 0.14517,-1.47542 0.26496,-2.20643 0.11811,-0.72081 0.27313,-1.43575 0.44676,-2.14522 0.16947,-0.69244 0.36632,-1.37838 0.58016,-2.05843 0.21115,-0.67145 0.44403,-1.33628 0.69345,-1.99447 0.24818,-0.65487 0.51473,-1.30305 0.79852,-1.9433 0.2838,-0.64024 0.58493,-1.273092 0.90359,-1.896713 0.32043,-0.627075 0.65713,-1.246238 1.01322,-1.85377 0.35973,-0.613745 0.73584,-1.218436 1.13383,-1.808089 0.4049,-0.599894 0.82701,-1.189016 1.27452,-1.757838 0.45923,-0.583713 0.93702,-1.154243 1.44538,-1.69571 0.5276,-0.56197 1.07621,-1.106872 1.6619,-1.608002 0.61726,-0.528128 1.25967,-1.032273 1.94514,-1.468215 0.73455,-0.467161 1.5007,-0.896808 2.30876,-1.22062 0.86849,-0.348031 1.77528,-0.626956 2.70071,-0.764714 0.96772,-0.144053 1.96278,-0.170686 2.9346,-0.05756 0.96195,0.111975 1.91194,0.370334 2.814,0.722687 0.84935,0.33176 1.65077,0.789447 2.40927,1.295538 0.70208,0.468458 1.34804,1.021199 1.9634,1.598865 0.57476,0.539548 1.09896,1.132424 1.60618,1.735911 0.37563,0.446927 1.0482,1.364305 1.06174,1.392946 0.0135,0.02864 0.19313,0.253836 0.27876,0.191947 0.0925,-0.06687 -0.0853,-0.324275 -0.10156,-0.344708 -0.0163,-0.02044 -0.67478,-0.950901 -1.04772,-1.398245 -0.51128,-0.613284 -1.04494,-1.211464 -1.62719,-1.757838 -0.62542,-0.586893 -1.28195,-1.148405 -1.99538,-1.624447 -0.77322,-0.51594 -1.59001,-0.982909 -2.45586,-1.321119 -0.92194,-0.360129 -1.89298,-0.623777 -2.87613,-0.738219 -0.99391,-0.115694 -2.01156,-0.08874 -3.0013,0.05847 -0.94451,0.14049 -1.87001,0.425115 -2.75644,0.780246 -0.82212,0.329366 -1.6016,0.766432 -2.34896,1.241633 -0.69542,0.442182 -1.3473,0.953435 -1.97346,1.489229 -0.59255,0.507032 -1.1473,1.058622 -1.68109,1.627188 -0.51307,0.54651 -0.99549,1.122175 -1.45908,1.711242 -0.45136,0.573536 -0.87717,1.16751 -1.28549,1.772457 -0.40096,0.594065 -0.77956,1.203488 -1.14204,1.821792 -0.3585,0.611507 -0.69797,1.234452 -1.02054,1.865648 -0.32078,0.627732 -0.6234,1.265018 -0.90906,1.909498 -0.28556,0.64423 -0.55423,1.29626 -0.80401,1.95519 -0.25119,0.66266 -0.48543,1.33213 -0.69801,2.00817 -0.21547,0.68519 -0.414,1.37628 -0.58473,2.07396 -0.17516,0.71581 -0.3313,1.43717 -0.45043,2.1644 -0.12093,0.7383 -0.20968,1.48249 -0.26769,2.22837 -0.0557,0.71732 -0.0676,1.43766 -0.0768,2.15709 -0.008,0.69618 -0.002,1.39282 0.0238,2.08857 0.0264,0.70625 0.068,1.41236 0.1343,2.11598 0.0678,0.71901 0.15363,1.43694 0.26953,2.14979 0.11898,0.73178 0.25869,1.46116 0.43671,2.18085 0.18424,0.7448 0.39488,1.4846 0.65234,2.20735 0.26797,0.75221 0.56867,1.49529 0.92643,2.20917 0.37413,0.74657 0.79083,1.47563 1.27087,2.15893 0.49941,0.71087 1.05107,1.39038 1.66465,2.00543 0.62825,0.62976 1.31538,1.20675 2.04928,1.70942 0.73273,0.50185 1.51825,0.93224 2.33069,1.29097 0.79045,0.34901 1.61808,0.61809 2.45586,0.82958 0.80336,0.2028 1.62628,0.33156 2.45038,0.41753 0.78329,0.0817 1.57334,0.10142 2.36083,0.0923 0.77619,-0.009 1.55353,-0.0515 2.3243,-0.14344 0.80562,-0.0961 1.6105,-0.22449 2.39647,-0.42576 0.83482,-0.21377 1.66183,-0.47718 2.44946,-0.82684 0.82383,-0.36573 1.62194,-0.80267 2.35992,-1.3202 0.74475,-0.52228 1.43757,-1.12562 2.06391,-1.78525 0.60773,-0.64003 1.14408,-1.35026 1.62628,-2.08949 0.45709,-0.70075 0.84362,-1.44822 1.19138,-2.20917 0.3282,-0.71816 0.59783,-1.4633 0.84054,-2.21466 0.23118,-0.71563 0.41801,-1.4457 0.58473,-2.17903 0.16046,-0.70574 0.28769,-1.41915 0.39926,-2.13425 0.1084,-0.69477 0.19141,-1.39356 0.26222,-2.09315 0.0693,-0.68468 0.11913,-1.37139 0.15897,-2.05842 0.0392,-0.67607 0.0633,-1.35307 0.0786,-2.03009 0.0146,-0.66863 0.0174,-1.33757 0.0128,-2.00635 -0.005,-0.66189 -0.0186,-1.32375 -0.0393,-1.98533 -0.0205,-0.65688 -0.0498,-1.3135 -0.0841,-1.9698 -0.034,-0.65209 -0.075,-1.30382 -0.1206,-1.95519 -0.0447,-0.63811 -0.0499,-1.28134 -0.14984,-1.91315 -0.0687,-0.43433 -0.13962,-0.87649 -0.30789,-1.28275 -0.16839,-0.40656 -0.40402,-0.79097 -0.6898,-1.1256 -0.28561,-0.33444 -0.6282,-0.62718 -1.00317,-0.85699 -0.3752,-0.229966 -0.79182,-0.402406 -1.21971,-0.505245 -0.42773,-0.103241 -0.87706,-0.138507 -1.31563,-0.104154 -0.43868,0.03438 -0.87712,0.139548 -1.28366,0.307895 -0.40657,0.168364 -0.79098,0.404024 -1.12561,0.689794 -0.33443,0.28561 -0.62717,0.6282 -0.85699,1.00318 -0.22996,0.3752 -0.40256,0.79178 -0.50524,1.2197 -0.10265,0.42775 -0.10322,0.87574 -0.10324,1.31564 -3e-5,0.61585 0.10132,1.22755 0.14435,1.84189 0.0421,0.60115 0.08,1.20263 0.11147,1.80444 0.0312,0.59755 0.0579,1.19539 0.0767,1.79347 0.0186,0.59277 0.032,1.18579 0.0356,1.77885 0.004,0.58685 9.1e-4,1.17385 -0.0119,1.76058 -0.0129,0.57828 -0.0326,1.15658 -0.0658,1.73407 -0.0325,0.56598 -0.0738,1.13165 -0.13065,1.69571 -0.0554,0.54933 -0.12024,1.09802 -0.20466,1.64363 -0.0813,0.52524 -0.17368,1.04931 -0.29054,1.5678 -0.11065,0.49097 -0.23501,0.97971 -0.38829,1.45908 -0.14156,0.44272 -0.29885,0.88178 -0.48971,1.30559 -0.17168,0.38123 -0.36162,0.75638 -0.58747,1.10824 -0.20041,0.31224 -0.42289,0.61314 -0.677,0.88349 -0.23523,0.25025 -0.496,0.47934 -0.77751,0.67609 -0.28881,0.20185 -0.60248,0.36998 -0.92551,0.51072 -0.35943,0.15661 -0.73691,0.27267 -1.11738,0.36729 -0.43001,0.10693 -0.86998,0.17395 -1.31016,0.22475 -0.47583,0.0549 -0.95545,0.0795 -1.43441,0.0859 -0.46711,0.005 -0.93576,-0.002 -1.4006,-0.0484 -0.42358,-0.0421 -0.84668,-0.10612 -1.25991,-0.20831 -0.37854,-0.0936 -0.75276,-0.21293 -1.11007,-0.36911 -0.33509,-0.14646 -0.65934,-0.32247 -0.96115,-0.52899 -0.30026,-0.20548 -0.58079,-0.44231 -0.83689,-0.70076 -0.27108,-0.27358 -0.51381,-0.57639 -0.73365,-0.89263 -0.23953,-0.34457 -0.44672,-0.71217 -0.63315,-1.08814 -0.20245,-0.4083 -0.37281,-0.83286 -0.52443,-1.26265 -0.16236,-0.46022 -0.29489,-0.93118 -0.41113,-1.40517 -0.12233,-0.49881 -0.21873,-1.00413 -0.30059,-1.51116 -0.085,-0.52625 -0.14783,-1.05622 -0.19735,-1.58698 -0.0509,-0.54597 -0.0821,-1.09385 -0.10232,-1.64181 -0.021,-0.55911 -0.0256,-1.11889 -0.0192,-1.67835 0.005,-0.53564 0.0122,-1.07203 0.053,-1.60617 0.0386,-0.50524 0.0986,-1.00935 0.1809,-1.50932 0.0842,-0.51157 0.19599,-1.01867 0.31977,-1.52212 0.12822,-0.52148 0.27641,-1.03822 0.43764,-1.55045 0.1642,-0.52164 0.34521,-1.03816 0.53904,-1.54952 0.19513,-0.51478 0.4046,-1.02432 0.62767,-1.52761 0.22296,-0.503 0.45965,-1.00015 0.7099,-1.49014 0.24857,-0.4867 0.50951,-0.9674 0.78573,-1.43898 0.27212,-0.4646 0.55699,-0.92213 0.8579,-1.368626 0.29364,-0.435713 0.59937,-0.86388 0.92369,-1.277264 0.31206,-0.397762 0.637,-0.786341 0.98216,-1.155752 0.3242,-0.34699 0.66128,-0.683473 1.02053,-0.994037 0.32557,-0.281437 0.66418,-0.550448 1.0251,-0.784814 0.30883,-0.200535 0.63058,-0.385994 0.97028,-0.528083 0.27447,-0.114807 0.56057,-0.21105 0.85426,-0.258559 0.24781,-0.04011 0.50358,-0.04998 0.75283,-0.0201 0.26041,0.03125 0.51645,0.107307 0.75924,0.206482 0.29914,0.12219 0.57971,0.290263 0.84602,0.473264 0.32688,0.2246 0.62754,0.487352 0.91455,0.76106 0.33024,0.314931 0.63426,0.657526 0.92461,1.009569 0.35309,0.428131 0.62638,0.919457 0.99129,1.337565 0.0594,0.06798 0.12005,0.136954 0.19369,0.189123 0.074,0.05244 0.15733,0.09356 0.24394,0.1206 0.0863,0.02695 0.17816,0.0402 0.26861,0.03929 0.0909,-0.0012 0.18255,-0.01736 0.26861,-0.04659 0.0856,-0.0291 0.16775,-0.07209 0.24029,-0.126082 0.0727,-0.05416 0.13778,-0.120509 0.19004,-0.194605 0.0523,-0.07399 0.0928,-0.157419 0.11968,-0.243941 0.0268,-0.08643 0.0402,-0.178159 0.0393,-0.268609 -9.2e-4,-0.09051 -0.0165,-0.181997 -0.0457,-0.267696 -0.0291,-0.08577 -0.0787,-0.163632 -0.127,-0.240287 -0.31186,-0.494551 -0.67352,-0.957336 -1.04611,-1.407915 -0.33571,-0.405965 -0.6867,-0.801506 -1.06896,-1.163973 -0.35666,-0.338202 -0.73087,-0.662159 -1.13748,-0.938306 -0.37074,-0.251798 -0.76161,-0.482126 -1.17768,-0.648682 -0.38218,-0.152998 -0.78528,-0.266965 -1.19412,-0.315205 -0.40267,-0.04751 -0.8154,-0.03399 -1.21605,0.02832 -0.42775,0.06652 -0.84576,0.201009 -1.2462,0.365454 -0.43901,0.180288 -0.85455,0.418127 -1.25351,0.675178 -0.42985,0.276951 -0.83318,0.595463 -1.22062,0.929169 -0.40747,0.350956 -0.78928,0.731961 -1.15667,1.124688 -0.3796,0.405801 -0.73675,0.832899 -1.07992,1.269956 -0.35058,0.446513 -0.68122,0.908904 -0.9986,1.379592 -0.32151,0.476836 -0.62564,0.965623 -0.91638,1.461816 -0.29316,0.50035 -0.57035,1.01027 -0.83415,1.52669 -0.26485,0.51849 -0.51505,1.04469 -0.75101,1.57694 -0.23595,0.53222 -0.45777,1.07096 -0.66421,1.61531 -0.20571,0.5424 -0.39779,1.09029 -0.57194,1.64363 -0.17241,0.54784 -0.33091,1.10048 -0.46778,1.65825 -0.13428,0.54726 -0.25485,1.09859 -0.34627,1.6546 -0.0903,0.54905 -0.1566,1.10255 -0.19918,1.65734 -0.0438,0.5718 -0.0512,1.14602 -0.0575,1.71946 -0.006,0.58747 -0.002,1.1753 0.0201,1.7624 0.0216,0.58061 0.0556,1.16108 0.10963,1.73957 0.0532,0.56984 0.11978,1.13893 0.21105,1.70393 0.0894,0.55307 0.19501,1.10421 0.32891,1.6482 0.13042,0.52982 0.27943,1.05614 0.46139,1.57055 0.17556,0.4963 0.37219,0.98682 0.60665,1.45816 0.22499,0.45228 0.47552,0.89416 0.76472,1.30833 0.27741,0.3973 0.58401,0.77725 0.92551,1.12103 0.33277,0.33499 0.6968,0.64221 1.08632,0.90907 0.39031,0.26741 0.80928,0.49605 1.24254,0.68614 0.44634,0.19582 0.91392,0.34554 1.38691,0.46322 0.49378,0.12285 0.99941,0.20008 1.50567,0.25125 0.5306,0.0539 1.0656,0.064 1.59886,0.0576 0.54,-0.006 1.08075,-0.0353 1.61714,-0.0978 0.51548,-0.06 1.0307,-0.1394 1.534,-0.26587 0.47401,-0.11911 0.94392,-0.26588 1.39147,-0.4623 0.42604,-0.18699 0.83941,-0.41027 1.22062,-0.67701 0.37695,-0.26374 0.72671,-0.5699 1.04246,-0.9045 0.32697,-0.34649 0.61413,-0.73174 0.87252,-1.13199 0.27349,-0.42363 0.50385,-0.87543 0.71173,-1.33483 0.21919,-0.48443 0.39954,-0.98656 0.56188,-1.49288 0.16927,-0.52794 0.30627,-1.06632 0.4285,-1.60709 0.12586,-0.55687 0.22576,-1.11967 0.31338,-1.68383 0.0895,-0.57652 0.15806,-1.15634 0.21653,-1.73683 0.0593,-0.58896 0.10214,-1.17965 0.13613,-1.77063 0.0343,-0.59757 0.0552,-1.19596 0.0685,-1.79437 0.0137,-0.60348 0.0155,-1.20722 0.0119,-1.81083 -0.005,-0.60768 -0.0175,-1.21531 -0.0366,-1.82271 -0.0191,-0.60995 -0.046,-1.21968 -0.0777,-1.8291 -0.0319,-0.61216 -0.0703,-1.22401 -0.1133,-1.8355 -0.0435,-0.61922 -0.14629,-1.23575 -0.14618,-1.85651 0,-0.25876 7.3e-4,-0.52225 0.0612,-0.77385 0.0604,-0.25159 0.16173,-0.49659 0.29693,-0.7172 0.13522,-0.22065 0.30751,-0.4222 0.50433,-0.59021 0.19691,-0.1681 0.42315,-0.30666 0.66238,-0.40566 0.23903,-0.099 0.49678,-0.16052 0.75467,-0.1809 0.25793,-0.0204 0.52227,-9e-5 0.77385,0.0603 0.25171,0.0605 0.49651,0.16257 0.7172,0.29785 0.22046,0.13513 0.42224,0.30682 0.59021,0.50341 0.16819,0.19685 0.30666,0.42315 0.40566,0.66239 0.099,0.23903 0.14042,0.49916 0.1809,0.75466 0.0992,0.62701 0.10534,1.26529 0.14983,1.89854 0.0451,0.64101 0.0853,1.2824 0.11878,1.92412 0.0335,0.64413 0.0621,1.28857 0.0822,1.93326 0.0202,0.64758 0.0338,1.29543 0.0384,1.9433 0.005,0.65173 0.002,1.30361 -0.0128,1.95519 -0.0148,0.6566 -0.038,1.31319 -0.0758,1.96888 -0.0382,0.66232 -0.0858,1.32436 -0.15257,1.98442 -0.0677,0.66878 -0.14768,1.3367 -0.25125,2.00086 -0.1054,0.67588 -0.225,1.35024 -0.37642,2.01732 -0.15516,0.68352 -0.3293,1.36396 -0.54453,2.03101 -0.22191,0.68778 -0.46833,1.36989 -0.76837,2.02736 -0.31148,0.68254 -0.65773,1.35298 -1.06713,1.98168 -0.42423,0.65149 -0.89577,1.27781 -1.43075,1.84189 -0.54572,0.5754 -1.14968,1.10151 -1.79895,1.55684 -0.64532,0.45255 -1.34329,0.83462 -2.06391,1.15393 -0.69973,0.31004 -1.43469,0.54261 -2.17628,0.73182 -0.71264,0.18182 -1.4423,0.29785 -2.17263,0.38464 -0.7099,0.0844 -1.42581,0.12334 -2.14066,0.13157 -0.72164,0.008 -1.44564,-0.008 -2.16349,-0.0832 -0.74172,-0.0769 -1.48242,-0.19235 -2.20552,-0.37459 -0.74335,-0.18734 -1.47761,-0.42614 -2.17902,-0.73548 -0.71392,-0.31484 -1.40466,-0.69195 -2.04838,-1.13291 -0.64463,-0.44158 -1.24736,-0.94947 -1.79895,-1.50293 -0.54306,-0.54489 -1.0317,-1.14647 -1.4737,-1.77611 -0.43051,-0.61329 -0.80399,-1.26773 -1.1393,-1.93782 -0.32577,-0.65103 -0.59929,-1.3287 -0.84329,-2.01457 -0.23788,-0.66867 -0.43264,-1.35302 -0.603,-2.04198 -0.16677,-0.67449 -0.29795,-1.358 -0.40931,-2.04381 -0.10945,-0.67405 -0.19004,-1.35296 -0.25399,-2.03284 -0.0631,-0.67144 -0.10269,-1.34522 -0.12791,-2.01914 -0.0247,-0.66745 -0.0311,-1.33574 -0.0228,-2.0036 0.008,-0.68165 0.0194,-1.36416 0.0722,-2.04381 0.0541,-0.69635 0.13733,-1.3911 0.25033,-2.08035 0.11193,-0.68271 0.25865,-1.3599 0.42302,-2.03193 0.16176,-0.66138 0.34936,-1.31665 0.55366,-1.96615 0.20262,-0.64414 0.42661,-1.28176 0.66604,-1.91315 0.23864,-0.62928 0.49484,-1.25216 0.76746,-1.86748 0.27271,-0.6155 0.56169,-1.2241 0.86795,-1.823616 0.30729,-0.601502 0.63057,-1.195202 0.97211,-1.777938 0.34388,-0.586702 0.70321,-1.164879 1.08358,-1.728602 0.38457,-0.569963 0.78546,-1.129722 1.21057,-1.670129 0.43248,-0.549781 0.88267,-1.086945 1.36131,-1.597038 0.49062,-0.522838 1.0005,-1.030053 1.54497,-1.496538 0.56449,-0.483643 1.15192,-0.945486 1.77885,-1.344874 0.65688,-0.418464 1.34217,-0.803133 2.06482,-1.093624 0.76064,-0.305757 1.55466,-0.551864 2.3654,-0.67335 0.83686,-0.125443 1.6976,-0.14927 2.53809,-0.05116 0.83411,0.09736 1.65758,0.322953 2.43941,0.629496 0.74937,0.293817 1.45605,0.699152 2.12512,1.146615 0.63406,0.424046 1.21757,0.923861 1.77337,1.446288 0.53029,0.498462 1.01854,1.042223 1.48192,1.603433 0.20551,0.248909 0.47334,0.596477 0.57392,0.779966 0.10058,0.183488 0.22527,0.396231 0.0908,0.498464 -0.12841,0.09764 -0.268,-0.03608 -0.43562,-0.2108 -0.16761,-0.17472 -0.26515,-0.337819 -0.61098,-0.750598 -0.34583,-0.412778 -0.92533,-1.07462 -1.44081,-1.559579 -0.53583,-0.504099 -1.09811,-0.986737 -1.70941,-1.396037 -0.63907,-0.427884 -1.31414,-0.815513 -2.03011,-1.096365 -0.74224,-0.291158 -1.52414,-0.505095 -2.31607,-0.597519 -0.79662,-0.09297 -1.61245,-0.07053 -2.4056,0.04842 -0.77229,0.115867 -1.52859,0.350681 -2.25303,0.642287 -0.6946,0.279591 -1.3531,0.649934 -1.98442,1.05251 -0.60693,0.387017 -1.17562,0.834452 -1.72221,1.302847 -0.53085,0.454909 -1.0283,0.949187 -1.50659,1.459079 -0.46852,0.499485 -0.90884,1.025758 -1.33208,1.564147 -0.41767,0.531298 -0.81152,1.081609 -1.18956,1.641806 -0.37443,0.554879 -0.72858,1.123719 -1.06713,1.701192 -0.33684,0.574578 -0.65545,1.160119 -0.9584,1.75327 -0.30206,0.591417 -0.58702,1.191817 -0.85608,1.798947 -0.26896,0.60692 -0.52207,1.22116 -0.7574,1.8419 -0.23603,0.62258 -0.45626,1.25151 -0.656,1.88666 -0.20103,0.6393 -0.38606,1.28414 -0.54544,1.93508 -0.1615,0.65963 -0.3058,1.32431 -0.4157,1.99447 -0.1107,0.67501 -0.19205,1.35543 -0.24486,2.03741 -0.0518,0.66902 -0.0623,1.34086 -0.0704,2.01183 -0.008,0.65994 -0.003,1.32031 0.0219,1.97985 0.0247,0.66447 0.0639,1.32879 0.12608,1.99081 0.0629,0.66918 0.14167,1.33745 0.24943,2.00087 0.1092,0.67236 0.23861,1.34231 0.402,2.0036 0.16624,0.67283 0.35533,1.34144 0.58746,1.99447 0.23711,0.66702 0.50372,1.32575 0.82045,1.95884 0.32444,0.6485 0.68537,1.28211 1.10185,1.8757 0.42546,0.60638 0.89601,1.18562 1.41888,1.71033 0.52972,0.53159 1.10854,1.01945 1.72768,1.44355 0.61844,0.42359 1.28206,0.78583 1.96798,1.08814 0.67611,0.29797 1.38392,0.52778 2.10045,0.70807 0.70005,0.17614 1.41714,0.28742 2.13517,0.3618 0.69907,0.0725 1.40409,0.0893 2.10685,0.0813 0.69715,-0.008 1.39534,-0.0457 2.08766,-0.12791 0.70916,-0.0842 1.4176,-0.1972 2.10959,-0.37368 0.71445,-0.1822 1.42257,-0.406 2.0968,-0.70441 0.69119,-0.30591 1.361,-0.67151 1.97985,-1.1055 0.6222,-0.43635 1.20019,-0.94145 1.72312,-1.49289 0.51417,-0.54219 0.96833,-1.14346 1.37594,-1.76971 0.39587,-0.60822 0.72958,-1.25739 1.03058,-1.91773 0.29191,-0.6404 0.53221,-1.30454 0.74827,-1.97437 0.21061,-0.65294 0.38073,-1.31904 0.53265,-1.98807 0.149,-0.65623 0.26735,-1.31951 0.37093,-1.98442 0.10209,-0.65533 0.18,-1.31449 0.24669,-1.97437 0.066,-0.65279 0.11379,-1.30747 0.15166,-1.96249 0.0376,-0.64991 0.0603,-1.30071 0.0749,-1.95152 0.0145,-0.64671 0.0171,-1.29371 0.0128,-1.94057 -0.005,-0.64392 -0.0182,-1.28781 -0.0384,-1.93143 -0.0201,-0.64134 -0.0488,-1.28243 -0.0822,-1.92321 -0.0334,-0.63866 -0.0732,-1.277 -0.11786,-1.91498 -0.0443,-0.63172 -0.0497,-1.26851 -0.14892,-1.89397 -0.0324,-0.20449 -0.0661,-0.41262 -0.14527,-0.60391 -0.0792,-0.19134 -0.18984,-0.37244 -0.32434,-0.52991 -0.13442,-0.15736 -0.29593,-0.29473 -0.47235,-0.40292 -0.17656,-0.10826 -0.37239,-0.19004 -0.57377,-0.23846 -0.20137,-0.0484 -0.41298,-0.0648 -0.61944,-0.0484 -0.2064,0.0164 -0.41266,0.066 -0.60392,0.14527 -0.19107,0.0792 -0.37169,0.19003 -0.52899,0.32434 -0.15753,0.13452 -0.29557,0.29575 -0.40383,0.47235 -0.10818,0.17648 -0.18928,0.37247 -0.23755,0.57377 -0.0482,0.20111 -0.0484,0.41172 -0.0484,0.61853 8e-5,0.62227 0.10274,1.24033 0.14618,1.86108 0.0429,0.61423 0.0813,1.22882 0.11329,1.84372 0.0319,0.61309 0.0594,1.22645 0.0786,1.84006 0.0191,0.61136 0.0324,1.22295 0.0365,1.83459 0.004,0.60848 0.002,1.2171 -0.0119,1.82545 -0.0135,0.60419 -0.0348,1.20836 -0.0694,1.81173 -0.0343,0.59827 -0.077,1.1963 -0.13705,1.79255 -0.0593,0.58906 -0.12927,1.1774 -0.22018,1.76241 -0.0894,0.57547 -0.19127,1.14961 -0.31978,1.71764 -0.12555,0.55494 -0.26658,1.10734 -0.44037,1.64911 -0.16826,0.52456 -0.35477,1.04495 -0.58199,1.54679 -0.21815,0.48183 -0.46008,0.9556 -0.74735,1.39969 -0.27512,0.42529 -0.58139,0.83411 -0.92917,1.20235 -0.33871,0.35862 -0.71333,0.68729 -1.11738,0.97028 -0.40745,0.28538 -0.84923,0.52447 -1.30467,0.72452 -0.47306,0.20779 -0.96992,0.3626 -1.47096,0.48879 -0.52431,0.13206 -1.06092,0.21587 -1.59795,0.27866 -0.55364,0.0648 -1.11184,0.0939 -1.66922,0.1005 -0.55216,0.006 -1.10612,-0.005 -1.65551,-0.0603 -0.5296,-0.0536 -1.0586,-0.13438 -1.57511,-0.26313 -0.49984,-0.12459 -0.9938,-0.28351 -1.46547,-0.49062 -0.46154,-0.20266 -0.90799,-0.44605 -1.32386,-0.73091 -0.41506,-0.2843 -0.80296,-0.61161 -1.15758,-0.96845 -0.36168,-0.36397 -0.68645,-0.7662 -0.98033,-1.18682 -0.30331,-0.43412 -0.56616,-0.89729 -0.80218,-1.37137 -0.24362,-0.48934 -0.44803,-0.99858 -0.63041,-1.51389 -0.18744,-0.52964 -0.34077,-1.07161 -0.47509,-1.61714 -0.13721,-0.55727 -0.24551,-1.12186 -0.33713,-1.6884 -0.0931,-0.57561 -0.16131,-1.15536 -0.21562,-1.73592 -0.055,-0.58789 -0.0895,-1.17782 -0.11146,-1.76788 -0.0221,-0.59502 -0.0267,-1.19077 -0.0201,-1.78616 0.006,-0.5844 0.0138,-1.16962 0.0585,-1.75235 0.0437,-0.56888 0.11211,-1.13637 0.20465,-1.69937 0.0935,-0.56857 0.2163,-1.13245 0.35358,-1.69205 0.13941,-0.56827 0.30123,-1.1312 0.47692,-1.68932 0.177,-0.56224 0.37201,-1.11901 0.58107,-1.67013 0.20979,-0.55299 0.43552,-1.10016 0.67518,-1.64089 0.23957,-0.5405 0.49317,-1.07504 0.76198,-1.6016 0.26806,-0.52512 0.54986,-1.04355 0.84785,-1.55227 0.29594,-0.505199 0.60546,-1.002894 0.93282,-1.488319 0.32399,-0.480408 0.6617,-0.952229 1.01962,-1.407915 0.35219,-0.448367 0.71865,-0.886566 1.10825,-1.302846 0.37983,-0.405847 0.77468,-0.799497 1.19595,-1.162147 0.40517,-0.348781 0.82668,-0.682039 1.27635,-0.971197 0.42472,-0.273122 0.86745,-0.525131 1.33482,-0.716291 0.43665,-0.178589 0.89238,-0.324387 1.35858,-0.396519 0.44405,-0.0687 0.90138,-0.0836 1.34762,-0.03106 0.45162,0.05317 0.89693,0.178661 1.31929,0.347182 0.44915,0.17921 0.87143,0.426787 1.27178,0.698019 0.42952,0.290993 0.82476,0.632703 1.20143,0.989469 0.39702,0.376026 0.76138,0.786614 1.11007,1.207828 0.37835,0.457038 0.74653,0.925871 1.06256,1.428015 0.0756,0.120244 0.15266,0.242772 0.19826,0.377333 0.0457,0.134907 0.0704,0.278759 0.0722,0.421186 0.002,0.142464 -0.0189,0.286956 -0.0612,0.423014 -0.0422,0.135913 -0.10688,0.266655 -0.18913,0.382814 -0.0821,0.116005 -0.18393,0.220141 -0.29784,0.305155 -0.1142,0.08524 -0.24331,0.153373 -0.37825,0.199173 -0.13489,0.04577 -0.27876,0.07035 -0.42118,0.07218 -0.14217,0.0018 -0.28635,-0.019 -0.42211,-0.06121 -0.13591,-0.04221 -0.26665,-0.106877 -0.38281,-0.189123 -0.11636,-0.08241 -0.21234,-0.191334 -0.30607,-0.298759 -0.359,-0.411457 -0.62772,-0.895027 -0.97485,-1.316552 -0.27721,-0.336629 -0.56728,-0.664452 -0.88257,-0.965714 -0.26718,-0.255289 -0.54739,-0.49997 -0.85151,-0.709897 -0.2368,-0.163449 -0.48598,-0.314099 -0.75193,-0.423927 -0.20269,-0.08369 -0.41635,-0.149115 -0.63406,-0.175419 -0.20538,-0.02485 -0.41625,-0.01544 -0.62036,0.01827 -0.25556,0.0423 -0.50413,0.12769 -0.74279,0.228409 -0.31115,0.131308 -0.60593,0.301802 -0.88897,0.486056 -0.34115,0.222096 -0.66151,0.476434 -0.96937,0.742787 -0.34576,0.299152 -0.67011,0.62331 -0.98216,0.957491 -0.33516,0.35895 -0.65072,0.736465 -0.95383,1.122861 -0.31689,0.403964 -0.61581,0.822218 -0.90268,1.248023 -0.29493,0.43779 -0.57381,0.88662 -0.84054,1.34214 -0.27126,0.46326 -0.52789,0.93529 -0.77203,1.41339 -0.24618,0.48214 -0.47866,0.97148 -0.69801,1.46639 -0.21936,0.49492 -0.42562,0.99587 -0.61762,1.50202 -0.19055,0.50232 -0.36846,1.00971 -0.52991,1.52212 -0.15816,0.50197 -0.30372,1.00831 -0.42941,1.51938 -0.12076,0.49104 -0.22938,0.98571 -0.31155,1.48466 -0.08,0.48607 -0.1389,0.9761 -0.17633,1.4673 -0.0399,0.5235 -0.0455,1.04922 -0.0512,1.57419 -0.006,0.55093 -0.002,1.10219 0.0183,1.65277 0.0199,0.53883 0.0513,1.07754 0.10142,1.6144 0.0485,0.52004 0.10952,1.03938 0.19278,1.55501 0.0797,0.49357 0.1742,0.98538 0.29327,1.47096 0.11229,0.45789 0.23994,0.91297 0.39652,1.35766 0.14476,0.41109 0.30724,0.81728 0.50067,1.20783 0.1753,0.35391 0.37038,0.69982 0.5957,1.02419 0.20344,0.29287 0.42802,0.57335 0.67883,0.82684 0.2343,0.2368 0.49076,0.45409 0.76563,0.64229 0.27645,0.18927 0.57368,0.35024 0.88074,0.48422 0.33173,0.14474 0.67917,0.25516 1.03059,0.3417 0.39047,0.0962 0.79028,0.15589 1.19047,0.19552 0.44607,0.0442 0.89573,0.0522 1.34396,0.0466 0.46156,-0.005 0.92377,-0.0294 1.38233,-0.0822 0.4187,-0.0482 0.83712,-0.11236 1.2462,-0.21379 0.35362,-0.0877 0.70466,-0.19467 1.03881,-0.33987 0.2934,-0.1275 0.5783,-0.28 0.84054,-0.46322 0.25447,-0.17778 0.49011,-0.38492 0.70259,-0.61122 0.23331,-0.2485 0.43741,-0.52521 0.62127,-0.81222 0.21223,-0.3313 0.3906,-0.6845 0.55184,-1.04338 0.18271,-0.40664 0.33316,-0.82789 0.4687,-1.2526 0.1485,-0.46531 0.26898,-0.93965 0.37641,-1.41613 0.1144,-0.50735 0.20544,-1.02004 0.28506,-1.534 0.0831,-0.53679 0.14666,-1.07667 0.201,-1.61714 0.056,-0.55737 0.0968,-1.11634 0.12882,-1.67561 0.0328,-0.57141 0.0521,-1.14361 0.0649,-1.7158 0.013,-0.58186 0.0158,-1.16398 0.0119,-1.74596 -0.004,-0.5891 -0.0172,-1.17816 -0.0356,-1.76698 -0.0186,-0.59472 -0.0448,-1.18922 -0.0758,-1.78342 -0.0313,-0.59877 -0.0694,-1.19719 -0.11146,-1.79529 -0.0431,-0.61282 -0.14445,-1.223 -0.14435,-1.83733 7e-5,-0.49184 9.1e-4,-0.99271 0.11603,-1.47096 0.11485,-0.47821 0.30755,-0.94386 0.56462,-1.36314 0.25698,-0.41912 0.58456,-0.80176 0.95841,-1.12104 0.37383,-0.319256 0.80297,-0.583005 1.25717,-0.771105 0.45424,-0.188118 0.94426,-0.304981 1.43441,-0.343527 0.4903,-0.03856 0.99271,3.56e-4 1.47095,0.115118 0.47797,0.114698 0.94317,0.307731 1.36223,0.564628 0.41934,0.257061 0.80252,0.584396 1.12195,0.958406 0.31945,0.37401 0.58298,0.80361 0.77111,1.25808 0.18805,0.45428 0.26677,0.94878 0.34353,1.43441 0.10007,0.63305 0.10583,1.27747 0.15075,1.91681 0.046,0.65441 0.0873,1.30919 0.12151,1.96432 0.0344,0.65965 0.0636,1.31962 0.0841,1.97985 0.0206,0.66585 0.0348,1.33197 0.0393,1.99813 0.005,0.67335 0.002,1.34685 -0.0128,2.02005 -0.0153,0.68281 -0.0391,1.3656 -0.0786,2.04745 -0.0401,0.69406 -0.0907,1.38776 -0.1608,2.07944 -0.0718,0.70875 -0.15598,1.4167 -0.26587,2.12055 -0.11337,0.72613 -0.2426,1.45054 -0.40565,2.16715 -0.17009,0.74749 -0.36079,1.49163 -0.59661,2.22105 -0.24883,0.76967 -0.52523,1.53291 -0.86156,2.26856 -0.35795,0.78296 -0.7556,1.55216 -1.2261,2.27313 -0.49893,0.76454 -1.05427,1.49875 -1.68292,2.16076 -0.64926,0.6837 -1.36698,1.3095 -2.13882,1.85102 -0.76423,0.53618 -1.59076,0.98887 -2.44398,1.36772 -0.81287,0.36093 -1.66651,0.63249 -2.52804,0.85334 -0.80726,0.20693 -1.63385,0.3397 -2.46134,0.43854 -0.78771,0.0941 -1.58218,0.13739 -2.37545,0.14618 -0.8064,0.009 -1.6154,-0.0113 -2.41749,-0.095 -0.84774,-0.0885 -1.69431,-0.22073 -2.52072,-0.42941 -0.86494,-0.21842 -1.71931,-0.49656 -2.53535,-0.85699 -0.84044,-0.37123 -1.65306,-0.81653 -2.41109,-1.33574 -0.7594,-0.52016 -1.47043,-1.11717 -2.12055,-1.7688 -0.63375,-0.63524 -1.2035,-1.33709 -1.71946,-2.07122 -0.49407,-0.703 -0.92319,-1.45295 -1.30833,-2.22105 -0.36696,-0.73187 -0.67544,-1.49367 -0.95018,-2.26491 -0.263,-0.73827 -0.47773,-1.4941 -0.66605,-2.25486 -0.18144,-0.73299 -0.32455,-1.47573 -0.44585,-2.22105 -0.11773,-0.72342 -0.20456,-1.45205 -0.27318,-2.18176 -0.0671,-0.71304 -0.10848,-1.42862 -0.13522,-2.14431 -0.0263,-0.70367 -0.0332,-1.40823 -0.0247,-2.11232 0.009,-0.73042 0.0219,-1.46172 0.0786,-2.18999 0.0591,-0.75993 0.14906,-1.51819 0.27226,-2.27039 0.12119,-0.73985 0.28047,-1.47364 0.45865,-2.20187 0.17326,-0.70808 0.37437,-1.40958 0.59295,-2.10502 0.2153,-0.68498 0.45273,-1.36323 0.70715,-2.03467 0.25295,-0.66752 0.52483,-1.32814 0.81405,-1.98076 0.28933,-0.652841 0.59602,-1.298308 0.92095,-1.934172 0.32695,-0.63982 0.6708,-1.271408 1.03424,-1.891229 0.36787,-0.627376 0.75247,-1.245516 1.1594,-1.848288 0.4151,-0.614851 0.8478,-1.218655 1.3065,-1.801693 0.47234,-0.600351 0.96358,-1.187281 1.48649,-1.744133 0.5461,-0.58154 1.11413,-1.145208 1.72038,-1.663734 0.64397,-0.550768 1.31399,-1.076804 2.02919,-1.531256 0.77314,-0.491263 1.57983,-0.942444 2.43028,-1.282747 0.92265,-0.369191 1.88582,-0.665329 2.86882,-0.81131 1.03315,-0.153427 2.09539,-0.181055 3.13286,-0.0603 1.02556,0.119367 2.0385,0.39408 3.00038,0.769283 0.8995,0.350864 1.74847,0.834854 2.55179,1.370456 0.73613,0.490788 1.41321,1.070262 2.05843,1.675611 0.5969,0.560023 1.14386,1.173283 1.6683,1.801692 0.45408,0.544099 0.89733,1.101472 1.27635,1.700279"
         id="path2"
         fill="none"
         stroke="black"
         sodipodi:nodetypes="caaaaaaaaaaaaaaaaaaaaaaaaaaaaaaaaaaaaaaaaaaaaaaaaaaaaaaaaaaaaaaaaaaaaaaaaaaaaaaaaaaaaaaaaaaaaaaaaaaaaaaaaaaaaaaaaaaaaaaaaaaaaaaaaaaaaaaaaaaaaaaaaaaaaaaaaaaaaaaaaaaaaaaaaaaaaaaaaaaaaaaaaaaaaaaaaaaaaaaaaaaaaaaaaaaaaaaaaaaaaaaaaaaaaaaaaaaaazzszzaaaaaaaaaaaaaaaaaaaaaaaaaaaaaaaaaaaaaaaaaaaaaaaaaaaaaaaaaaaaaaaaaaaaaaaaaaaaaaaaaaaaaaaaaaaaaaaaaaaaaaaaaaaaaaaaaaaaaaaaaaaaaaaaaaaaaaaaaaaaaaaaaaaaaaaaaaaaaaaaaaaaaaaaaaaaaaaaaaaaaaaaaaaaaaaaaaaaaaaaaaaaaaaaaaaaaaaaaaaaaaaaaaaaaaaaaaaazszaaaaaaaaaaaaaaaaaaaaaaaaaaaaaaaaaaaaaaaaaaaaaaaaaaaaaaaaaaaaaaaaaaaaaaaaaaaaaaaaaaaaaaaaaaaaaaaaaaaaaaaaaaaaaaaaaaaaaaaaaaaaaaaaaaaaaaaaaaaaaaaaaaaaaaaaaaaaaaaaaaaaaaaaaaaaaaaaaaaaaaaaaaaaaaaaaaaaaaaaaaaaaaaaaaaaaaaaaaaaaaaaaaaaaaaaaaaaazszzaaaaaaaaaaaaaaaaaaaaaaaaaaaaaaaaaaaaaaaaaaaaaaaaaaaaaaaaaaaaaaaaaaaaaaaaaaaaaaaaaaaaaaaaaaaaaaaaaaaaaaaaaaaaaaaaaaaaaaaaaaaaaaaaaaaaaaaaaaaaaaaaaaaaaaaaaaaaaaaaaaaaaaaaaaaaaaaaaaaaaaaaaaaaaaaaaaaaaaaaaaaaaaaaaaaaaaaaaaaaaaaaaaaaaaaaaaaac" />
      <path
         style="fill:none;stroke:#000000;stroke-width:0.0913637;stroke-linecap:butt;stroke-linejoin:miter;stroke-dasharray:none;stroke-opacity:1"
         d="m 99.723576,98.645342 c -0.366469,-0.419908 -0.641007,-0.9133 -0.995868,-1.343047 -0.290541,-0.35186 -0.59463,-0.694438 -0.925514,-1.008656 -0.285949,-0.271542 -0.586029,-0.531554 -0.91181,-0.75375 -0.263533,-0.17974 -0.540823,-0.345392 -0.836892,-0.464128 -0.238451,-0.09563 -0.490127,-0.16768 -0.745528,-0.195519 -0.246329,-0.02686 -0.498669,-0.01325 -0.742787,0.02924 -0.293503,0.05107 -0.578833,0.150704 -0.852424,0.268609 -0.340051,0.146548 -0.661618,0.336337 -0.970283,0.540873 -0.361414,0.239492 -0.700267,0.513309 -1.026014,0.799433 -0.359677,0.315927 -0.697,0.657563 -1.021447,1.009569 -0.344874,0.374171 -0.669583,0.7672 -0.981246,1.169456 -0.324118,0.418327 -0.62961,0.851309 -0.922774,1.291883 -0.300156,0.451085 -0.584031,0.913225 -0.855164,1.382335 -0.275062,0.4759 -0.534871,0.96082 -0.782074,1.45177 -0.24888,0.49428 -0.484085,0.99568 -0.705328,1.50293 -0.221116,0.50697 -0.428591,1.02012 -0.621273,1.53857 -0.191075,0.51411 -0.369138,1.03337 -0.52991,1.55775 -0.157617,0.51408 -0.302115,1.03262 -0.425755,1.55592 -0.118821,0.5029 -0.225928,1.00937 -0.303327,1.52029 -0.07664,0.50588 -0.125858,1.01611 -0.158973,1.52669 -0.03517,0.54236 -0.04004,1.08644 -0.04203,1.62993 -0.0021,0.56136 0.0057,1.12303 0.03106,1.68383 0.02487,0.54844 0.06206,1.09666 0.118773,1.64272 0.05502,0.52976 0.123001,1.05868 0.214705,1.58333 0.088,0.5035 0.191552,1.00497 0.3216,1.49928 0.123004,0.46754 0.262713,0.93173 0.433064,1.38416 0.15845,0.42082 0.33584,0.83606 0.546355,1.23341 0.192706,0.36373 0.407036,0.71807 0.653251,1.04794 0.226089,0.30291 0.475532,0.59094 0.751923,0.84877 0.26378,0.24606 0.551909,0.46862 0.857906,0.65965 0.312053,0.19481 0.645738,0.35719 0.988555,0.49062 0.369608,0.14386 0.754751,0.24951 1.142961,0.33074 0.424834,0.0889 0.85799,0.13967 1.290969,0.16993 0.456332,0.0319 0.91541,0.0347 1.372283,0.0119 0.443348,-0.0222 0.887113,-0.065 1.323861,-0.14435 0.401815,-0.073 0.801165,-0.16985 1.186814,-0.30424 0.351447,-0.12248 0.696162,-0.2709 1.01962,-0.455 0.300425,-0.17098 0.587018,-0.37054 0.846941,-0.59843 0.252634,-0.22149 0.483154,-0.47094 0.684315,-0.74004 0.205482,-0.27489 0.381502,-0.57365 0.527168,-0.88441 0.222491,-0.47463 0.469295,-1.19725 0.535395,-2.13242 0.05192,-0.73582 -0.01783,-1.52481 -0.231151,-2.28867 -0.09595,-0.3436 -0.342998,-1.40731 -0.872524,-1.82453 -1.118087,-0.88095 -2.756023,-0.9804 -4.176581,-0.88985 -1.317264,0.084 -2.417114,1.33706 -3.736777,1.31019 -0.88289,-0.018 -1.740338,-0.469 -2.462252,-0.97759 -0.365343,-0.25738 -0.6766,-0.61166 -0.885315,-1.00683 -0.412406,-0.78083 -0.7131,-1.68514 -0.656905,-2.5664 0.0562,-0.88128 0.424561,-1.77379 0.977592,-2.46225 0.846274,-1.05351 2.104311,-1.76561 3.356703,-2.27313 1.059911,-0.42952 2.236068,-0.54713 3.378631,-0.5966 1.940329,-0.084 3.936606,-0.021 5.803773,0.51346 1.017022,0.2911 1.965532,0.82624 2.830452,1.43532 0.8289,0.58372 1.56464,1.30786 2.20918,2.09041 0.60357,0.73282 1.09948,1.55683 1.52486,2.4056 0.4026,0.80333 0.71564,1.65425 0.96023,2.51889 0.23926,0.84585 0.40181,1.71654 0.49062,2.59108 0.0886,0.87301 0.10321,1.75695 0.0402,2.63219 -0.0637,0.88446 -0.20082,1.76777 -0.42119,2.62671 -0.2244,0.87465 -0.52591,1.73451 -0.91181,2.55087 -0.39298,0.83135 -0.86653,1.63046 -1.41796,2.36632 -0.55546,0.74124 -1.19123,1.42833 -1.88666,2.04015 -0.68846,0.60569 -1.44641,1.13782 -2.24115,1.59521 -0.77185,0.44421 -1.593738,0.8059 -2.433027,1.10368 -0.805802,0.2859 -1.640889,0.49296 -2.481439,0.64959 -0.805961,0.15019 -1.625239,0.23358 -2.44398,0.27592 -0.805697,0.0417 -1.615548,0.0362 -2.420225,-0.0219 -0.827075,-0.0598 -1.654215,-0.16134 -2.464993,-0.33531 -0.847396,-0.18182 -1.687095,-0.41927 -2.493316,-0.7373 -0.832517,-0.32841 -1.642518,-0.72648 -2.401039,-1.20144 -0.764497,-0.4787 -1.484942,-1.03466 -2.146134,-1.6482 -0.648687,-0.60193 -1.236998,-1.2723 -1.769715,-1.97894 -0.512704,-0.68009 -0.959974,-1.41095 -1.362233,-2.16166 -0.384627,-0.71781 -0.709804,-1.46819 -0.99952,-2.22928 -0.277689,-0.72949 -0.505166,-1.47846 -0.705328,-2.23293 -0.193109,-0.72787 -0.346259,-1.46662 -0.476918,-2.20826 -0.126987,-0.72079 -0.22153,-1.44747 -0.297846,-2.17537 -0.0746,-0.71155 -0.123366,-1.42596 -0.156232,-2.14065 -0.03231,-0.70258 -0.04331,-1.40627 -0.0402,-2.10959 0.0032,-0.72083 0.01229,-1.44243 0.0603,-2.16166 0.05012,-0.75077 0.125032,-1.50082 0.237546,-2.24481 0.11177,-0.73907 0.263175,-1.47233 0.433977,-2.20003 0.166051,-0.70746 0.361053,-1.40834 0.573765,-2.1032 0.209597,-0.68468 0.442153,-1.36257 0.691623,-2.03375 0.247865,-0.66687 0.514975,-1.32685 0.799433,-1.97894 0.28435,-0.65186 0.586386,-1.296298 0.906328,-1.931431 0.321589,-0.638404 0.659831,-1.268832 1.017792,-1.887575 0.361805,-0.625385 0.740435,-1.241597 1.141133,-1.842806 0.407959,-0.61211 0.833424,-1.213375 1.284574,-1.794384 0.463186,-0.596514 0.945061,-1.179926 1.458165,-1.734084 0.53346,-0.576139 1.088503,-1.134902 1.681092,-1.650028 0.626643,-0.544729 1.278674,-1.065722 1.975284,-1.517552 0.748828,-0.485699 1.530285,-0.933171 2.355357,-1.27361 0.891145,-0.367703 1.821888,-0.666289 2.773803,-0.818619 0.999753,-0.159987 2.029239,-0.19952 3.036016,-0.09228 0.998305,0.106339 1.985842,0.365199 2.923643,0.723601 0.881274,0.336803 1.713444,0.805682 2.500634,1.325688 0.72488,0.478864 1.3916,1.045968 2.02644,1.639065 0.59019,0.551389 1.13038,1.156263 1.6482,1.776111 0.4531,0.542371 0.89474,1.098539 1.2727,1.695711 0.0692,0.109353 0.13925,0.220999 0.1809,0.343527 0.0416,0.1223 0.064,0.25274 0.0658,0.381901 0.002,0.129544 -0.0173,0.260916 -0.0557,0.384641 -0.0384,0.123569 -0.0971,0.242434 -0.17176,0.348096 -0.0746,0.105525 -0.16692,0.200397 -0.27044,0.277745 -0.10367,0.07748 -0.22099,0.139275 -0.34353,0.180901 -0.1226,0.04166 -0.25335,0.06405 -0.38281,0.06578 -0.12955,0.0018 -0.26093,-0.01727 -0.38464,-0.05573 -0.12357,-0.03837 -0.24244,-0.09709 -0.3481,-0.171764 -0.10552,-0.07455 -0.19248,-0.173345 -0.27774,-0.270437 -0.438,-0.498773 -0.7682,-1.084414 -1.19321,-1.594297 -0.45191,-0.542134 -0.92389,-1.070701 -1.43898,-1.553183 -0.53393,-0.500125 -1.09438,-0.978725 -1.70394,-1.383247 -0.635261,-0.42158 -1.306571,-0.802713 -2.018228,-1.076265 -0.7353,-0.282643 -1.50992,-0.487489 -2.29323,-0.571023 -0.786838,-0.08387 -1.591544,-0.05125 -2.372716,0.07492 -0.761189,0.122976 -1.505182,0.363299 -2.217397,0.658733 -0.684765,0.284049 -1.332917,0.657289 -1.95427,1.061646 -0.59954,0.39016 -1.160912,0.839395 -1.700279,1.309242 -0.52531,0.457605 -1.017114,0.954011 -1.490143,1.465475 -0.464361,0.502089 -0.90085,1.03029 -1.320206,1.570542 -0.414257,0.533683 -0.804829,1.086032 -1.179505,1.648202 -0.371727,0.557748 -0.72328,1.129228 -1.058906,1.709415 -0.333986,0.577355 -0.649349,1.165728 -0.949269,1.761493 -0.299322,0.59458 -0.581708,1.19794 -0.847855,1.80809 -0.266087,0.61001 -0.516282,1.22725 -0.748269,1.85103 -0.232682,0.62564 -0.449563,1.25755 -0.645028,1.89579 -0.196806,0.64263 -0.377161,1.29085 -0.530824,1.94514 -0.155646,0.66273 -0.29373,1.33051 -0.395605,2.0036 -0.102152,0.67494 -0.170333,1.35538 -0.215618,2.0365 -0.04442,0.66817 -0.05215,1.33854 -0.05482,2.00817 -0.0027,0.66221 0.0081,1.32474 0.03837,1.98625 0.03051,0.66647 0.07505,1.33274 0.144354,1.99629 0.07003,0.67045 0.157263,1.33973 0.274091,2.00361 0.118413,0.67289 0.25718,1.34317 0.432151,2.00361 0.17787,0.67138 0.380099,1.33788 0.626755,1.98716 0.251649,0.66242 0.533914,1.31563 0.867955,1.94056 0.341519,0.63893 0.72104,1.2612 1.156665,1.84007 0.443942,0.58992 0.934418,1.14957 1.475524,1.65186 0.54617,0.50698 1.141661,0.96599 1.77337,1.36132 0.629221,0.39376 1.301065,0.72392 1.99173,0.99586 0.679753,0.26764 1.387865,0.46677 2.102279,0.61945 0.699349,0.14946 1.412735,0.23648 2.126034,0.28779 0.703539,0.0506 1.411561,0.0555 2.115984,0.0192 0.710061,-0.0366 1.420571,-0.10873 2.119638,-0.23846 0.713559,-0.13242 1.422649,-0.30707 2.106848,-0.5491 0.698379,-0.24704 1.382337,-0.54728 2.024624,-0.91637 0.651566,-0.37444 1.272986,-0.81025 1.837326,-1.30651 0.56724,-0.49881 1.08573,-1.05915 1.53856,-1.66373 0.45109,-0.60226 0.83815,-1.25647 1.15941,-1.93691 0.31834,-0.6743 0.56682,-1.38452 0.75192,-2.10685 0.18345,-0.71587 0.29798,-1.45196 0.35084,-2.18907 0.0526,-0.73339 0.0396,-1.47402 -0.0347,-2.20552 -0.0743,-0.732 -0.20958,-1.46085 -0.40931,-2.16898 -0.20193,-0.7159 -0.46066,-1.42039 -0.79304,-2.08583 -0.34183,-0.68437 -0.73997,-1.34915 -1.22518,-1.94057 -0.50226,-0.61221 -1.0754,-1.17949 -1.72221,-1.63632 -0.66183,-0.46744 -1.378648,-0.91445 -2.167151,-1.10093 -2.441059,-0.57729 -5.124647,-0.68604 -7.525062,0.042 -0.891482,0.27038 -1.744867,0.81663 -2.332516,1.53948 -0.234377,0.2883 -0.387406,0.66527 -0.411136,1.03606 -0.02375,0.37107 0.07703,0.76666 0.275921,1.08083 0.198869,0.31414 0.513266,0.5745 0.858819,0.71172 0.345458,0.13718 0.751543,0.15874 1.11281,0.0713 0.674241,-0.16319 1.117171,-0.88451 1.786161,-1.06804 1.643925,-0.451 3.457506,-0.3851 5.113973,0.0174 0.436893,0.10616 0.834462,0.35382 1.20052,0.61487 0.381767,0.27225 0.71877,0.61067 1.014141,0.97485 0.31316,0.38611 0.56893,0.8198 0.78938,1.26539 0.23011,0.4651 0.40969,0.95676 0.55001,1.45634 0.14254,0.50753 0.24009,1.02961 0.29328,1.55409 0.0533,0.52546 0.0621,1.05744 0.0247,1.58425 -0.0372,0.52259 -0.11724,1.0446 -0.24668,1.55227 -0.12777,0.50114 -0.29947,0.99397 -0.51986,1.46182 -0.21728,0.46125 -0.47929,0.90471 -0.78481,1.3129 -0.303737,0.4058 -0.651632,0.7819 -1.032408,1.11646 -0.383804,0.33722 -0.806453,0.63335 -1.24986,0.88714 -0.453227,0.25941 -0.936219,0.46925 -1.428929,0.64229 -0.50722,0.17814 -1.032664,0.30667 -1.561406,0.40383 -0.543962,0.1 -1.096759,0.15463 -1.649115,0.18273 -0.557533,0.0283 -1.117834,0.0248 -1.674697,-0.0146 -0.54736,-0.0387 -1.094921,-0.10383 -1.631756,-0.21745 -0.520917,-0.11025 -1.037312,-0.25438 -1.533083,-0.44859 -0.484682,-0.18988 -0.956449,-0.4203 -1.397866,-0.6962 -0.438695,-0.27419 -0.851865,-0.59327 -1.230669,-0.94561 -0.384281,-0.35743 -0.732237,-0.75593 -1.047028,-1.17585 -0.32342,-0.43144 -0.60468,-0.89533 -0.857906,-1.37137 -0.260653,-0.49 -0.480605,-1.0021 -0.677005,-1.52121 -0.201539,-0.53268 -0.367138,-1.07926 -0.51255,-1.62993 -0.148404,-0.56199 -0.266087,-1.1323 -0.366369,-1.70484 -0.101809,-0.58126 -0.177322,-1.16726 -0.238459,-1.75419 -0.06188,-0.59404 -0.102516,-1.19043 -0.129737,-1.78707 -0.02745,-0.60157 -0.03603,-1.20407 -0.0338,-1.80626 0.0022,-0.59498 0.0077,-1.19063 0.0466,-1.78433 0.03807,-0.58029 0.09557,-1.16004 0.182728,-1.735 0.08744,-0.57681 0.207,-1.14886 0.340786,-1.71672 0.135894,-0.57681 0.295126,-1.14829 0.468696,-1.7149 0.174863,-0.57083 0.368456,-1.13612 0.576505,-1.69571 0.208687,-0.5613 0.433934,-1.11666 0.673351,-1.66556 0.2395,-0.54909 0.493502,-1.09212 0.762887,-1.62719 0.268692,-0.53368 0.551446,-1.06062 0.850596,-1.57785 0.297504,-0.514376 0.608933,-1.021143 0.938306,-1.515723 0.326223,-0.489846 0.66636,-0.971086 1.026928,-1.436238 0.355594,-0.458728 0.72555,-0.907397 1.119206,-1.33391 0.384864,-0.416993 0.785183,-0.821552 1.212397,-1.195037 0.412844,-0.360924 0.84243,-0.70616 1.301019,-1.006829 0.4361,-0.285923 0.890745,-0.550512 1.37137,-0.752837 0.452049,-0.190301 0.92405,-0.347356 1.407915,-0.427582 0.462948,-0.07675 0.940418,-0.09763 1.407001,-0.04751 0.470389,0.05052 0.935144,0.176277 1.375938,0.348096 0.465444,0.181421 0.903447,0.434452 1.318378,0.712637 0.441854,0.296228 0.848115,0.645631 1.235242,1.010482 0.406066,0.382705 0.786204,0.794914 1.134734,1.23067 0.17319,0.216533 0.40728,0.451614 0.57947,0.614762 0.17219,0.163147 0.31674,0.478074 0.15297,0.607788 -0.17064,0.135157 -0.42898,-0.117225 -0.57998,-0.30016 -0.151,-0.182936 -0.32508,-0.429021 -0.49964,-0.633681 -0.350215,-0.410609 -0.704834,-0.820017 -1.097277,-1.190469 -0.36838,-0.34773 -0.754484,-0.681345 -1.174942,-0.963887 -0.387495,-0.260396 -0.796773,-0.496955 -1.231583,-0.666956 -0.403883,-0.157904 -0.829667,-0.274182 -1.260819,-0.320686 -0.426573,-0.04605 -0.863173,-0.02659 -1.286401,0.04385 -0.449404,0.07479 -0.887739,0.221064 -1.307415,0.398346 -0.455165,0.192275 -0.885313,0.444083 -1.298279,0.715378 -0.440699,0.289513 -0.853867,0.621319 -1.250769,0.968456 -0.414973,0.362942 -0.803749,0.756126 -1.177679,1.161233 -0.384871,0.416956 -0.746929,0.855265 -1.094537,1.30376 -0.354008,0.456755 -0.687516,0.929617 -1.007742,1.410656 -0.324128,0.486895 -0.630826,0.98565 -0.923687,1.491971 -0.294661,0.50943 -0.573068,1.02849 -0.837806,1.5541 -0.265737,0.52758 -0.516686,1.06287 -0.752837,1.60434 -0.236068,0.54129 -0.457604,1.08918 -0.663301,1.64272 -0.204935,0.5515 -0.395969,1.1085 -0.568282,1.67104 -0.170594,0.55694 -0.326827,1.11873 -0.460473,1.68567 -0.131092,0.5561 -0.248738,1.1162 -0.334391,1.68109 -0.08525,0.56222 -0.141048,1.12918 -0.17816,1.69662 -0.03819,0.58459 -0.04349,1.17109 -0.04568,1.75692 -0.0023,0.59488 0.0058,1.19007 0.03289,1.78434 0.02675,0.5878 0.06684,1.17535 0.12791,1.76058 0.06016,0.57655 0.134879,1.15211 0.234804,1.72312 0.09798,0.5599 0.212364,1.11775 0.357233,1.66739 0.141155,0.53555 0.301979,1.06713 0.497932,1.58516 0.189663,0.50138 0.402408,0.99586 0.654164,1.46913 0.24224,0.45537 0.511206,0.89916 0.820446,1.31198 0.298621,0.39864 0.628492,0.77716 0.993124,1.11646 0.357901,0.33305 0.748467,0.63445 1.16306,0.89354 0.417762,0.26106 0.86423,0.47913 1.322947,0.65873 0.473018,0.18521 0.965748,0.32246 1.462733,0.42759 0.516411,0.10923 1.043103,0.17203 1.569629,0.20922 0.538639,0.038 1.080595,0.0411 1.619879,0.0137 0.532441,-0.027 1.065343,-0.0793 1.589729,-0.17542 0.50553,-0.0927 1.007956,-0.21527 1.492883,-0.38555 0.46725,-0.16407 0.925077,-0.36348 1.354924,-0.6094 0.417338,-0.23876 0.815445,-0.51693 1.176765,-0.83415 0.357592,-0.31393 0.684218,-0.667 0.969373,-1.04794 0.287445,-0.384 0.533995,-0.8012 0.738215,-1.23524 0.20787,-0.4418 0.36915,-0.90736 0.48971,-1.3805 0.12275,-0.48174 0.19945,-0.97692 0.2348,-1.47279 0.0357,-0.50098 0.027,-1.00689 -0.0238,-1.50658 -0.0506,-0.49858 -0.14325,-0.99486 -0.27866,-1.47736 -0.13264,-0.47259 -0.30258,-0.93761 -0.51986,-1.37776 -0.20526,-0.41579 -0.442849,-0.82089 -0.73456,-1.18133 -0.269644,-0.33317 -0.577678,-0.64254 -0.926431,-0.89171 -0.329263,-0.23524 -0.686832,-0.45848 -1.07992,-0.55458 -1.558285,-0.38097 -3.264029,-0.44388 -4.812473,-0.0247 -0.685703,0.18563 -1.143695,0.9192 -1.834583,1.08449 -0.452026,0.10814 -0.959531,0.0821 -1.39147,-0.0895 -0.431954,-0.17162 -0.824851,-0.4972 -1.073524,-0.88988 -0.24857,-0.39252 -0.374968,-0.8867 -0.345353,-1.35036 0.02962,-0.46369 0.221765,-0.93461 0.514378,-1.29553 0.634762,-0.78295 1.554897,-1.37854 2.518898,-1.67287 2.4952,-0.76183 5.287482,-0.64975 7.826566,-0.0502 0.832179,0.1965 1.588312,0.669 2.286842,1.16214 0.67983,0.47993 1.2827,1.07545 1.81083,1.71855 0.50689,0.61723 0.92292,1.31111 1.28,2.02554 0.3451,0.69045 0.61344,1.42156 0.82319,2.1644 0.20702,0.73319 0.34791,1.48776 0.42484,2.24572 0.0768,0.75726 0.0893,1.52399 0.0347,2.28318 -0.0548,0.76383 -0.17273,1.52672 -0.36272,2.26857 -0.19214,0.75026 -0.45036,1.48789 -0.78116,2.18816 -0.33437,0.7078 -0.73755,1.38808 -1.20691,2.01457 -0.47152,0.62936 -1.01112,1.21288 -1.60161,1.73225 -0.58706,0.51636 -1.2335,0.96987 -1.91133,1.3595 -0.665749,0.38268 -1.374734,0.69396 -2.098629,0.95018 -0.706156,0.24994 -1.437959,0.43061 -2.174456,0.56737 -0.718332,0.13338 -1.448464,0.20739 -2.178112,0.24485 -0.722982,0.0372 -1.449648,0.0319 -2.171715,-0.0201 -0.734132,-0.0528 -1.468379,-0.14222 -2.188162,-0.29602 -0.738639,-0.15783 -1.47077,-0.36367 -2.173543,-0.64046 -0.716364,-0.28214 -1.413139,-0.62479 -2.065734,-1.03332 -0.656122,-0.41074 -1.2746,-0.88764 -1.841892,-1.41431 -0.560512,-0.52038 -1.068479,-1.10023 -1.528515,-1.71124 -0.449527,-0.59706 -0.84165,-1.23861 -1.194124,-1.89763 -0.343329,-0.64192 -0.633103,-1.31307 -0.89171,-1.99355 -0.252313,-0.66393 -0.459499,-1.34536 -0.641374,-2.03193 -0.178136,-0.67246 -0.318953,-1.35503 -0.439459,-2.04016 -0.118636,-0.6745 -0.207341,-1.35444 -0.27866,-2.03558 -0.0704,-0.67237 -0.116114,-1.34746 -0.147095,-2.02279 -0.0307,-0.66881 -0.0413,-1.33868 -0.03837,-2.00818 0.0029,-0.67879 0.0115,-1.35829 0.05665,-2.03558 0.04626,-0.69393 0.115219,-1.38722 0.219272,-2.07487 0.103666,-0.68509 0.24452,-1.3647 0.402915,-2.03924 0.155868,-0.66378 0.338609,-1.32147 0.538132,-1.97346 0.19795,-0.64685 0.417587,-1.28729 0.653251,-1.92137 0.234805,-0.63178 0.487898,-1.25701 0.757405,-1.87479 0.269442,-0.61763 0.555669,-1.22822 0.858819,-1.830013 0.303998,-0.603476 0.623725,-1.199414 0.96206,-1.784333 0.34039,-0.588474 0.696652,-1.168278 1.073524,-1.734084 0.380468,-0.571206 0.776918,-1.132563 1.197778,-1.674697 0.427322,-0.550457 0.872512,-1.088297 1.345788,-1.599779 0.484122,-0.523203 0.987242,-1.031222 1.52486,-1.499279 0.555254,-0.483414 1.13336,-0.945331 1.750529,-1.346701 0.644663,-0.41925 1.316988,-0.806431 2.027362,-1.100933 0.744503,-0.308645 1.522223,-0.559703 2.317897,-0.687969 0.821212,-0.132386 1.667124,-0.166008 2.49423,-0.07766 0.822293,0.08786 1.635407,0.302935 2.407434,0.599346 0.742407,0.285037 1.443103,0.681647 2.105934,1.121033 0.63054,0.417971 1.21011,0.91287 1.76241,1.429842 0.52877,0.494972 1.01338,1.037198 1.47735,1.593384 0.43019,0.515702 0.76531,1.107392 1.20783,1.61257 0.0542,0.06188 0.10918,0.125168 0.17633,0.172677 0.0673,0.04751 0.14326,0.08433 0.22201,0.108723 0.0785,0.0243 0.16181,0.03654 0.24394,0.03563 0.0825,-0.0011 0.16583,-0.01562 0.24395,-0.04203 0.0778,-0.02631 0.15248,-0.06514 0.21835,-0.114204 0.0661,-0.04927 0.12517,-0.10982 0.17268,-0.177246 0.0474,-0.06735 0.0843,-0.143258 0.10872,-0.222014 0.0243,-0.0785 0.0365,-0.161805 0.0356,-0.243941 -9.2e-4,-0.08246 -0.0147,-0.165825 -0.0411,-0.243941 -0.0264,-0.07794 -0.0711,-0.148832 -0.11512,-0.218359 -0.37403,-0.590649 -0.81079,-1.140896 -1.25899,-1.677438 -0.50578,-0.605477 -1.03341,-1.196326 -1.60983,-1.734998 -0.61655,-0.576167 -1.26405,-1.127072 -1.96797,-1.592469 -0.75961,-0.502209 -1.562409,-0.955574 -2.412918,-1.28092 -0.900778,-0.344578 -1.849515,-0.593097 -2.808521,-0.695278 -0.967084,-0.10304 -1.956008,-0.06517 -2.91633,0.08862 -0.917159,0.146876 -1.813876,0.434827 -2.672389,0.789383 -0.799533,0.330197 -1.556702,0.764239 -2.282266,1.235237 -0.678915,0.440721 -1.314353,0.94884 -1.925033,1.480093 -0.580374,0.504885 -1.123782,1.052656 -1.646375,1.617138 -0.504246,0.544664 -0.978156,1.117771 -1.433497,1.703933 -0.444423,0.572111 -0.863553,1.164184 -1.265387,1.766975 -0.395601,0.593434 -0.769416,1.201679 -1.126515,1.819051 -0.353543,0.611224 -0.687433,1.234068 -1.005001,1.864734 -0.316048,0.627641 -0.614412,1.264477 -0.895365,1.908587 -0.281157,0.64459 -0.545339,1.2969 -0.790296,1.9561 -0.246265,0.66271 -0.475543,1.33215 -0.682487,2.00817 -0.209854,0.68553 -0.40261,1.37691 -0.566455,2.07487 -0.168054,0.71589 -0.316706,1.43733 -0.426669,2.16441 -0.110642,0.73159 -0.184573,1.46909 -0.233891,2.20735 -0.04741,0.7098 -0.05637,1.42195 -0.05939,2.13334 -0.003,0.6957 0.0083,1.39177 0.0402,2.08674 0.0324,0.70614 0.07998,1.41203 0.153491,2.11508 0.07503,0.71751 0.16818,1.43381 0.293277,2.1443 0.128367,0.72907 0.278822,1.4553 0.468696,2.1708 0.196206,0.73936 0.419602,1.47321 0.691624,2.18817 0.282763,0.74318 0.599543,1.47618 0.974851,2.17719 0.391066,0.73046 0.826061,1.44155 1.324774,2.1032 0.516686,0.68549 1.087381,1.33577 1.716724,1.91955 0.64031,0.59394 1.338223,1.13182 2.078525,1.59521 0.734929,0.46002 1.519582,0.8458 2.326121,1.16397 0.783178,0.30896 1.598877,0.53964 2.422052,0.71629 0.790643,0.16968 1.597234,0.26889 2.40378,0.32709 0.786453,0.0567 1.577958,0.0617 2.365406,0.021 0.798826,-0.0413 1.598203,-0.12226 2.384594,-0.26861 0.817637,-0.15216 1.630006,-0.35328 2.413829,-0.63132 0.813488,-0.28856 1.610007,-0.6393 2.358101,-1.06987 0.76881,-0.4425 1.50203,-0.95725 2.16806,-1.54314 0.67217,-0.59128 1.2868,-1.25521 1.82362,-1.97162 0.53306,-0.71139 0.99068,-1.48402 1.37046,-2.28775 0.37359,-0.79065 0.66534,-1.62343 0.88257,-2.47048 0.21362,-0.83296 0.34673,-1.68951 0.4084,-2.54722 0.0611,-0.84942 0.0466,-1.70727 -0.0393,-2.55453 -0.0861,-0.84858 -0.24312,-1.69354 -0.47509,-2.51433 -0.23676,-0.8377 -0.5402,-1.662 -0.93008,-2.44032 -0.41013,-0.81871 -0.88813,-1.61362 -1.47004,-2.32064 -0.61865,-0.75166 -1.32468,-1.44755 -2.12056,-2.00817 -0.82821,-0.58339 -1.73657,-1.09622 -2.710759,-1.37411 -1.821813,-0.51969 -3.769504,-0.57476 -5.66216,-0.49154 -1.088404,0.0479 -2.208693,0.15907 -3.218744,0.56737 -1.181789,0.47773 -2.37028,1.14664 -3.169407,2.13974 -0.495327,0.61556 -0.824844,1.41429 -0.875265,2.20278 -0.05041,0.78837 0.218561,1.59741 0.587469,2.29596 0.186729,0.35358 0.465269,0.67052 0.792123,0.90085 0.645846,0.45513 1.412823,0.86024 2.20278,0.87526 1.310418,0.0249 2.39799,-1.23926 3.706626,-1.31197 1.547273,-0.086 3.318055,0.0872 4.527418,1.05617 0.573809,0.45975 0.845215,1.58564 0.957496,1.98716 0.150662,0.53876 0.320462,1.40703 0.247596,2.44306 -0.0691,0.98158 -0.324509,1.75244 -0.578333,2.29323 -0.158583,0.33787 -0.349401,0.66311 -0.572854,0.96206 -0.219857,0.29414 -0.472133,0.56649 -0.748269,0.80857 -0.282427,0.2476 -0.593727,0.46451 -0.920033,0.65051 -0.347248,0.19793 -0.717167,0.35799 -1.094537,0.48971 -0.40755,0.14225 -0.829741,0.24431 -1.254424,0.3216 -0.456345,0.0831 -0.919992,0.12828 -1.383247,0.15166 -0.475111,0.024 -0.952548,0.0214 -1.427101,-0.0119 -0.453852,-0.0318 -0.907824,-0.0857 -1.353097,-0.17908 -0.412406,-0.0865 -0.821603,-0.19874 -1.214224,-0.35175 -0.368521,-0.14361 -0.727119,-0.31853 -1.06256,-0.52808 -0.330064,-0.2062 -0.640835,-0.44636 -0.925515,-0.71172 -0.296041,-0.27596 -0.56367,-0.58389 -0.805828,-0.90816 -0.260204,-0.34843 -0.486069,-0.72313 -0.689796,-1.10733 -0.219657,-0.41423 -0.405493,-0.84681 -0.571023,-1.28548 -0.176217,-0.467 -0.3207,-0.94621 -0.447682,-1.42893 -0.133269,-0.50661 -0.23877,-1.02071 -0.32891,-1.53674 -0.09344,-0.53497 -0.163121,-1.07424 -0.219273,-1.6144 -0.05765,-0.55456 -0.09526,-1.11133 -0.1206,-1.6683 -0.02586,-0.5684 -0.03399,-1.13769 -0.03198,-1.70667 0.002,-0.55294 0.007,-1.10649 0.04294,-1.65825 0.03407,-0.52311 0.08503,-1.04583 0.163541,-1.56415 0.0792,-0.52285 0.188207,-1.04125 0.309723,-1.55592 0.125884,-0.53317 0.273384,-1.0614 0.433977,-1.58516 0.163322,-0.53266 0.343999,-1.0602 0.538133,-1.58242 0.195718,-0.52649 0.406737,-1.04749 0.631323,-1.56232 0.224489,-0.51461 0.462851,-1.02341 0.715378,-1.52486 0.251158,-0.49873 0.515455,-0.99114 0.794865,-1.47461 0.275897,-0.47739 0.564302,-0.94798 0.869782,-1.407005 0.299096,-0.449427 0.611363,-0.890677 0.94196,-1.317465 0.319712,-0.412735 0.652083,-0.816627 1.005915,-1.200519 0.335249,-0.363728 0.684242,-0.716328 1.056165,-1.04246 0.34169,-0.299627 0.697182,-0.586245 1.076264,-0.836892 0.331945,-0.219474 0.677589,-0.423452 1.043374,-0.580159 0.30582,-0.131025 0.625018,-0.240653 0.952924,-0.296933 0.28415,-0.04879 0.577682,-0.06405 0.864301,-0.03289 0.294395,0.03202 0.584608,0.114297 0.859732,0.223842 0.326843,0.130138 0.633542,0.311294 0.924601,0.508896 0.346872,0.235499 0.666,0.51192 0.970283,0.800346 0.344615,0.326653 0.663667,0.68098 0.963887,1.048855 0.231127,0.283209 0.584595,0.809492 0.642309,0.888861 0.05774,0.07937 0.250054,0.462837 0.394326,0.359003 0.14331,-0.10313 -0.0529,-0.271292 -0.213709,-0.484629 -0.161239,-0.235006 -0.467919,-0.688252 -0.649322,-0.907589 -0.308523,-0.373041 -0.631645,-0.736026 -0.983077,-1.068956 -0.313482,-0.296978 -0.642108,-0.581777 -0.999519,-0.824101 -0.304821,-0.206664 -0.626081,-0.396061 -0.968456,-0.531737 -0.293564,-0.116333 -0.603356,-0.202617 -0.917292,-0.236632 -0.306308,-0.03316 -0.619981,-0.01809 -0.923687,0.03381 -0.345526,0.05902 -0.681759,0.174715 -1.004087,0.312464 -0.378441,0.161723 -0.73646,0.371695 -1.07992,0.598432 -0.387957,0.256111 -0.751427,0.549571 -1.100932,0.856078 -0.378058,0.33155 -0.732632,0.690162 -1.073524,1.05982 -0.358163,0.388387 -0.695109,0.7966 -1.018706,1.214224 -0.334023,0.431081 -0.648934,0.877192 -0.951096,1.331169 -0.308172,0.463007 -0.599595,0.937387 -0.878006,1.418877 -0.281767,0.4873 -0.548092,0.98374 -0.80126,1.48649 -0.254475,0.50535 -0.49475,1.01807 -0.720859,1.53674 -0.226,0.5184 -0.438,1.04316 -0.634978,1.57328 -0.195633,0.52649 -0.378034,1.05822 -0.542701,1.59521 -0.161997,0.52828 -0.310673,1.06109 -0.437632,1.59887 -0.122931,0.52071 -0.233123,1.04522 -0.313378,1.57419 -0.07961,0.52468 -0.131729,1.05378 -0.166282,1.58334 -0.0363,0.55632 -0.04098,1.11445 -0.04294,1.67195 -0.002,0.57264 0.006,1.14559 0.03198,1.71764 0.02549,0.56155 0.0633,1.1229 0.121514,1.68201 0.05678,0.54538 0.127455,1.08981 0.222013,1.62993 0.09142,0.52218 0.198484,1.04237 0.333478,1.55501 0.129139,0.49041 0.275991,0.97728 0.454991,1.45177 0.16877,0.44737 0.357909,0.88867 0.581987,1.31107 0.209259,0.39445 0.441821,0.77878 0.708983,1.13656 0.250029,0.33484 0.525725,0.65338 0.83141,0.93831 0.295197,0.27516 0.617946,0.52355 0.960232,0.7373 0.347373,0.21694 0.718494,0.39839 1.10002,0.54727 0.404128,0.1577 0.825296,0.27362 1.249856,0.36271 0.455469,0.0956 0.919901,0.15032 1.38416,0.18273 0.483372,0.0337 0.969662,0.0363 1.453597,0.0119 0.473335,-0.0238 0.947116,-0.0695 1.413397,-0.15441 0.436465,-0.0794 0.870361,-0.18434 1.289142,-0.33073 0.390037,-0.13634 0.772244,-0.30224 1.131083,-0.50707 0.33926,-0.19365 0.662914,-0.41941 0.956578,-0.67701 0.287568,-0.25225 0.550192,-0.53606 0.779333,-0.84237 0.232832,-0.31124 0.432282,-0.64952 0.597522,-1.00135 0.402771,-0.85761 0.552296,-1.72085 0.598433,-2.37271 0.07386,-1.04301 -0.08985,-1.93025 -0.254905,-2.52073 -0.125459,-0.44879 -0.404419,-1.58746 -1.000437,-2.06847 -1.25496,-1.0128 -3.091429,-1.2229 -4.701923,-1.13931 -1.304306,0.0677 -2.386165,1.33584 -3.692008,1.31196 -0.743377,-0.0136 -1.465112,-0.39516 -2.073043,-0.82319 -0.307882,-0.21677 -0.570593,-0.5149 -0.746441,-0.84786 -0.347299,-0.65758 -0.599417,-1.41952 -0.551837,-2.16166 0.04757,-0.74198 0.356852,-1.49397 0.823187,-2.07305 0.775714,-0.96325 1.930185,-1.61033 3.07713,-2.07304 0.985027,-0.39738 2.07722,-0.50486 3.138344,-0.55184 1.86895,-0.0827 3.792667,-0.0331 5.591809,0.47966 0.952518,0.27146 1.839938,0.77434 2.649548,1.34488 0.77922,0.54912 1.47096,1.23008 2.0767,1.96614 0.57124,0.69414 1.04018,1.47477 1.44263,2.27861 0.38341,0.76583 0.68157,1.57691 0.91455,2.40105 0.2285,0.80829 0.38386,1.64027 0.4687,2.47595 0.0847,0.83453 0.0986,1.67951 0.0384,2.51616 -0.0607,0.84416 -0.19173,1.6872 -0.402,2.50702 -0.21364,0.83295 -0.50055,1.65188 -0.86795,2.42936 -0.37345,0.79026 -0.82355,1.54987 -1.34762,2.24938 -0.52748,0.70404 -1.13119,1.35669 -1.79164,1.93782 -0.65448,0.57588 -1.37497,1.08192 -2.1306,1.51664 -0.736734,0.42384 -1.52137,0.76855 -2.322474,1.05251 -0.772607,0.27386 -1.573227,0.47229 -2.379112,0.62219 -0.776748,0.14448 -1.566334,0.22427 -2.355357,0.26495 -0.778026,0.0401 -1.560045,0.0351 -2.337084,-0.021 -0.796108,-0.0575 -1.59225,-0.1553 -2.372716,-0.32252 -0.810999,-0.17375 -1.614804,-0.40024 -2.38642,-0.70441 -0.79395,-0.31298 -1.566218,-0.69287 -2.289575,-1.1457 -0.728298,-0.45593 -1.414911,-0.98514 -2.044721,-1.56963 -0.619414,-0.57484 -1.180775,-1.2154 -1.689315,-1.89032 -0.49169,-0.65254 -0.920843,-1.35364 -1.306501,-2.07395 -0.370754,-0.69248 -0.683668,-1.41656 -0.962974,-2.1507 -0.269164,-0.70749 -0.490274,-1.43366 -0.684314,-2.16533 -0.188155,-0.70947 -0.336899,-1.42964 -0.464128,-2.15252 -0.124145,-0.70538 -0.21675,-1.41647 -0.29145,-2.12878 -0.07326,-0.69849 -0.121253,-1.39978 -0.153491,-2.10137 -0.03177,-0.69132 -0.04228,-1.38374 -0.03929,-2.07578 0.003,-0.70681 0.01142,-1.41439 0.05847,-2.11964 0.04883,-0.73185 0.122386,-1.46293 0.232064,-2.18816 0.109075,-0.72124 0.256253,-1.43692 0.423014,-2.14705 0.162686,-0.69277 0.354493,-1.37889 0.562801,-2.05934 0.205712,-0.67197 0.433175,-1.33753 0.677918,-1.99629 0.243435,-0.65524 0.506281,-1.30352 0.785729,-1.94422 0.279305,-0.64038 0.575597,-1.273668 0.889882,-1.897627 0.315687,-0.626737 0.648145,-1.245407 0.999519,-1.852857 0.354703,-0.613196 0.725459,-1.217677 1.118292,-1.807174 0.398828,-0.598497 0.815088,-1.186175 1.256252,-1.754184 0.451322,-0.581091 0.920877,-1.149383 1.420706,-1.689315 0.517013,-0.558497 1.054773,-1.100312 1.629015,-1.599779 0.602865,-0.524364 1.230215,-1.025814 1.900365,-1.460906 0.713994,-0.463552 1.458949,-0.890997 2.245721,-1.216051 0.84234,-0.348014 1.722234,-0.630455 2.622139,-0.774764 0.940144,-0.15076 1.908326,-0.188639 2.855116,-0.08771 0.939758,0.100172 1.869218,0.344707 2.751876,0.682487 0.83494,0.319518 1.623353,0.764084 2.369063,1.257165 0.69358,0.45861 1.33134,1.001776 1.93874,1.569629 0.56953,0.532468 1.0909,1.116437 1.59064,1.714897 0.44561,0.533628 0.87999,1.080787 1.25168,1.668302 0.0314,0.0497 0.0634,0.100473 0.0822,0.156232 0.0188,0.05555 0.0285,0.114917 0.0292,0.173591 7.7e-4,0.05875 -0.007,0.118398 -0.0247,0.174505 -0.0174,0.05619 -0.0446,0.110038 -0.0786,0.158059 -0.0341,0.04815 -0.0761,0.09159 -0.12334,0.126996 -0.0469,0.03517 -0.0998,0.06341 -0.15532,0.08223 -0.0558,0.01891 -0.11553,0.0285 -0.17451,0.02924 -0.0587,7.49e-4 -0.1184,-0.0073 -0.1745,-0.02467 -0.0562,-0.01745 -0.1101,-0.04449 -0.15806,-0.07857 -0.048,-0.03408 -0.0874,-0.07912 -0.12608,-0.123341 -0.44517,-0.507717 -0.78259,-1.102294 -1.21514,-1.620792 -0.46993,-0.563294 -0.96003,-1.11313 -1.49563,-1.614397 -0.56153,-0.525543 -1.15143,-1.02787 -1.79255,-1.452684 -0.676786,-0.448431 -1.391807,-0.853958 -2.149792,-1.144787 -0.790436,-0.303282 -1.623153,-0.52229 -2.464993,-0.612137 -0.846799,-0.09036 -1.712823,-0.05674 -2.553616,0.07857 -0.813223,0.130851 -1.608101,0.387327 -2.369062,0.702587 -0.723152,0.2996 -1.407674,0.693423 -2.063906,1.120119 -0.625937,0.406998 -1.212055,0.875667 -1.775198,1.365888 -0.54366,0.473255 -1.052658,0.986701 -1.542219,1.515724 -0.477858,0.516379 -0.927146,1.059554 -1.358579,1.615311 -0.424333,0.546611 -0.824197,1.112499 -1.207828,1.688401 -0.379471,0.569662 -0.738059,1.153495 -1.080833,1.745961 -0.340508,0.588547 -0.66257,1.188039 -0.968456,1.795297 -0.304915,0.605344 -0.592476,1.219674 -0.863387,1.840984 -0.27109,0.62171 -0.525646,1.25092 -0.761974,1.88666 -0.237185,0.63804 -0.458459,1.2824 -0.657818,1.93325 -0.201186,0.65682 -0.385568,1.31935 -0.542701,1.98808 -0.159915,0.68056 -0.301983,1.36628 -0.406569,2.05751 -0.104959,0.6937 -0.174526,1.39309 -0.2211,2.09314 -0.04538,0.68215 -0.05385,1.36654 -0.05665,2.0502 -0.0027,0.67317 0.0083,1.34667 0.03929,2.01914 0.0313,0.6799 0.07719,1.35956 0.148009,2.0365 0.07179,0.68632 0.161041,1.37146 0.280487,2.05111 0.121487,0.69127 0.263417,1.37996 0.443114,2.05843 0.183892,0.6943 0.393455,1.3834 0.648683,2.05477 0.262023,0.68923 0.55574,1.36897 0.903587,2.01913 0.358179,0.66948 0.756557,1.32125 1.21331,1.92778 0.46801,0.62147 0.984795,1.21122 1.555011,1.74048 0.577714,0.53621 1.207534,1.02175 1.875697,1.43989 0.664433,0.41581 1.37396,0.76422 2.103193,1.0516 0.714358,0.28151 1.458363,0.4916 2.209175,0.65233 0.729661,0.15622 1.474034,0.24713 2.218311,0.30059 0.731186,0.0525 1.467027,0.0569 2.199125,0.0192 0.739719,-0.0381 1.479992,-0.11247 2.208261,-0.2476 0.748281,-0.13884 1.491782,-0.32244 2.209175,-0.5765 0.736561,-0.26086 1.457767,-0.57808 2.135174,-0.96755 0.690679,-0.3971 1.349619,-0.85892 1.947879,-1.38507 0.60232,-0.52974 1.15271,-1.12495 1.63358,-1.76697 0.47835,-0.63868 0.88897,-1.33233 1.22975,-2.05386 0.33684,-0.71319 0.59989,-1.46434 0.79578,-2.22836 0.1935,-0.75469 0.31427,-1.53074 0.37003,-2.30785 0.0554,-0.77227 0.0417,-1.55217 -0.0365,-2.32247 -0.0783,-0.77085 -0.22074,-1.53842 -0.43124,-2.28409 -0.21353,-0.75641 -0.48714,-1.50074 -0.83872,-2.20369 -0.36475,-0.72929 -0.78977,-1.43752 -1.30741,-2.06756 -0.54099,-0.65846 -1.15837,-1.26833 -1.85468,-1.75966 -0.71723,-0.50609 -1.49368,-0.99081 -2.348051,-1.1923 -2.587866,-0.61031 -5.434014,-0.72533 -7.976403,0.053 -1.000283,0.30623 -1.95389,0.92647 -2.612089,1.73956 -0.321596,0.39727 -0.532854,0.9152 -0.565541,1.42528 -0.0327,0.51031 0.105637,1.05443 0.379162,1.48648 0.273505,0.43202 0.706065,0.78991 1.181333,0.97851 0.475113,0.18853 1.033062,0.21597 1.530343,0.0977 0.699457,-0.16636 1.165796,-0.90534 1.860165,-1.0918 1.500768,-0.40301 3.152403,-0.34139 4.661723,0.0283 0.371086,0.0909 0.708933,0.30117 1.019619,0.52352 0.332251,0.23779 0.62497,0.53364 0.881664,0.85151 0.280657,0.34754 0.509595,0.73773 0.707155,1.13839 0.21085,0.42762 0.3756,0.8794 0.50432,1.33848 0.13178,0.46999 0.22215,0.95335 0.27135,1.43898 0.0493,0.48666 0.0575,0.97937 0.0229,1.4673 -0.0343,0.48259 -0.10812,0.96464 -0.2275,1.4335 -0.11699,0.45945 -0.27412,0.91133 -0.47601,1.3403 -0.19774,0.42016 -0.436281,0.82412 -0.714456,1.19595 -0.275763,0.3686 -0.591465,0.71043 -0.937396,1.01414 -0.350008,0.30729 -0.735863,0.5765 -1.140219,0.80766 -0.417982,0.23894 -0.863152,0.43265 -1.317465,0.59203 -0.473963,0.16627 -0.965007,0.28596 -1.459079,0.37642 -0.51445,0.0942 -1.037244,0.14534 -1.559578,0.17176 -0.530166,0.0268 -1.062943,0.0237 -1.59247,-0.0137 -0.51609,-0.0364 -1.032328,-0.0979 -1.538565,-0.20465 -0.484808,-0.10225 -0.965644,-0.23529 -1.427102,-0.41571 -0.446121,-0.17442 -0.880212,-0.38658 -1.286401,-0.64046 -0.402589,-0.25163 -0.781784,-0.54445 -1.129256,-0.86796 -0.354602,-0.33015 -0.675294,-0.6985 -0.965714,-1.08631 -0.302291,-0.40366 -0.565341,-0.83751 -0.802174,-1.28275 -0.247202,-0.46473 -0.456119,-0.95026 -0.642287,-1.44263 -0.193154,-0.51084 -0.351456,-1.03512 -0.490623,-1.56323 -0.143259,-0.54364 -0.256579,-1.09535 -0.353578,-1.64912 -0.09911,-0.56585 -0.17344,-1.13621 -0.232977,-1.70759 -0.0605,-0.58066 -0.09965,-1.16366 -0.126082,-1.74687 -0.02677,-0.59062 -0.03516,-1.18215 -0.03289,-1.77337 0.0022,-0.58127 0.0078,-1.16318 0.04568,-1.74322 0.03663,-0.561 0.09128,-1.12157 0.175418,-1.67743 0.08462,-0.55907 0.200982,-1.1134 0.330737,-1.66374 0.132514,-0.56204 0.287676,-1.11891 0.456819,-1.67104 0.171007,-0.55821 0.360223,-1.11105 0.563714,-1.65825 0.204391,-0.54963 0.425112,-1.09339 0.659646,-1.63084 0.234633,-0.53769 0.483565,-1.06939 0.747355,-1.59339 0.262728,-0.52189 0.538966,-1.0373 0.83141,-1.54313 0.290225,-0.50199 0.594106,-0.996524 0.915465,-1.47918 0.317224,-0.476443 0.647942,-0.944545 0.998605,-1.396951 0.343659,-0.443361 0.701376,-0.876845 1.081747,-1.289142 0.368419,-0.399342 0.751472,-0.786944 1.160319,-1.144788 0.38908,-0.34054 0.794015,-0.666188 1.226101,-0.950183 0.401288,-0.263758 0.819425,-0.508302 1.261733,-0.695278 0.403564,-0.170603 0.82502,-0.311486 1.257165,-0.383727 0.403355,-0.06743 0.819506,-0.0868 1.226101,-0.04294 0.41155,0.0444 0.817889,0.155885 1.203261,0.306982 0.419439,0.164455 0.813955,0.393494 1.187728,0.645028 0.409856,0.275809 0.786529,0.600945 1.145701,0.940133 0.385632,0.364175 0.741055,0.760807 1.078097,1.170369 0.19854,0.241256 0.2764,0.455616 0.55431,0.755866 0.27791,0.30025 0.60037,0.417349 0.8229,0.238372 0.23273,-0.187175 0.26,-0.511112 -0.0589,-0.894039 -0.31888,-0.382927 -0.41587,-0.451843 -0.62396,-0.677618 -0.38444,-0.417105 -0.74097,-0.86188 -1.153917,-1.250769 -0.396272,-0.373175 -0.812203,-0.730435 -1.264478,-1.033324 -0.428763,-0.287147 -0.881406,-0.548146 -1.362233,-0.735478 -0.458989,-0.178826 -0.942814,-0.309997 -1.432583,-0.362714 -0.486569,-0.05235 -0.984486,-0.03051 -1.467302,0.04934 -0.501391,0.08294 -0.99058,0.245266 -1.459078,0.442201 -0.493413,0.207405 -0.960248,0.478654 -1.407915,0.772023 -0.467368,0.306279 -0.905028,0.658203 -1.325688,1.026015 -0.433346,0.378904 -0.839244,0.789483 -1.229756,1.212397 -0.397988,0.431008 -0.772423,0.884072 -1.131996,1.347615 -0.364198,0.4695 -0.707658,0.955354 -1.036979,1.449942 -0.332049,0.498691 -0.645668,1.00988 -0.945614,1.528518 -0.301254,0.52089 -0.586289,1.0514 -0.856992,1.58881 -0.271332,0.53865 -0.527351,1.08527 -0.768369,1.63815 -0.240952,0.55274 -0.467014,1.11222 -0.677005,1.67744 -0.209494,0.56388 -0.404866,1.13335 -0.581074,1.7085 -0.174974,0.57113 -0.335382,1.14719 -0.47235,1.7286 -0.135201,0.57392 -0.256083,1.15204 -0.344441,1.735 -0.08807,0.58102 -0.146009,1.16688 -0.184555,1.75327 -0.03938,0.59857 -0.04513,1.19909 -0.04751,1.79895 -0.0024,0.60614 0.0062,1.21262 0.0338,1.81814 0.02737,0.60091 0.06823,1.20158 0.130651,1.79987 0.06178,0.59214 0.138427,1.1833 0.2412,1.76971 0.101411,0.57866 0.220056,1.15512 0.370023,1.72312 0.147431,0.5584 0.315461,1.11262 0.51986,1.65277 0.199856,0.52815 0.423484,1.04926 0.688882,1.5477 0.258772,0.48601 0.546707,0.95924 0.877092,1.3997 0.322942,0.43053 0.679441,0.83946 1.073524,1.206 0.389156,0.36195 0.813846,0.68943 1.264474,0.97119 0.45303,0.28327 0.936937,0.52045 1.43441,0.71538 0.507516,0.19887 1.036382,0.34565 1.569629,0.45865 0.546789,0.11587 1.104383,0.18327 1.661906,0.22293 0.566265,0.0403 1.136064,0.0436 1.70302,0.0146 0.562157,-0.0287 1.124754,-0.0845 1.678352,-0.18638 0.540198,-0.0994 1.077025,-0.23081 1.59521,-0.41296 0.505646,-0.17774 1.001296,-0.39327 1.466388,-0.65965 0.456388,-0.26139 0.891291,-0.5665 1.286405,-0.91364 0.392435,-0.34479 0.751359,-0.73205 1.064389,-1.15026 0.31459,-0.42031 0.58396,-0.87721 0.80766,-1.35219 0.22642,-0.48077 0.40298,-0.98711 0.53447,-1.50202 0.13299,-0.52082 0.2158,-1.0563 0.25399,-1.59247 0.0385,-0.53956 0.0291,-1.08444 -0.0256,-1.62262 -0.0545,-0.53743 -0.1544,-1.07242 -0.30058,-1.59247 -0.14425,-0.5131 -0.32895,-1.01802 -0.56555,-1.49562 -0.22811,-0.46046 -0.49286,-0.90851 -0.81679,-1.30742 -0.308212,-0.37956 -0.659857,-0.73215 -1.057991,-1.01596 -0.384523,-0.27411 -0.801918,-0.53461 -1.260823,-0.64595 -1.705433,-0.41379 -3.573253,-0.4813 -5.264723,-0.0137 -0.660627,0.18263 -1.095598,0.89837 -1.761493,1.06074 -0.316045,0.0771 -0.671612,0.058 -0.973937,-0.0621 -0.302302,-0.12009 -0.577004,-0.34827 -0.75101,-0.6231 -0.174055,-0.2749 -0.262918,-0.6209 -0.242119,-0.94561 0.0208,-0.3248 0.15524,-0.65498 0.360887,-0.90724 0.56441,-0.69233 1.384237,-1.21358 2.239325,-1.47187 2.35284,-0.71069 4.9817,-0.60472 7.373398,-0.0384 0.766582,0.18152 1.463396,0.61628 2.106846,1.07078 0.63026,0.44518 1.189,0.99769 1.67835,1.5943 0.47454,0.57855 0.86361,1.22904 1.19778,1.89854 0.3259,0.65294 0.57935,1.3442 0.77751,2.04655 0.19626,0.69563 0.33,1.41149 0.40291,2.1306 0.0728,0.71847 0.0846,1.44592 0.0329,2.16623 -0.052,0.72353 -0.16368,1.44613 -0.34353,2.14888 -0.18141,0.70885 -0.42492,1.40589 -0.7373,2.06756 -0.31478,0.66674 -0.69455,1.30749 -1.13657,1.89762 -0.44354,0.59217 -0.951,1.14135 -1.50658,1.62993 -0.55303,0.48634 -1.1622,0.91318 -1.800779,1.28001 -0.630421,0.36213 -1.301771,0.65654 -1.987165,0.89902 -0.673255,0.23818 -1.370866,0.41067 -2.073043,0.54087 -0.689099,0.12778 -1.389566,0.19789 -2.089488,0.23389 -0.695604,0.0357 -1.394749,0.0315 -2.089489,-0.0183 -0.702873,-0.0503 -1.405857,-0.13594 -2.09497,-0.28323 -0.702345,-0.15011 -1.398377,-0.34627 -2.066647,-0.6094 -0.67761,-0.26681 -1.336931,-0.59037 -1.954271,-0.97667 -0.619741,-0.38782 -1.203817,-0.83829 -1.739565,-1.33574 -0.531402,-0.49341 -1.013059,-1.04317 -1.449029,-1.62262 -0.428399,-0.5694 -0.801664,-1.18145 -1.137478,-1.80992 -0.329522,-0.61668 -0.607708,-1.26137 -0.856078,-1.91498 -0.24391,-0.64187 -0.444457,-1.30058 -0.62036,-1.96432 -0.173341,-0.65407 -0.310499,-1.31798 -0.427582,-1.98442 -0.115783,-0.65904 -0.201804,-1.32348 -0.27135,-1.98899 -0.0689,-0.65933 -0.113995,-1.32128 -0.144355,-1.98351 -0.03015,-0.65755 -0.04029,-1.31613 -0.03746,-1.97437 0.0028,-0.66506 0.01075,-1.33086 0.05482,-1.99447 0.0448,-0.67468 0.111696,-1.34875 0.212878,-2.01731 0.100993,-0.66731 0.238394,-1.32925 0.392864,-1.98625 0.152675,-0.64935 0.331953,-1.29265 0.527168,-1.93051 0.193992,-0.63386 0.408664,-1.26163 0.639546,-1.88301 0.230421,-0.62013 0.479205,-1.23368 0.743701,-1.84006 0.264397,-0.60616 0.54488,-1.2056 0.842374,-1.79621 0.298094,-0.591812 0.611969,-1.176038 0.943787,-1.749619 0.333228,-0.576021 0.681723,-1.143728 1.050683,-1.697538 0.371669,-0.557885 0.759373,-1.10583 1.170369,-1.635411 0.415338,-0.535172 0.847471,-1.058567 1.307415,-1.555924 0.46745,-0.505479 0.953605,-0.995938 1.472783,-1.448115 0.531553,-0.462958 1.084841,-0.905515 1.675611,-1.290056 0.609784,-0.396911 1.245777,-0.763417 1.917725,-1.04246 0.696069,-0.289057 1.423102,-0.524766 2.167147,-0.645028 0.761301,-0.123067 1.545593,-0.154039 2.312416,-0.07218 0.763617,0.08152 1.518861,0.280834 2.235671,0.556405 0.69626,0.267668 1.352954,0.640788 1.974371,1.053424 0.59914,0.397843 1.14992,0.868604 1.6747,1.360405 0.50821,0.476289 0.97385,0.99804 1.41979,1.533084 0.42233,0.506721 0.75078,1.088462 1.1859,1.584247 0.101,0.115091 0.20389,0.232246 0.32891,0.320687 0.12476,0.08823 0.26519,0.157511 0.41114,0.202827 0.14605,0.04532 0.30114,0.06761 0.45407,0.06578 0.15295,-0.002 0.30742,-0.02841 0.45225,-0.07766 0.14472,-0.04917 0.28319,-0.122318 0.40566,-0.213791 0.12267,-0.09164 0.23225,-0.203888 0.32069,-0.32891 0.0883,-0.124766 0.15751,-0.265192 0.20282,-0.411137 0.0453,-0.146063 0.0676,-0.301153 0.0658,-0.454077 -0.002,-0.152943 -0.0284,-0.30743 -0.0777,-0.452251 -0.0492,-0.14472 -0.13203,-0.27654 -0.2138,-0.405655 -0.3804,-0.60046 -0.82509,-1.159433 -1.28092,-1.704847 -0.52375,-0.626691 -1.06971,-1.2386 -1.66647,-1.796211 -0.64397,-0.601712 -1.32022,-1.177176 -2.05568,-1.66282 -0.80092,-0.528868 -1.64792,-1.005083 -2.544479,-1.347615 -0.956056,-0.365263 -1.962606,-0.629715 -2.980289,-0.738218 -1.027065,-0.109509 -2.077314,-0.06907 -3.09723,0.0941 -0.969146,0.155054 -1.916734,0.458993 -2.824053,0.833237 -0.837833,0.345584 -1.631504,0.799661 -2.391902,1.292797 -0.705376,0.457458 -1.365494,0.98512 -1.999952,1.536738 -0.598721,0.520545 -1.159323,1.085346 -1.698452,1.667388 -0.51774,0.558954 -1.004452,1.147035 -1.47187,1.748702 -0.454498,0.585038 -0.882853,1.190707 -1.29371,1.807174 -0.403268,0.605084 -0.784253,1.225307 -1.148442,1.854684 -0.360135,0.62237 -0.700768,1.256315 -1.024187,1.898538 -0.321773,0.638952 -0.625027,1.287506 -0.910897,1.943306 -0.285981,0.65606 -0.554613,1.32 -0.804001,1.99082 -0.250992,0.67514 -0.485324,1.3569 -0.696191,2.04563 -0.214211,0.69964 -0.410264,1.40546 -0.577419,2.11781 -0.172176,0.73376 -0.324958,1.47309 -0.437632,2.21831 -0.113449,0.75034 -0.188767,1.50681 -0.239373,2.264 -0.04838,0.72379 -0.05802,1.44996 -0.06121,2.17536 -0.0031,0.70697 0.0087,1.41432 0.04111,2.12056 0.03303,0.71924 0.08122,1.43826 0.156232,2.15436 0.0768,0.73313 0.172634,1.46495 0.300587,2.1909 0.131793,0.74774 0.285903,1.49264 0.480573,2.22653 0.202178,0.76219 0.432034,1.51883 0.712637,2.25577 0.293132,0.76985 0.622361,1.52875 1.011396,2.25486 0.407776,0.76109 0.86069,1.50237 1.380506,2.19181 0.540797,0.71727 1.138508,1.39731 1.797125,2.00818 0.671693,0.623 1.40351,1.18752 2.179938,1.67378 0.770135,0.48233 1.592291,0.88712 2.437584,1.22062 0.817681,0.32262 1.669479,0.56299 2.528948,0.74736 0.821315,0.17618 1.659168,0.2792 2.496971,0.33987 0.813781,0.0589 1.632808,0.065 2.447634,0.0228 0.828248,-0.0428 1.656999,-0.12756 2.472303,-0.27957 0.852298,-0.15891 1.699097,-0.36877 2.516157,-0.65873 0.852235,-0.30245 1.686688,-0.66996 2.470478,-1.12104 0.80762,-0.46481 1.57811,-1.00523 2.27769,-1.62079 0.70705,-0.62213 1.35297,-1.32119 1.91773,-2.07487 0.56042,-0.74791 1.04222,-1.55979 1.44172,-2.40469 0.3922,-0.82948 0.6984,-1.70325 0.92643,-2.59199 0.22366,-0.87179 0.36298,-1.76829 0.42758,-2.666 0.064,-0.8883 0.0488,-1.78543 -0.0411,-2.67147 -0.09,-0.88745 -0.25442,-1.77107 -0.49702,-2.62945 -0.2482,-0.87814 -0.56585,-1.74243 -0.97485,-2.55819 -0.4331,-0.86378 -0.93866,-1.70195 -1.55319,-2.44763 -0.65751,-0.79782 -1.40776,-1.53623 -2.25303,-2.13151 -0.88339,-0.62212 -1.85212,-1.16859 -2.890741,-1.46639 -1.889976,-0.54191 -3.910729,-0.60912 -5.875037,-0.52443 -1.16954,0.0504 -2.373439,0.17187 -3.458117,0.61214 -1.287487,0.52259 -2.580089,1.25623 -3.449895,2.33982 -0.581712,0.72469 -0.969486,1.66369 -1.028755,2.59108 -0.05928,0.92761 0.256722,1.87965 0.69071,2.70162 0.219641,0.416 0.547365,0.78885 0.93191,1.05982 0.759958,0.5355 1.662523,1.01005 2.591989,1.02967 1.324521,0.028 2.430597,-1.21947 3.752308,-1.31012 1.357375,-0.0931 2.928664,-0.0304 4.001163,0.80678 0.507268,0.39597 0.737929,1.41452 0.829582,1.74322 0.245676,0.88104 0.261642,1.67341 0.223839,2.211 -0.06387,0.90849 -0.303828,1.60144 -0.515292,2.05294 -0.139007,0.29681 -0.306313,0.58258 -0.5025,0.84512 -0.191827,0.25669 -0.41215,0.49423 -0.653251,0.70533 -0.248757,0.2178 -0.523019,0.40844 -0.810396,0.57193 -0.311635,0.1773 -0.643593,0.32055 -0.98216,0.43855 -0.374348,0.13047 -0.762033,0.22439 -1.152097,0.2951 -0.427409,0.0776 -0.861695,0.11896 -1.295538,0.1407 -0.447441,0.0224 -0.897033,0.02 -1.34396,-0.011 -0.422856,-0.0293 -0.845922,-0.0786 -1.260819,-0.16537 -0.37614,-0.0787 -0.749175,-0.18142 -1.107329,-0.32069 -0.330042,-0.12832 -0.651621,-0.28391 -0.95201,-0.47143 -0.293808,-0.18341 -0.569999,-0.39772 -0.823187,-0.63407 -0.266521,-0.24879 -0.507479,-0.52633 -0.725428,-0.81862 -0.23925,-0.32085 -0.446853,-0.66587 -0.634064,-1.01961 -0.205679,-0.38865 -0.379435,-0.79454 -0.534478,-1.20601 -0.167779,-0.44527 -0.305762,-0.90202 -0.426669,-1.36223 -0.128265,-0.48822 -0.229268,-0.98374 -0.316118,-1.48101 -0.09074,-0.51957 -0.159247,-1.04319 -0.213791,-1.5678 -0.0563,-0.54148 -0.0924,-1.08516 -0.116946,-1.62901 -0.02513,-0.55716 -0.03298,-1.11516 -0.03106,-1.67288 0.0018,-0.53891 0.0061,-1.07844 0.04111,-1.61622 0.03279,-0.50419 0.08238,-1.00794 0.158059,-1.5075 0.07651,-0.50502 0.181435,-1.00581 0.29876,-1.50293 0.122356,-0.51845 0.265934,-1.03203 0.4221,-1.54131 0.159467,-0.52004 0.335713,-1.03514 0.525342,-1.54496 0.191377,-0.51452 0.398163,-1.0235 0.617618,-1.52669 0.219548,-0.50339 0.451996,-1.00142 0.698933,-1.49197 0.245198,-0.48708 0.503587,-0.96782 0.776592,-1.43989 0.268926,-0.46501 0.5503,-0.92322 0.847855,-1.37045 0.29,-0.435882 0.592238,-0.864204 0.912724,-1.278182 0.307683,-0.397442 0.627912,-0.786075 0.968455,-1.155751 0.318806,-0.346077 0.650546,-0.681702 1.004088,-0.99221 0.317932,-0.279235 0.64873,-0.546337 1.001346,-0.780247 0.297102,-0.19709 0.606483,-0.380201 0.933737,-0.521687 0.257444,-0.111308 0.525905,-0.205568 0.802174,-0.253991 0.224265,-0.03929 0.456162,-0.05217 0.682487,-0.02741 0.235785,0.02583 0.467926,0.09328 0.687969,0.181814 0.280501,0.112898 0.543361,0.269824 0.793037,0.440373 0.315413,0.215454 0.605694,0.467764 0.882573,0.73091 0.324196,0.308115 0.622571,0.643593 0.907242,0.988555 0.352135,0.426715 0.623497,0.917393 0.987646,1.333911"
         id="path2-4"
         fill="none"
         stroke="black"
         sodipodi:nodetypes="caaaaaaaaaaaaaaaaaaaaaaaaaaaaaaaaaaaaaaaaaaaaaaaaaaaaaaaaaaaaaaaaaaaaaaaaaaaaaaaaaaaaaaaaaaaaaaaaaaaaaaaaaaaaaaaaaaaaaaaaaaaaaaaaaaaaaaaaaaaaaaaaaaaaaaaaaaaaaaaaaaaaaaaaaaaaaaaaaaaaaaaaaaaaaaaaaaaaaaaaaaaaaaaaaaaaszazaaaaaaaaaaaaaaaaaaaaaaaaaaaaaaaaaaaaaaaaaaaaaaaaaaaaaaaaaaaaaaaaaaaaaaaaaaaaaaaaaaaaaaaaaaaaaaaaaaaaaaaaaaaaaaaaaaaaaaaaaaaaaaaaaaaaaaaaaaaaaaaaaaaaaaaaaaaaaaaaaaaaaaaaaaaaaaaaaaaaaaaaaaaaaaaaaaaaaaaaaaaaaaaaaaaaazszsaaaaaaaaaaaaaaaaaaaaaaaaaaaaaaaaaaaaaaaaaaaaaaaaaaaaaaaaaaaaaaaaaaaaaaaaaaaaaaaaaaaaaaaaaaaaaaaaaaaaaaaaaaaaaaaaaaaaaaaaaaaaaaaaaaaaaaaaaaaaaaaaaaaaaaaaaaaaaaaaaaaaaaaaaaaaaaaaaaaaaaaaaaaaaaaaaaaaaaaaaaaaaaaaaaaazazaaaaaaaaaaaaaaaaaaaaaaaaaaaaaaaaaaaaaaaaaaaaaaaaaaaaaaaaaaaaaaaaaaaaaaaaaaaaaaaaaaaaaaaaaaaaaaaaaaaaaaaaaaaaaaaaaaaaaaaaaaaaaaaaaaaaaaaaaaaaaaaaaaaaaaaaaaaaaaaaaaaaaaaaaaaaaaaaaaaaaaaaaaaaaaaaaaaaaaaaaaaaaaaaaaaaac" />
    </g>
  </g>
</svg>
