<svg xmlns="http://www.w3.org/2000/svg" xmlns:ns1="http://www.inkscape.org/namespaces/inkscape" xmlns:ns2="http://sodipodi.sourceforge.net/DTD/sodipodi-0.dtd" width="21.699997mm" height="38.169449mm" viewBox="0 -1 21.699997 38.169449" version="1.1" id="svg1" ns1:version="1.4.3 (0d15f75042, 2025-12-25)" ns2:docname="zero.svg">
  <ns2:namedview id="namedview1" pagecolor="#ffffff" bordercolor="#666666" borderopacity="1.0" ns1:showpageshadow="2" ns1:pageopacity="0.0" ns1:pagecheckerboard="0" ns1:deskcolor="#d1d1d1" ns1:document-units="mm" ns1:zoom="3.6560606" ns1:cx="11.898052" ns1:cy="105.57812" ns1:window-width="1536" ns1:window-height="1416" ns1:window-x="10" ns1:window-y="10" ns1:window-maximized="0" ns1:current-layer="layer1" />
  <defs id="defs1" />
  <g ns1:label="Layer 1" ns1:groupmode="layer" id="layer1" transform="translate(-84.635413,-132.38941)">
    <path style="fill:none;stroke:#000000;stroke-width:0.227147px;stroke-linecap:butt;stroke-linejoin:miter;stroke-opacity:1" d="M 102.310,134.314 L 101.252,132.884 L 100.308,131.851 L 99.411,131.101 L 98.640,130.664 L 98.015,130.490 L 97.408,130.509 L 96.656,130.741 L 95.728,131.250 L 94.697,132.041 L 93.643,133.068 L 92.615,134.279 L 91.638,135.629 L 90.727,137.084 L 89.890,138.618 L 89.132,140.209 L 88.462,141.839 L 87.887,143.490 L 87.422,145.137 L 87.085,146.741 L 86.895,148.324 L 86.840,150.029 L 86.860,151.825 L 86.970,153.577 L 87.178,155.260 L 87.494,156.849 L 87.921,158.309 L 88.456,159.600 L 89.088,160.688 L 89.801,161.557 L 90.600,162.227 L 91.519,162.733 L 92.604,163.091 L 93.868,163.299 L 95.309,163.348 L 96.793,163.260 L 98.122,163.033 L 99.216,162.675 L 100.090,162.195 L 100.817,161.561 L 101.467,160.711 L 102.052,159.605 L 102.554,158.263 L 102.959,156.736 L 103.267,155.075 L 103.486,153.320 L 103.625,151.498 L 103.697,149.629 L 103.709,147.726 L 103.670,145.798 L 103.588,143.852 L 103.466,141.892 L 103.308,139.883 L 103.442,138.189 L 104.092,136.618 L 105.196,135.326 L 106.645,134.438 L 108.298,134.042 L 109.992,134.175 L 111.562,134.826 L 112.855,135.930 L 113.742,137.379 L 114.139,139.032 L 114.304,141.132 L 114.437,143.287 L 114.529,145.459 L 114.573,147.653 L 114.558,149.872 L 114.472,152.123 L 114.295,154.411 L 114.002,156.745 L 113.555,159.136 L 112.896,161.591 L 111.941,164.103 L 110.579,166.626 L 108.707,169.030 L 106.325,171.092 L 103.603,172.614 L 100.793,173.564 L 98.065,174.049 L 95.436,174.212 L 92.759,174.106 L 89.962,173.629 L 87.143,172.676 L 84.461,171.191 L 82.101,169.221 L 80.188,166.919 L 78.736,164.453 L 77.683,161.943 L 76.946,159.450 L 76.454,156.998 L 76.153,154.591 L 76.003,152.229 L 75.976,149.904 L 76.063,147.489 L 76.364,144.981 L 76.870,142.550 L 77.524,140.230 L 78.303,137.988 L 79.200,135.806 L 80.215,133.675 L 81.354,131.592 L 82.632,129.554 L 84.073,127.566 L 85.716,125.639 L 87.620,123.798 L 89.872,122.099 L 92.576,120.672 L 95.777,119.768 L 99.279,119.700 L 102.631,120.560 L 105.475,122.087 L 107.763,123.948 L 109.612,125.944 L 111.018,127.817 L 111.275,128.306 L 111.368,128.850 L 111.289,129.397 L 111.044,129.892 L 110.659,130.288 L 110.170,130.545 L 109.625,130.638 L 109.079,130.559 L 108.584,130.314 L 108.188,129.928 L 106.895,128.199 L 105.340,126.516 L 103.504,125.017 L 101.334,123.844 L 98.868,123.207 L 96.307,123.259 L 93.902,123.945 L 91.775,125.074 L 89.920,126.477 L 88.292,128.054 L 86.849,129.748 L 85.559,131.529 L 84.400,133.377 L 83.359,135.282 L 82.428,137.237 L 81.605,139.239 L 80.892,141.290 L 80.299,143.391 L 79.849,145.553 L 79.583,147.760 L 79.507,149.944 L 79.532,152.098 L 79.668,154.262 L 79.940,156.433 L 80.374,158.605 L 81.010,160.762 L 81.895,162.876 L 83.081,164.894 L 84.603,166.730 L 86.456,168.277 L 88.566,169.445 L 90.821,170.205 L 93.120,170.594 L 95.395,170.681 L 97.652,170.543 L 99.925,170.141 L 102.178,169.384 L 104.299,168.200 L 106.143,166.603 L 107.618,164.704 L 108.727,162.641 L 109.535,160.509 L 110.111,158.356 L 110.513,156.203 L 110.782,154.056 L 110.947,151.920 L 111.028,149.793 L 111.042,147.677 L 111.000,145.569 L 110.911,143.470 L 110.782,141.379 L 110.619,139.308 L 110.480,138.730 L 110.170,138.223 L 109.717,137.836 L 109.168,137.609 L 108.575,137.562 L 107.996,137.701 L 107.489,138.011 L 107.103,138.464 L 106.875,139.013 L 106.828,139.606 L 106.989,141.645 L 107.114,143.668 L 107.199,145.688 L 107.240,147.702 L 107.227,149.708 L 107.150,151.701 L 106.999,153.674 L 106.756,155.618 L 106.403,157.516 L 105.915,159.345 L 105.266,161.067 L 104.428,162.633 L 103.382,163.989 L 102.116,165.086 L 100.642,165.905 L 98.990,166.455 L 97.206,166.767 L 95.350,166.879 L 93.508,166.811 L 91.745,166.516 L 90.097,165.964 L 88.604,165.140 L 87.298,164.048 L 86.195,162.713 L 85.297,161.178 L 84.594,159.490 L 84.066,157.695 L 83.693,155.825 L 83.454,153.906 L 83.331,151.956 L 83.309,149.988 L 83.375,148.053 L 83.601,146.169 L 83.993,144.296 L 84.519,142.431 L 85.160,140.587 L 85.904,138.778 L 86.745,137.011 L 87.681,135.299 L 88.711,133.655 L 89.839,132.098 L 91.067,130.654 L 92.397,129.362 L 93.824,128.276 L 95.330,127.469 L 96.878,127.018 L 98.425,126.983 L 99.937,127.380 L 101.382,128.172 L 102.731,129.282 L 103.969,130.628 L 105.140,132.202 L 105.397,132.691 L 105.491,133.236 L 105.411,133.782 L 105.167,134.278 L 104.781,134.673 L 104.292,134.930 L 103.748,135.023 L 103.201,134.944 L 102.706,134.699 M 102.528,134.151 L 101.461,132.710 L 100.495,131.653 L 99.563,130.876 L 98.740,130.412 L 98.046,130.220 L 97.367,130.240 L 96.554,130.490 L 95.581,131.022 L 94.520,131.835 L 93.445,132.883 L 92.401,134.112 L 91.413,135.478 L 90.493,136.947 L 89.648,138.494 L 88.884,140.099 L 88.208,141.743 L 87.628,143.409 L 87.158,145.072 L 86.817,146.697 L 86.624,148.303 L 86.568,150.026 L 86.588,151.835 L 86.699,153.602 L 86.910,155.304 L 87.231,156.914 L 87.665,158.400 L 88.213,159.722 L 88.865,160.843 L 89.608,161.748 L 90.446,162.451 L 91.410,162.981 L 92.538,163.355 L 93.841,163.569 L 95.312,163.620 L 96.825,163.530 L 98.189,163.296 L 99.326,162.924 L 100.246,162.417 L 101.015,161.748 L 101.695,160.859 L 102.299,159.717 L 102.812,158.346 L 103.224,156.796 L 103.536,155.117 L 103.756,153.347 L 103.897,151.513 L 103.968,149.635 L 103.981,147.724 L 103.942,145.790 L 103.859,143.838 L 103.737,141.873 L 103.579,139.862 L 103.706,138.252 L 104.324,136.760 L 105.373,135.533 L 106.749,134.689 L 108.319,134.313 L 109.929,134.439 L 111.420,135.057 L 112.648,136.106 L 113.492,137.483 L 113.868,139.053 L 114.033,141.151 L 114.166,143.301 L 114.258,145.468 L 114.301,147.655 L 114.287,149.866 L 114.201,152.107 L 114.025,154.383 L 113.734,156.704 L 113.290,159.076 L 112.637,161.507 L 111.694,163.990 L 110.352,166.478 L 108.510,168.843 L 106.169,170.869 L 103.494,172.366 L 100.727,173.300 L 98.033,173.780 L 95.433,173.940 L 92.787,173.836 L 90.028,173.366 L 87.253,172.428 L 84.614,170.966 L 82.293,169.030 L 80.411,166.763 L 78.979,164.332 L 77.939,161.853 L 77.210,159.385 L 76.722,156.954 L 76.423,154.566 L 76.275,152.219 L 76.248,149.907 L 76.334,147.510 L 76.632,145.025 L 77.134,142.615 L 77.783,140.311 L 78.557,138.084 L 79.448,135.916 L 80.456,133.799 L 81.588,131.729 L 82.857,129.706 L 84.287,127.734 L 85.914,125.825 L 87.797,124.004 L 90.018,122.328 L 92.678,120.924 L 95.818,120.036 L 99.247,119.970 L 102.531,120.812 L 105.324,122.312 L 107.577,124.146 L 109.403,126.118 L 110.800,127.979 L 111.018,128.393 L 111.097,128.854 L 111.029,129.316 L 110.823,129.735 L 110.496,130.070 L 110.083,130.287 L 109.622,130.366 L 109.159,130.299 L 108.740,130.092 L 108.406,129.766 L 107.104,128.026 L 105.527,126.319 L 103.656,124.791 L 101.434,123.591 L 98.899,122.937 L 96.266,122.990 L 93.800,123.693 L 91.628,124.845 L 89.743,126.271 L 88.094,127.868 L 86.636,129.580 L 85.334,131.377 L 84.166,133.239 L 83.117,135.158 L 82.180,137.127 L 81.351,139.143 L 80.633,141.208 L 80.036,143.326 L 79.581,145.509 L 79.313,147.739 L 79.236,149.941 L 79.260,152.108 L 79.398,154.287 L 79.671,156.477 L 80.111,158.670 L 80.754,160.853 L 81.652,162.997 L 82.858,165.050 L 84.411,166.922 L 86.302,168.502 L 88.456,169.693 L 90.755,170.468 L 93.092,170.864 L 95.398,170.953 L 97.683,170.813 L 99.992,170.404 L 102.287,169.633 L 104.454,168.423 L 106.340,166.789 L 107.846,164.852 L 108.974,162.753 L 109.793,160.592 L 110.376,158.416 L 110.782,156.244 L 111.052,154.083 L 111.218,151.935 L 111.300,149.799 L 111.314,147.675 L 111.272,145.561 L 111.182,143.456 L 111.053,141.360 L 110.890,139.287 L 110.731,138.626 L 110.376,138.046 L 109.859,137.605 L 109.231,137.344 L 108.553,137.291 L 107.892,137.450 L 107.313,137.805 L 106.871,138.322 L 106.611,138.950 L 106.558,139.627 L 106.718,141.664 L 106.842,143.682 L 106.928,145.696 L 106.968,147.704 L 106.955,149.702 L 106.879,151.685 L 106.729,153.647 L 106.488,155.576 L 106.138,157.456 L 105.656,159.261 L 105.019,160.954 L 104.201,162.486 L 103.184,163.802 L 101.961,164.864 L 100.533,165.657 L 98.923,166.192 L 97.174,166.497 L 95.347,166.607 L 93.535,166.541 L 91.811,166.253 L 90.207,165.716 L 88.758,164.916 L 87.491,163.856 L 86.418,162.557 L 85.540,161.056 L 84.850,159.399 L 84.330,157.629 L 83.961,155.781 L 83.725,153.881 L 83.603,151.946 L 83.581,149.991 L 83.645,148.073 L 83.869,146.213 L 84.256,144.361 L 84.778,142.512 L 85.414,140.684 L 86.153,138.888 L 86.987,137.135 L 87.915,135.436 L 88.936,133.807 L 90.052,132.266 L 91.265,130.840 L 92.574,129.568 L 93.971,128.505 L 95.432,127.721 L 96.919,127.287 L 98.394,127.253 L 99.838,127.633 L 101.230,128.397 L 102.545,129.480 L 103.760,130.802 L 104.923,132.365 L 105.140,132.778 L 105.219,133.239 L 105.152,133.702 L 104.945,134.121 L 104.619,134.455 L 104.205,134.673 L 103.744,134.752 L 103.282,134.685 L 102.863,134.478 M 102.964,133.827 L 101.879,132.363 L 100.867,131.258 L 99.866,130.425 L 98.940,129.907 L 98.109,129.681 L 97.285,129.703 L 96.350,129.986 L 95.288,130.564 L 94.166,131.423 L 93.049,132.511 L 91.974,133.776 L 90.963,135.174 L 90.024,136.672 L 89.164,138.247 L 88.387,139.878 L 87.700,141.550 L 87.110,143.246 L 86.631,144.943 L 86.281,146.609 L 86.083,148.261 L 86.025,150.019 L 86.046,151.856 L 86.158,153.653 L 86.374,155.390 L 86.703,157.044 L 87.153,158.582 L 87.727,159.964 L 88.420,161.155 L 89.223,162.132 L 90.139,162.899 L 91.191,163.478 L 92.406,163.882 L 93.785,164.110 L 95.318,164.163 L 96.888,164.069 L 98.322,163.823 L 99.545,163.421 L 100.558,162.862 L 101.409,162.122 L 102.150,161.155 L 102.793,159.942 L 103.329,158.513 L 103.754,156.916 L 104.072,155.200 L 104.296,153.401 L 104.439,151.545 L 104.511,149.647 L 104.524,147.720 L 104.485,145.773 L 104.401,143.810 L 104.279,141.835 L 104.121,139.819 L 104.234,138.379 L 104.787,137.044 L 105.725,135.946 L 106.957,135.191 L 108.362,134.854 L 109.802,134.968 L 111.137,135.521 L 112.235,136.459 L 112.990,137.691 L 113.327,139.095 L 113.491,141.189 L 113.623,143.329 L 113.715,145.485 L 113.758,147.658 L 113.744,149.854 L 113.658,152.076 L 113.484,154.329 L 113.197,156.620 L 112.760,158.956 L 112.120,161.341 L 111.200,163.765 L 109.896,166.183 L 108.116,168.470 L 105.857,170.424 L 103.274,171.869 L 100.593,172.774 L 97.970,173.240 L 95.426,173.397 L 92.842,173.296 L 90.160,172.839 L 87.472,171.931 L 84.921,170.518 L 82.678,168.647 L 80.856,166.452 L 79.465,164.089 L 78.451,161.671 L 77.737,159.255 L 77.259,156.868 L 76.964,154.515 L 76.817,152.199 L 76.791,149.913 L 76.875,147.552 L 77.168,145.113 L 77.661,142.744 L 78.301,140.474 L 79.065,138.276 L 79.945,136.136 L 80.940,134.046 L 82.057,132.004 L 83.307,130.010 L 84.714,128.070 L 86.311,126.197 L 88.151,124.416 L 90.311,122.786 L 92.882,121.427 L 95.899,120.573 L 99.184,120.509 L 102.332,121.317 L 105.020,122.763 L 107.204,124.541 L 108.985,126.465 L 110.365,128.304 L 110.503,128.567 L 110.554,128.861 L 110.511,129.155 L 110.379,129.422 L 110.172,129.635 L 109.908,129.773 L 109.615,129.823 L 109.321,129.780 L 109.054,129.649 L 108.841,129.441 L 107.522,127.679 L 105.900,125.924 L 103.959,124.341 L 101.633,123.086 L 98.963,122.397 L 96.185,122.453 L 93.596,123.190 L 91.336,124.387 L 89.389,125.859 L 87.698,127.497 L 86.208,129.245 L 84.883,131.073 L 83.697,132.965 L 82.633,134.911 L 81.683,136.907 L 80.843,138.951 L 80.114,141.045 L 79.508,143.197 L 79.045,145.421 L 78.771,147.698 L 78.692,149.935 L 78.717,152.128 L 78.857,154.338 L 79.135,156.563 L 79.583,158.800 L 80.243,161.035 L 81.166,163.240 L 82.413,165.361 L 84.026,167.305 L 85.995,168.950 L 88.237,170.190 L 90.622,170.995 L 93.036,171.405 L 95.404,171.496 L 97.747,171.352 L 100.125,170.931 L 102.507,170.130 L 104.766,168.867 L 106.735,167.163 L 108.301,165.147 L 109.469,162.978 L 110.310,160.759 L 110.906,158.536 L 111.318,156.328 L 111.593,154.138 L 111.760,151.966 L 111.843,149.811 L 111.857,147.671 L 111.815,145.544 L 111.725,143.428 L 111.595,141.322 L 111.431,139.244 L 111.233,138.418 L 110.789,137.693 L 110.143,137.142 L 109.358,136.816 L 108.511,136.750 L 107.685,136.948 L 106.960,137.392 L 106.408,138.038 L 106.083,138.823 L 106.016,139.670 L 106.176,141.702 L 106.300,143.711 L 106.385,145.713 L 106.425,147.708 L 106.412,149.690 L 106.337,151.654 L 106.188,153.592 L 105.951,155.493 L 105.608,157.336 L 105.139,159.095 L 104.524,160.729 L 103.745,162.190 L 102.790,163.429 L 101.649,164.419 L 100.313,165.160 L 98.790,165.666 L 97.111,165.957 L 95.341,166.064 L 93.591,166.001 L 91.943,165.726 L 90.425,165.219 L 89.065,164.468 L 87.876,163.473 L 86.863,162.246 L 86.026,160.814 L 85.362,159.218 L 84.857,157.499 L 84.497,155.695 L 84.266,153.830 L 84.146,151.926 L 84.124,149.997 L 84.187,148.115 L 84.405,146.301 L 84.784,144.490 L 85.296,142.675 L 85.922,140.876 L 86.649,139.108 L 87.471,137.382 L 88.384,135.711 L 89.387,134.111 L 90.480,132.601 L 91.662,131.211 L 92.928,129.980 L 94.264,128.963 L 95.636,128.224 L 97.000,127.824 L 98.331,127.793 L 99.638,128.138 L 100.927,128.848 L 102.172,129.875 L 103.342,131.149 L 104.487,132.690 L 104.626,132.953 L 104.676,133.246 L 104.633,133.540 L 104.502,133.807 L 104.294,134.020 L 104.031,134.158 L 103.737,134.209 L 103.443,134.166 L 103.176,134.034 M 103.181,133.664 L 102.088,132.190 L 101.054,131.060 L 100.018,130.200 L 99.039,129.654 L 98.141,129.411 L 97.245,129.435 L 96.248,129.735 L 95.142,130.335 L 93.990,131.216 L 92.851,132.325 L 91.761,133.608 L 90.738,135.022 L 89.790,136.535 L 88.922,138.123 L 88.139,139.768 L 87.446,141.454 L 86.851,143.164 L 86.367,144.878 L 86.013,146.565 L 85.812,148.240 L 85.754,150.016 L 85.774,151.866 L 85.888,153.678 L 86.106,155.434 L 86.439,157.109 L 86.897,158.673 L 87.484,160.086 L 88.198,161.311 L 89.031,162.323 L 89.986,163.123 L 91.082,163.727 L 92.340,164.145 L 93.757,164.380 L 95.322,164.435 L 96.920,164.339 L 98.389,164.086 L 99.655,163.669 L 100.714,163.084 L 101.606,162.308 L 102.378,161.303 L 103.041,160.055 L 103.588,158.596 L 104.019,156.976 L 104.341,155.242 L 104.567,153.429 L 104.710,151.560 L 104.783,149.653 L 104.795,147.719 L 104.756,145.764 L 104.673,143.796 L 104.550,141.816 L 104.391,139.798 L 104.498,138.442 L 105.019,137.186 L 105.902,136.152 L 107.061,135.442 L 108.383,135.125 L 109.739,135.232 L 110.995,135.752 L 112.028,136.635 L 112.739,137.795 L 113.056,139.117 L 113.220,141.208 L 113.352,143.343 L 113.443,145.493 L 113.487,147.660 L 113.472,149.848 L 113.387,152.060 L 113.214,154.302 L 112.929,156.578 L 112.495,158.896 L 111.862,161.258 L 110.952,163.653 L 109.668,166.035 L 107.918,168.283 L 105.701,170.202 L 103.165,171.620 L 100.526,172.511 L 97.938,172.970 L 95.423,173.125 L 92.870,173.026 L 90.226,172.576 L 87.581,171.682 L 85.075,170.294 L 82.871,168.455 L 81.078,166.296 L 79.708,163.968 L 78.707,161.580 L 78.001,159.190 L 77.527,156.824 L 77.235,154.490 L 77.089,152.189 L 77.063,149.916 L 77.146,147.572 L 77.436,145.157 L 77.925,142.809 L 78.560,140.556 L 79.319,138.373 L 80.193,136.246 L 81.182,134.170 L 82.291,132.141 L 83.532,130.162 L 84.927,128.238 L 86.509,126.382 L 88.328,124.622 L 90.457,123.015 L 92.984,121.679 L 95.940,120.842 L 99.152,120.779 L 102.232,121.570 L 104.869,122.988 L 107.018,124.738 L 108.776,126.638 L 110.147,128.467 L 110.246,128.655 L 110.282,128.864 L 110.251,129.074 L 110.157,129.265 L 110.009,129.417 L 109.821,129.516 L 109.612,129.552 L 109.401,129.521 L 109.211,129.427 L 109.059,129.279 L 107.731,127.506 L 106.086,125.726 L 104.111,124.115 L 101.733,122.833 L 98.994,122.128 L 96.144,122.185 L 93.494,122.938 L 91.189,124.158 L 89.212,125.653 L 87.500,127.311 L 85.995,129.077 L 84.658,130.921 L 83.463,132.828 L 82.392,134.787 L 81.435,136.797 L 80.589,138.854 L 79.855,140.964 L 79.244,143.132 L 78.777,145.377 L 78.500,147.677 L 78.421,149.932 L 78.446,152.138 L 78.587,154.363 L 78.867,156.607 L 79.319,158.865 L 79.987,161.126 L 80.923,163.361 L 82.191,165.517 L 83.833,167.497 L 85.842,169.174 L 88.128,170.439 L 90.556,171.258 L 93.009,171.675 L 95.407,171.768 L 97.779,171.622 L 100.192,171.194 L 102.616,170.378 L 104.922,169.090 L 106.932,167.349 L 108.529,165.295 L 109.716,163.091 L 110.569,160.842 L 111.171,158.596 L 111.587,156.370 L 111.863,154.165 L 112.031,151.982 L 112.114,149.818 L 112.129,147.669 L 112.086,145.535 L 111.996,143.414 L 111.865,141.303 L 111.702,139.223 L 111.484,138.314 L 110.996,137.517 L 110.285,136.910 L 109.421,136.552 L 108.490,136.479 L 107.581,136.697 L 106.784,137.185 L 106.176,137.896 L 105.819,138.759 L 105.745,139.691 L 105.905,141.721 L 106.029,143.725 L 106.114,145.722 L 106.153,147.709 L 106.141,149.684 L 106.066,151.638 L 105.918,153.565 L 105.683,155.451 L 105.343,157.276 L 104.881,159.012 L 104.277,160.617 L 103.517,162.042 L 102.593,163.242 L 101.493,164.196 L 100.203,164.912 L 98.723,165.402 L 97.079,165.688 L 95.337,165.793 L 93.619,165.731 L 92.009,165.462 L 90.535,164.970 L 89.218,164.244 L 88.068,163.281 L 87.085,162.090 L 86.269,160.692 L 85.618,159.127 L 85.121,157.434 L 84.766,155.651 L 84.536,153.805 L 84.417,151.916 L 84.396,150.001 L 84.458,148.136 L 84.673,146.345 L 85.048,144.555 L 85.555,142.757 L 86.176,140.973 L 86.897,139.218 L 87.713,137.506 L 88.618,135.848 L 89.612,134.263 L 90.693,132.769 L 91.860,131.397 L 93.105,130.186 L 94.410,129.191 L 95.738,128.476 L 97.041,128.092 L 98.299,128.062 L 99.538,128.391 L 100.776,129.073 L 101.986,130.072 L 103.133,131.322 L 104.270,132.852 L 104.368,133.040 L 104.404,133.249 L 104.374,133.460 L 104.280,133.650 L 104.131,133.802 L 103.943,133.901 L 103.734,133.937 L 103.524,133.906 L 103.333,133.812" id="path2" ns2:nodetypes="czzc" fill="none" stroke="black" />
  </g>
</svg>